<?xml version="1.0" encoding="UTF-8"?>
<svg id="Layer_1" data-name="Layer 1" xmlns="http://www.w3.org/2000/svg" viewBox="0 0 50 81.57">
  <path d="M45.51,41.71c0,6.34,.08,12.68-.01,19.02-.29,19.81-18.72,24.3-30.65,18.47-6.23-3.04-9.78-8.48-9.97-15.17-.42-14.99-.68-30.02,0-44.99C5.38,7.87,13.54,1.21,24.65,1.11c11.18-.1,19.55,6.84,20.53,17.97,.66,7.49,.13,15.09,.13,22.63,.07,0,.14,0,.2,0Zm-9.1,.07c0-3.26,0-6.52,0-9.79,0-3.26,.09-6.53-.04-9.78-.29-6.86-5.09-11.71-11.44-11.69-6.5,.02-11.21,4.68-11.29,11.72-.15,12.77-.2,25.54,.1,38.3,.06,2.68,1.3,5.69,2.9,7.89,2.73,3.74,7.95,4.68,12.46,3.05,4.25-1.54,7.19-5.8,7.28-10.96,.11-6.24,.03-12.49,.03-18.73Z"/>
</svg>