<?xml version="1.0" encoding="UTF-8"?>
<svg id="Layer_1" data-name="Layer 1" xmlns="http://www.w3.org/2000/svg" viewBox="0 0 50 81.57">
  <path d="M20.71,21.01c-.69,.52-.93,.65-1.1,.83-3.53,4.04-5.37,4.08-8.65-.25-.63-.83-.67-2.85-.09-3.72,3.18-4.82,6.56-9.52,10.05-14.12,1.85-2.44,4.69-1.54,7.04-1.13,2.09,.37,1.8,2.5,1.8,4.19,0,20.7,0,41.4,0,62.09,0,.99,0,1.99,0,3.3,2.46,0,4.58,.01,6.7,0,2.07-.02,3.12,.95,3.08,3.06-.02,1.03-.04,2.05-.02,3.08,.04,2.23-1.08,3.21-3.27,3.21-7.37-.01-14.74,0-22.11,.02-2.16,0-3.33-.95-3.27-3.2,.03-1.02,0-2.05,0-3.08-.03-2.07,.98-3.12,3.06-3.11,.09,0,.19,0,.28,0,6.5-.31,6.47-.31,6.47-6.74,0-13.52,.02-27.04,.03-40.56,0-1.11,0-2.22,0-3.86Z"/>
</svg>