<?xml version="1.0" encoding="UTF-8"?>
<svg id="Layer_1" data-name="Layer 1" xmlns="http://www.w3.org/2000/svg" viewBox="0 0 50 81.57">
  <path d="M13.92,72.19c1.44,0,2.54,0,3.63,0,8.12-.01,16.23,.02,24.35-.06,2.5-.02,3.65,.99,3.48,3.51-.07,1.02-.03,2.05-.04,3.08-.02,1.82-.99,2.81-2.77,2.81-11.57,.03-23.14,.04-34.71,.02-2.03,0-2.99-1.09-3.14-3.13-.76-10.52,1.94-19.7,9.86-27.1,5.31-4.97,10.38-10.2,15.59-15.27,3.87-3.76,6.07-8.07,5.65-13.69-.45-6.15-4.9-10.97-10.77-11.12-5.81-.14-10.54,4.26-11.12,10.35-.31,3.3-1.05,3.63-6.13,3.31-2.73-.17-3.09-1.8-2.99-4.02C5.33,10.05,12.87,2.46,23.75,1.89c10.63-.56,19.14,6.42,20.88,17.03,1.63,9.95-1.57,18.13-8.77,24.99-5.14,4.88-10.18,9.87-15.24,14.84-3.61,3.55-6.15,7.67-6.7,13.46Z"/>
</svg>