<?xml version="1.0" encoding="UTF-8"?>
<svg id="Layer_1" data-name="Layer 1" xmlns="http://www.w3.org/2000/svg" viewBox="0 0 50 81.57">
  <path d="M38.33,42.06c.96,1.08,2,2.27,3.05,3.44,5.61,6.22,5.18,25.05-2.86,31.26-7.05,5.44-14.76,6.07-22.71,2.88-7-2.8-10.21-8.67-10.87-15.99-.28-3.09,.49-3.8,3.61-3.83q4.54-.05,5.81,4.32c1.56,5.36,5.78,8.3,11.34,7.92,5.19-.36,9.27-4.08,9.91-9.37,.3-2.48,.34-5.05,.05-7.53-.59-5.05-4.98-8.87-10.19-8.99-2.54-.06-3.73-.92-3.68-3.65,.09-4.93,.21-5.3,3.45-5.52,5.46-.38,9.35-3.58,10.2-9.01,.44-2.8,.4-5.79-.05-8.6-.89-5.63-5.56-9.19-11.11-8.93-5.31,.24-9.49,4.3-10.33,9.71-.2,1.29-1.02,3.35-1.83,3.49-2.09,.36-4.38,.04-6.49-.45-.49-.11-.88-1.95-.83-2.97C5.28,9.32,13.14,1.45,23.89,1.04c11.01-.42,19.64,6.69,20.84,17.62,.59,5.35,1.06,10.88-1.54,15.93-1.3,2.53-3.1,4.79-4.87,7.47Z"/>
</svg>