<?xml version="1.0" encoding="UTF-8"?>
<svg id="Layer_1" data-name="Layer 1" xmlns="http://www.w3.org/2000/svg" viewBox="0 0 50 81.57">
  <path d="M12.78,60.22c5.44,0,10.46,.06,15.47-.09,.55-.02,1.49-1.28,1.51-2,.15-4.27,.16-8.55,.05-12.82-.07-2.62,.85-3.84,3.62-3.82,4.66,.04,5.49,.42,5.55,3.7,.09,4.83,.02,9.66,.02,15.07,1.99,0,3.74-.02,5.49,0,2.09,.02,3.17,1.04,3.08,3.19-.03,.76,0,1.52,0,2.28-.01,3.42-.56,3.98-3.95,4.02-1.4,.02-2.8,0-4.64,0,0,2.94,.05,5.57-.01,8.19-.08,3.06-.9,3.64-4.74,3.61-3.69-.03-4.39-.57-4.44-3.58-.05-2.63-.01-5.26-.01-8.24-1.86,0-3.35,0-4.84,0-6.27,0-12.54-.05-18.81,.04-2.68,.04-4.01-1.08-3.67-3.74,.43-3.35,.65-6.81,1.66-9.99C9.64,38.77,15.36,21.57,21.01,4.34c1.16-3.54,5.65-5.47,8.81-3.47,.81,.51,1.3,2.51,1.02,3.58-.95,3.67-2.32,7.23-3.5,10.84-4.65,14.26-9.29,28.52-13.93,42.79-.17,.53-.32,1.06-.65,2.14Z"/>
</svg>