<?xml version="1.0" encoding="UTF-8"?>
<svg id="Layer_1" data-name="Layer 1" xmlns="http://www.w3.org/2000/svg" viewBox="0 0 50 81.57">
  <path d="M13.43,10.33c0,5.92-.06,11.59,.08,17.26,.01,.58,1.16,1.59,1.82,1.63,3.16,.17,6.34,.03,9.52,.08,11.67,.18,19.51,7.1,20.44,18.7,.46,5.82,.55,11.83-.37,17.56-1.74,10.85-10.64,16.88-22.13,15.9-10.9-.93-17.98-8.49-18.35-19.62-.01-.37,0-.75,0-1.12-.02-5.42,1.41-6.64,6.75-5.35,.88,.21,1.79,1.47,2.14,2.44,.39,1.09,.12,2.4,.2,3.61,.45,6.14,4.94,10.64,10.76,10.82,6.38,.2,11.31-3.81,11.85-10.19,.37-4.35,.37-8.78,0-13.13-.53-6.07-5.49-10.26-11.61-10.31-5.41-.04-10.83,.02-16.24,0-3.13,0-3.88-.7-3.89-3.71-.02-9.98-.01-19.96,.03-29.95,.01-3.31,.69-4,3.91-4.01,11.11-.02,22.21-.02,33.32,0,3.42,0,3.78,.53,3.78,4.9,0,3.66-.53,4.31-3.83,4.32-8.59,.03-17.17,0-25.76,.01-.64,0-1.29,.07-2.39,.14Z"/>
</svg>