<?xml version="1.0" encoding="UTF-8"?>
<svg id="Layer_1" data-name="Layer 1" xmlns="http://www.w3.org/2000/svg" viewBox="0 0 50 81.57">
  <path d="M13.29,36.57c5.43-2.41,10.07-3.54,15.06-2.65,8.64,1.55,14.57,6.69,16.12,15.29,1.37,7.63,1.89,15.44-1.95,22.69-3.74,7.08-11.64,10.6-20.78,9.45-8.45-1.07-14.27-6.04-16.24-13.98-.45-1.8-.84-3.67-.85-5.51-.07-13.99-.26-27.99,.04-41.97,.17-8.09,3.55-14.87,11.5-17.98,7.87-3.08,15.65-2.47,22.41,3.12,4.32,3.57,6.27,8.46,6.51,14.04,.09,2.08-.91,3.14-3,3.15-.75,0-1.5-.05-2.24,.01-2.44,.2-3.71-.63-4.07-3.33-.59-4.43-3.26-7.47-7.56-8.84-4.07-1.29-7.86-.52-10.88,2.46-1.4,1.38-2.88,3.33-3.07,5.16-.63,6.06-.68,12.17-.99,18.9Zm22.68,20.94c0-1.1,.08-2.51-.01-3.9-.39-5.77-4.81-10.28-10.36-10.61-5.76-.35-10.73,3.27-11.56,9.11-.53,3.73-.5,7.64,0,11.38,.56,4.17,3.29,7.09,7.41,8.26,4.35,1.23,8.3,.41,11.53-2.99,2.97-3.12,3.26-6.96,2.99-11.25Z"/>
</svg>