<?xml version="1.0" encoding="UTF-8"?>
<svg id="Layer_1" data-name="Layer 1" xmlns="http://www.w3.org/2000/svg" viewBox="0 0 50 81.57">
  <path d="M34.24,10.43c-6.04,0-11.52,0-16.99,0-2.8,0-5.6-.04-8.4,.06-2.42,.09-3.44-1.02-3.29-3.37,.04-.65,0-1.31,.02-1.96,.06-3.39,.5-3.88,3.93-3.89,10.36-.04,20.73-.05,31.09-.02,3.43,.01,4.07,.54,3.83,3.92-.2,2.83-.57,5.78-1.57,8.39-8.31,21.58-16.79,43.1-25.22,64.64-1.09,2.78-6.72,4.53-8.89,2.47-.75-.71-.9-2.79-.47-3.91,4.65-12.2,9.46-24.34,14.24-36.49,3.82-9.72,7.64-19.43,11.74-29.83Z"/>
</svg>