<?xml version="1.0" encoding="UTF-8"?>
<svg id="Layer_1" data-name="Layer 1" xmlns="http://www.w3.org/2000/svg" viewBox="0 0 50 81.57">
  <path d="M38.12,39.81c5.03,3.94,6.94,9.62,6.83,16.25-.1,5.59,.29,11.19-2.86,16.28-4.47,7.22-12.9,10.61-22.21,8.69-7.81-1.61-13.65-7.82-14.51-16.13-.47-4.52-.36-9.14-.06-13.68,.32-4.88,3.02-8.71,6.74-11.91-7.28-7.76-6.55-16.98-4.57-25.97C9.38,4.61,16.37,.14,25.64,.38c8.61,.22,15.51,5.37,17,13.82,.9,5.05,.84,10.46,.12,15.55-.48,3.37-2.91,6.47-4.64,10.06ZM14.12,58.36h.05c0,1.21-.05,2.43,0,3.64,.24,5.35,4.22,9.64,9.39,10.15,5.6,.55,10.54-2.52,11.64-7.82,.67-3.24,.67-6.67,.56-10-.2-5.91-4.92-10.3-10.75-10.35-6.04-.05-10.58,4.29-10.89,10.46-.07,1.3,0,2.61,0,3.92ZM34.45,22.2s-.08,0-.13,0c0-1.21,.08-2.42-.01-3.63-.37-5.01-4.21-8.81-9.03-8.98-4.85-.18-8.87,2.96-9.52,7.96-.41,3.11-.41,6.33-.07,9.45,.51,4.65,4.36,7.7,9.11,7.74,4.88,.04,8.69-3.07,9.4-7.81,.23-1.55,.17-3.15,.24-4.73Z"/>
</svg>