<?xml version="1.0" encoding="UTF-8"?>
<svg id="Layer_1" data-name="Layer 1" xmlns="http://www.w3.org/2000/svg" viewBox="0 0 50 81.57">
  <path d="M36.53,47.95c-2.38,.86-3.9,1.53-5.49,1.97-14.17,3.89-26.15-4.96-26.59-19.65-.1-3.17-.08-6.34-.01-9.51C4.72,8.1,12.46,.15,24.58,0c12.12-.15,20.46,7.6,20.77,20.09,.34,13.8,.4,27.62-.04,41.41-.49,15.53-15.24,24.33-29.46,17.97-6.76-3.03-10.12-8.56-10.95-15.74-.3-2.59,.68-3.67,3.29-3.66,3.98,.01,5.23-.83,6.29,4.19,1.01,4.79,5.33,7.65,10.41,7.68,5.06,.03,9.75-2.99,10.57-7.85,.86-5.09,.74-10.35,1.08-16.14Zm-.49-22.59c.11,0,.23-.01,.34-.02-.22-2.49-.17-5.05-.72-7.47-1.18-5.25-5.76-8.71-10.93-8.62-5.42,.1-9.88,3.36-10.63,8.84-.64,4.64-.68,9.5-.08,14.15,.74,5.8,5.66,9.38,11.24,9.17,5.48-.21,9.98-4.26,10.73-9.92,.27-2.01,.04-4.08,.04-6.13Z"/>
</svg>