<?xml version="1.0" encoding="UTF-8"?>
<svg id="Layer_2" data-name="Layer 2" xmlns="http://www.w3.org/2000/svg" viewBox="0 0 333.4 89.78">
  <defs>
    <style>
      .cls-1 {
        fill: #d8cb91;
      }
    </style>
  </defs>
  <g id="Layer_1-2" data-name="Layer 1">
    <g>
      <path class="cls-1" d="M333.36,44.9c-.22-1.22-2.25-2.41-3.71-3.05-2.08-.91-3.56-2.23-4.77-4.12-1.67-2.58-3.36-5.2-5.42-7.47-3.47-3.83-7.45-4.48-12.12-2.48-.41,.18-.86,.27-1.5,.46,.23-.74,.39-1.22,.53-1.69,1.77-6.06-.51-9.95-6.71-11.26-2.08-.44-4.21-.63-6.47-.96,.77-3.63,1.33-7.2-1.56-10.18-2.71-2.8-6.26-3.46-9.92-4.16-1.25,5.14-4.55,7.54-9.44,7.94-.92,.08-1.86-.04-2.79-.04-10.41,0-20.81,.02-31.22,.02-10.41,0-163.94-.02-174.34-.02-.93,0-1.87,.12-2.79,.04-4.89-.4-8.19-2.8-9.44-7.94-3.66,.69-7.21,1.36-9.92,4.16-2.89,2.99-2.33,6.56-1.56,10.18-2.26,.33-4.39,.52-6.47,.96-6.2,1.31-8.49,5.2-6.71,11.26,.14,.47,.29,.95,.53,1.69-.64-.19-1.09-.28-1.5-.46-4.67-2-8.65-1.35-12.12,2.48-2.05,2.27-3.75,4.89-5.42,7.47-1.22,1.89-2.69,3.2-4.77,4.12-1.46,.64-3.5,1.83-3.71,3.05-.36,2.03,2.01,2.65,3.65,3.27,2.2,.83,3.67,2.27,4.91,4.26,1.58,2.55,3.29,5.08,5.33,7.27,3.72,3.98,7.25,4.52,12.28,2.38,.32-.14,.65-.26,1.29-.51-.31,1.18-.58,2.11-.8,3.04-1.07,4.43,.46,7.78,4.74,9.31,2.72,.97,5.68,1.29,8.56,1.91-.81,9.33,2.44,13.31,11.69,13.95,.49-1.14,.83-2.42,1.52-3.46,2.14-3.19,5.3-4.44,9.06-4.44,10.96,0,165.04,0,176,0,10.96,0,21.92,0,32.88,0,3.76,0,6.92,1.26,9.06,4.44,.69,1.04,1.03,2.31,1.52,3.46,9.25-.65,12.5-4.63,11.69-13.95,2.88-.62,5.84-.94,8.56-1.91,4.28-1.53,5.81-4.87,4.74-9.31-.22-.93-.49-1.86-.8-3.04,.64,.26,.97,.38,1.29,.51,5.03,2.14,8.57,1.6,12.28-2.38,2.04-2.19,3.74-4.72,5.33-7.27,1.24-1.99,2.71-3.44,4.91-4.26,1.64-.62,4.01-1.24,3.65-3.27Z"/>
      <g>
        <path d="M107.83,67.35c-3.53,0-6.23-.92-8.09-2.75-1.86-1.83-2.79-4.41-2.79-7.74,0-1.18,.16-2.49,.49-3.93,.33-1.44,.78-2.85,1.36-4.24l3.38,1.02c-.5,1.1-.9,2.23-1.22,3.4-.31,1.17-.47,2.19-.47,3.08,0,1.78,.52,3.16,1.57,4.14s2.49,1.47,4.32,1.47h2.91c1.1,0,2.02-.13,2.77-.39s1.35-.68,1.81-1.26c.46-.58,.79-1.33,1-2.28,.21-.94,.31-2.09,.31-3.46V28.86h4.16v23.92h4.48v4.08l-1.06,1.06h-3.65c-.45,3.22-1.58,5.6-3.42,7.13-1.83,1.53-4.45,2.3-7.85,2.3Z"/>
        <path d="M122.76,53.84l1.06-1.06h3.65c1.07,0,1.81-.11,2.22-.33,.41-.22,.61-.61,.61-1.16,0-.37-.1-.71-.31-1.04-.21-.33-.6-.79-1.18-1.39l-4.59-4.59v-9.35l18.3-6.52v4.71l-16.49,5.89v.2l9.62,9.66c.79,.79,1.49,1.43,2.12,1.94,.63,.51,1.22,.92,1.79,1.22,.56,.3,1.11,.5,1.65,.61,.54,.11,1.11,.16,1.71,.16v4.08l-1.06,1.06c-.92,0-1.73-.08-2.43-.25s-1.39-.46-2.06-.88c-.67-.42-1.36-.99-2.06-1.71-.71-.72-1.51-1.63-2.4-2.73l-.94-1.22-.2,.12c.1,.45,.16,.92,.16,1.41,0,1.52-.45,2.78-1.33,3.77-.89,1-2.11,1.49-3.65,1.49h-4.16v-4.08Z"/>
        <path d="M141.84,53.84l1.06-1.06h1.57c1.05,0,1.77-.22,2.18-.67,.41-.44,.61-1.14,.61-2.08V28.86h4.16v21.17c0,2.7-.53,4.68-1.59,5.95-1.06,1.27-2.85,1.92-5.36,1.94h-2.63v-4.08Z"/>
        <path d="M156.49,28.86h4.2v29.06h-4.2V28.86Z"/>
        <path d="M185.71,67.35c-3.85,0-6.78-.92-8.8-2.75-2.02-1.83-3.02-4.41-3.02-7.74,0-1.18,.16-2.49,.49-3.93,.33-1.44,.78-2.85,1.36-4.24l3.38,1.02c-.5,1.1-.9,2.22-1.22,3.36-.31,1.14-.47,2.14-.47,3,0,1.81,.61,3.21,1.83,4.22,1.22,1.01,2.89,1.51,5.01,1.51h2.91c2.41,0,4.17-.52,5.28-1.57,1.11-1.05,1.67-2.68,1.67-4.91,0-.47-.05-1.14-.16-2-.11-.86-.31-2.02-.63-3.46l-.39-1.96,3.77-.75,.39,1.96c.13,.68,.25,1.32,.35,1.92,.1,.6,.18,1.18,.24,1.73h.08l2.08-3.53c.97-1.62,1.94-3,2.91-4.12,.97-1.12,1.98-2.04,3.02-2.75,1.05-.71,2.14-1.22,3.28-1.53s2.35-.47,3.63-.47c2.93,0,5.15,.8,6.66,2.4,1.5,1.6,2.26,3.82,2.26,6.68s-.81,5.11-2.43,6.46c-1.62,1.35-4.14,2.02-7.54,2.02h-13.94c-.37,3.22-1.53,5.6-3.48,7.13-1.95,1.53-4.79,2.3-8.5,2.3Zm25.92-14.57c2.3,0,3.94-.24,4.91-.73,.97-.48,1.45-1.39,1.45-2.73s-.37-2.24-1.12-2.87c-.75-.63-1.94-.94-3.59-.94h-1.18c-1.15,0-2.16,.06-3.02,.18-.86,.12-1.66,.34-2.38,.67-.72,.33-1.38,.79-1.98,1.38-.6,.59-1.2,1.34-1.81,2.26l-1.69,2.55,.12,.24h10.29Zm-.47-16.02c-.63,0-1.15-.19-1.55-.57-.41-.38-.61-.99-.61-1.83s.2-1.49,.61-1.87c.41-.38,.92-.57,1.55-.57h.67c.63,0,1.14,.19,1.55,.57s.61,1,.61,1.87-.2,1.45-.61,1.83-.92,.57-1.55,.57h-.67Z"/>
        <path d="M220.7,62.2h1.53c2.51,0,4.31-.57,5.38-1.71,1.07-1.14,1.6-2.79,1.57-4.97,0-.65-.04-1.34-.12-2.06-.08-.72-.18-1.46-.31-2.22l-.83-4.99,3.81-.63,.59,3.46c.24,1.31,.39,2.54,.47,3.69h3.65v4.08l-1.06,1.06h-2.59c-.18,1.41-.54,2.7-1.06,3.85-.52,1.15-1.22,2.14-2.08,2.96-.86,.83-1.91,1.47-3.14,1.92-1.23,.46-2.64,.69-4.24,.69h-1.57v-5.14Z"/>
        <path d="M235.39,53.84l1.06-1.06h3.69v-.2c-.65-.71-1.18-1.54-1.57-2.51-.39-.97-.59-2-.59-3.1,0-1.26,.22-2.43,.65-3.51,.43-1.09,1.03-2.03,1.81-2.83,.77-.8,1.67-1.43,2.71-1.88s2.15-.69,3.36-.69c1.94,0,3.54,.39,4.81,1.17,1.27,.78,2.32,1.88,3.16,3.29l-3.53,3.29c-.6-.92-1.29-1.58-2.06-1.99-.77-.41-1.67-.61-2.69-.61-1.47,0-2.61,.33-3.42,.99-.81,.66-1.22,1.58-1.22,2.76,0,1.37,.58,2.45,1.73,3.26,1.15,.8,2.71,1.2,4.67,1.2,.65,0,1.33-.05,2.04-.14s1.37-.23,2-.41l3.61-.98,1.3,4.63-5.58,1.69c-1.18,.34-2.3,.62-3.36,.84-1.06,.22-2.19,.4-3.38,.53-1.19,.13-2.53,.22-4,.28-1.48,.05-3.21,.08-5.2,.08v-4.08Z"/>
      </g>
    </g>
  </g>
</svg>