<?xml version="1.0" encoding="UTF-8"?>
<svg id="Layer_2" data-name="Layer 2" xmlns="http://www.w3.org/2000/svg" viewBox="0 0 333.4 89.78">
  <defs>
    <style>
      .cls-1 {
        fill: #d8cb91;
      }
    </style>
  </defs>
  <g id="Layer_1-2" data-name="Layer 1">
    <g>
      <path class="cls-1" d="M333.36,44.9c-.22-1.22-2.25-2.41-3.71-3.05-2.08-.91-3.56-2.23-4.77-4.12-1.67-2.58-3.36-5.2-5.42-7.47-3.47-3.83-7.45-4.48-12.12-2.48-.41,.18-.86,.27-1.5,.46,.23-.74,.39-1.22,.53-1.69,1.77-6.06-.51-9.95-6.71-11.26-2.08-.44-4.21-.63-6.47-.96,.77-3.63,1.33-7.2-1.56-10.18-2.71-2.8-6.26-3.46-9.92-4.16-1.25,5.14-4.55,7.54-9.44,7.94-.92,.08-1.86-.04-2.79-.04-10.41,0-20.81,.02-31.22,.02-10.41,0-163.94-.02-174.34-.02-.93,0-1.87,.12-2.79,.04-4.89-.4-8.19-2.8-9.44-7.94-3.66,.69-7.21,1.36-9.92,4.16-2.89,2.99-2.33,6.56-1.56,10.18-2.26,.33-4.39,.52-6.47,.96-6.2,1.31-8.49,5.2-6.71,11.26,.14,.47,.29,.95,.53,1.69-.64-.19-1.09-.28-1.5-.46-4.67-2-8.65-1.35-12.12,2.48-2.05,2.27-3.75,4.89-5.42,7.47-1.22,1.89-2.69,3.2-4.77,4.12-1.46,.64-3.5,1.83-3.71,3.05-.36,2.03,2.01,2.65,3.65,3.27,2.2,.83,3.67,2.27,4.91,4.26,1.58,2.55,3.29,5.08,5.33,7.27,3.72,3.98,7.25,4.52,12.28,2.38,.32-.14,.65-.26,1.29-.51-.31,1.18-.58,2.11-.8,3.04-1.07,4.43,.46,7.78,4.74,9.31,2.72,.97,5.68,1.29,8.56,1.91-.81,9.33,2.44,13.31,11.69,13.95,.49-1.14,.83-2.42,1.52-3.46,2.14-3.19,5.3-4.44,9.06-4.44,10.96,0,165.04,0,176,0,10.96,0,21.92,0,32.88,0,3.76,0,6.92,1.26,9.06,4.44,.69,1.04,1.03,2.31,1.52,3.46,9.25-.65,12.5-4.63,11.69-13.95,2.88-.62,5.84-.94,8.56-1.91,4.28-1.53,5.81-4.87,4.74-9.31-.22-.93-.49-1.86-.8-3.04,.64,.26,.97,.38,1.29,.51,5.03,2.14,8.57,1.6,12.28-2.38,2.04-2.19,3.74-4.72,5.33-7.27,1.24-1.99,2.71-3.44,4.91-4.26,1.64-.62,4.01-1.24,3.65-3.27Z"/>
      <g>
        <path d="M74.04,57.92c-2.38-.03-4.1-.56-5.16-1.61-1.06-1.05-1.59-2.59-1.59-4.63v-.31h-.24c-.39,1.65-.99,2.81-1.79,3.48-.8,.67-1.94,1-3.44,1-1.83,0-3.23-.49-4.18-1.47-.96-.98-1.43-2.38-1.43-4.18,0-1.96,.57-3.59,1.71-4.87,1.14-1.28,2.77-2.47,4.89-3.57l4.28-2.2v-2.12h4.12v13.04c0,.86,.2,1.47,.61,1.81,.41,.34,1.09,.51,2.06,.51h1.22v4.08l-1.06,1.06Zm-11.11-7.23c1.54,0,2.62-.17,3.24-.51,.62-.34,.92-.94,.92-1.81v-5.03l-3.22,1.61c-1.41,.68-2.45,1.28-3.1,1.81-.66,.52-.98,1.18-.98,1.96,0,.71,.23,1.21,.69,1.51,.46,.3,1.28,.45,2.46,.45Zm.08-16.46c-.63,0-1.15-.19-1.55-.57-.41-.38-.61-.99-.61-1.83s.2-1.49,.61-1.87c.41-.38,.92-.57,1.55-.57h.67c.63,0,1.14,.19,1.55,.57,.41,.38,.61,1,.61,1.87s-.2,1.45-.61,1.83c-.41,.38-.92,.57-1.55,.57h-.67Zm5.85,0c-.63,0-1.15-.19-1.55-.57-.41-.38-.61-.99-.61-1.83s.2-1.49,.61-1.87c.41-.38,.92-.57,1.55-.57h.67c.63,0,1.15,.19,1.55,.57,.41,.38,.61,1,.61,1.87s-.2,1.45-.61,1.83c-.41,.38-.92,.57-1.55,.57h-.67Z"/>
        <path d="M74.04,53.84l1.06-1.06h.98c1.83,0,3.1-.19,3.79-.57,.69-.38,1.04-1.07,1.04-2.06,0-.42-.03-.95-.1-1.59s-.19-1.5-.37-2.57l-.63-3.53,3.85-.63,.55,3.54c.13,.89,.24,1.76,.31,2.61,.08,.85,.12,1.58,.12,2.18,0,2.67-.68,4.63-2.04,5.89-1.36,1.26-3.53,1.88-6.52,1.88h-2.04v-4.08Zm3.69,12.33c-.63,0-1.15-.19-1.55-.57-.41-.38-.61-.99-.61-1.83s.2-1.49,.61-1.87c.41-.38,.92-.57,1.55-.57h.67c.63,0,1.14,.19,1.55,.57,.41,.38,.61,1,.61,1.87s-.2,1.45-.61,1.83c-.41,.38-.92,.57-1.55,.57h-.67Zm5.85,0c-.63,0-1.15-.19-1.55-.57-.41-.38-.61-.99-.61-1.83s.2-1.49,.61-1.87c.41-.38,.92-.57,1.55-.57h.67c.63,0,1.14,.19,1.55,.57,.41,.38,.61,1,.61,1.87s-.2,1.45-.61,1.83c-.41,.38-.92,.57-1.55,.57h-.67Z"/>
        <path d="M92.14,57.92c-1.57,0-2.79-.41-3.65-1.24-.86-.82-1.3-2.1-1.3-3.83v-2.75h4.01v2.67h6.13c1.1,0,1.87-.21,2.3-.63s.65-1,.65-1.73-.31-1.49-.94-2.34c-.63-.85-1.69-2-3.18-3.44l-3.97-3.89,3.57-3.77,3.42,3.53c.92,.94,1.69,1.83,2.32,2.65,.63,.82,1.14,1.63,1.53,2.42,.39,.79,.67,1.58,.84,2.38,.17,.8,.25,1.64,.25,2.53,0,2.33-.62,4.15-1.87,5.46-1.24,1.31-3.02,1.96-5.32,1.96h-4.79Z"/>
        <path d="M115.63,57.92c-2.59,0-4.5-.58-5.71-1.73-1.22-1.15-1.83-3.06-1.83-5.73V28.86h4.2v21.05c0,1.13,.24,1.89,.73,2.28s1.32,.59,2.49,.59h1.22v4.08l-1.06,1.06h-.04Z"/>
        <path d="M115.67,53.84l1.06-1.06h5.73l.08-.2-4.32-5.3v-5.3c1.26-.6,2.6-1.07,4.03-1.39,1.43-.33,2.82-.49,4.18-.49,5.6,0,8.4,2.11,8.4,6.32,0,.71-.07,1.32-.22,1.85-.14,.52-.37,1.02-.69,1.49-.31,.47-.71,.94-1.2,1.39-.48,.46-1.08,.96-1.79,1.51l.04,.12h5.34v4.08l-1.06,1.06h-1.02c-1.31,0-2.64-.16-3.99-.49-1.35-.33-2.57-.84-3.67-1.55-1.1,.71-2.27,1.22-3.5,1.55-1.23,.33-2.5,.49-3.81,.49h-3.61v-4.08Zm5.97-7.78l5.26,6.17,1.81-1.49c.45-.37,.83-.68,1.16-.94s.6-.51,.81-.75c.21-.24,.37-.48,.47-.73s.16-.53,.16-.84c0-.79-.39-1.35-1.16-1.71-.77-.35-2.02-.53-3.75-.53-.79,0-1.6,.05-2.44,.16s-1.61,.25-2.32,.43v.24Z"/>
        <path d="M135.26,53.84l1.06-1.06h1.57c1.05,0,1.77-.22,2.18-.67,.41-.44,.61-1.14,.61-2.08V28.86h4.16v21.17c0,2.7-.53,4.68-1.59,5.95-1.06,1.27-2.85,1.92-5.36,1.94h-2.63v-4.08Z"/>
        <path d="M149.91,28.86h4.2v29.06h-4.2V28.86Z"/>
        <path d="M182.66,58.39c-2.83,0-5.2-.15-7.13-.45-1.92-.3-3.48-.8-4.67-1.49-1.19-.69-2.05-1.6-2.57-2.73-.52-1.12-.79-2.5-.79-4.12,0-1.05,.14-2.18,.41-3.4,.27-1.22,.67-2.45,1.2-3.71l3.38,.98c-.47,.97-.84,1.89-1.1,2.75-.26,.86-.39,1.64-.39,2.32,0,.79,.16,1.45,.49,1.98,.33,.54,.86,.97,1.59,1.3,.73,.33,1.68,.57,2.85,.73,1.16,.16,2.58,.24,4.26,.24h5.5c1.75,0,3.23-.04,4.42-.14,1.19-.09,2.15-.24,2.89-.45,.73-.21,1.25-.49,1.55-.84,.3-.35,.45-.79,.45-1.32,0-.39-.03-.91-.1-1.55-.07-.64-.19-1.47-.37-2.49l-.67-3.53,3.85-.63,.55,3.54c.13,.86,.24,1.71,.33,2.53,.09,.83,.14,1.54,.14,2.14,0,1.65-.25,3.01-.75,4.08-.5,1.07-1.35,1.92-2.57,2.55-1.22,.63-2.86,1.07-4.93,1.33-2.07,.26-4.67,.39-7.82,.39Zm-3.02-14.81c-.63,0-1.15-.19-1.55-.57-.41-.38-.61-.99-.61-1.83s.2-1.49,.61-1.87c.41-.38,.92-.57,1.55-.57h.67c.63,0,1.15,.19,1.55,.57,.41,.38,.61,1,.61,1.87s-.2,1.45-.61,1.83c-.41,.38-.92,.57-1.55,.57h-.67Zm5.85,0c-.63,0-1.15-.19-1.55-.57-.41-.38-.61-.99-.61-1.83s.2-1.49,.61-1.87c.41-.38,.92-.57,1.55-.57h.67c.63,0,1.15,.19,1.55,.57,.41,.38,.61,1,.61,1.87s-.2,1.45-.61,1.83c-.41,.38-.92,.57-1.55,.57h-.67Z"/>
        <path d="M210.11,57.92c-2.59,0-4.5-.58-5.71-1.73-1.22-1.15-1.83-3.06-1.83-5.73V28.86h4.2v21.05c0,1.13,.24,1.89,.73,2.28s1.32,.59,2.49,.59h1.22v4.08l-1.06,1.06h-.04Z"/>
        <path d="M210.15,53.84l1.06-1.06h2.32c1.36,0,2.6-.03,3.73-.08,1.12-.05,2.2-.16,3.22-.33,1.02-.17,2.05-.42,3.08-.76s2.17-.81,3.4-1.41l2.08-1.02v-.2l-6.13-1.3-6.6-1.66v3.1h-3.97v-3.02c0-3.19,1.47-4.79,4.4-4.79,.18,0,.38,0,.59,.02,.21,.01,.45,.05,.73,.1,.28,.05,.61,.12,1,.22s.86,.22,1.41,.38l8.17,2.14c1.18,.29,2.34,.52,3.48,.67,1.14,.16,2.22,.24,3.24,.24h.75v5.14h-3.1l-4.16,2.71c-1.7,1.1-3.22,1.98-4.56,2.65-1.33,.67-2.6,1.17-3.79,1.51-1.19,.34-2.34,.56-3.46,.67-1.11,.11-2.29,.16-3.51,.16h-3.38v-4.08Z"/>
        <path d="M238.11,62.2h2.4c2.64,0,4.73-.38,6.26-1.14,1.53-.76,2.57-1.81,3.12-3.14h-4.67c-2.12,0-3.77-.6-4.95-1.81-1.18-1.2-1.77-2.88-1.77-5.03,0-1.31,.2-2.53,.59-3.65,.39-1.12,.94-2.11,1.63-2.95,.69-.84,1.52-1.49,2.47-1.96,.96-.47,1.98-.71,3.08-.71,2.33,0,4.18,.96,5.54,2.89,1.36,1.92,2.08,4.61,2.16,8.07h1.92v4.08l-1.06,1.06h-1.34c-.68,3.01-2.08,5.33-4.2,6.97-2.12,1.64-4.96,2.45-8.52,2.45h-2.67v-5.14Zm3.97-11.78c0,.84,.29,1.44,.88,1.81,.59,.37,1.43,.55,2.53,.55h4.87v-.43c0-1.65-.42-2.96-1.26-3.93-.84-.97-1.92-1.45-3.26-1.45-1.1,0-2,.33-2.71,.98s-1.06,1.48-1.06,2.47Z"/>
        <path d="M254.84,53.84l1.06-1.06h1.1c1.1,0,1.9-.24,2.42-.73s.77-1.22,.77-2.22V28.86h4.2v20.97c0,1.96,.97,2.95,2.91,2.95h1.37v4.08l-1.06,1.06c-2.04,0-3.62-.39-4.73-1.18-1.11-.79-1.85-2.02-2.22-3.69h-.24c-.31,1.73-.9,2.97-1.77,3.73-.86,.76-2.13,1.14-3.81,1.14v-4.08Z"/>
        <path d="M267.61,53.84l1.06-1.06h1.57c1.05,0,1.77-.22,2.18-.67,.41-.44,.61-1.14,.61-2.08V28.86h4.16v21.17c0,2.7-.53,4.68-1.59,5.95-1.06,1.27-2.85,1.92-5.36,1.94h-2.63v-4.08Z"/>
        <path d="M282.26,28.86h4.2v29.06h-4.2V28.86Z"/>
      </g>
    </g>
  </g>
</svg>