<?xml version="1.0" encoding="UTF-8"?>
<svg id="Layer_2" data-name="Layer 2" xmlns="http://www.w3.org/2000/svg" viewBox="0 0 333.4 89.78">
  <defs>
    <style>
      .cls-1 {
        fill: #d8cb91;
      }
    </style>
  </defs>
  <g id="Layer_1-2" data-name="Layer 1">
    <g>
      <path class="cls-1" d="M333.36,44.9c-.22-1.22-2.25-2.41-3.71-3.05-2.08-.91-3.56-2.23-4.77-4.12-1.67-2.58-3.36-5.2-5.42-7.47-3.47-3.83-7.45-4.48-12.12-2.48-.41,.18-.86,.27-1.5,.46,.23-.74,.39-1.22,.53-1.69,1.77-6.06-.51-9.95-6.71-11.26-2.08-.44-4.21-.63-6.47-.96,.77-3.63,1.33-7.2-1.56-10.18-2.71-2.8-6.26-3.46-9.92-4.16-1.25,5.14-4.55,7.54-9.44,7.94-.92,.08-1.86-.04-2.79-.04-10.41,0-20.81,.02-31.22,.02-10.41,0-163.94-.02-174.34-.02-.93,0-1.87,.12-2.79,.04-4.89-.4-8.19-2.8-9.44-7.94-3.66,.69-7.21,1.36-9.92,4.16-2.89,2.99-2.33,6.56-1.56,10.18-2.26,.33-4.39,.52-6.47,.96-6.2,1.31-8.49,5.2-6.71,11.26,.14,.47,.29,.95,.53,1.69-.64-.19-1.09-.28-1.5-.46-4.67-2-8.65-1.35-12.12,2.48-2.05,2.27-3.75,4.89-5.42,7.47-1.22,1.89-2.69,3.2-4.77,4.12-1.46,.64-3.5,1.83-3.71,3.05-.36,2.03,2.01,2.65,3.65,3.27,2.2,.83,3.67,2.27,4.91,4.26,1.58,2.55,3.29,5.08,5.33,7.27,3.72,3.98,7.25,4.52,12.28,2.38,.32-.14,.65-.26,1.29-.51-.31,1.18-.58,2.11-.8,3.04-1.07,4.43,.46,7.78,4.74,9.31,2.72,.97,5.68,1.29,8.56,1.91-.81,9.33,2.44,13.31,11.69,13.95,.49-1.14,.83-2.42,1.52-3.46,2.14-3.19,5.3-4.44,9.06-4.44,10.96,0,165.04,0,176,0,10.96,0,21.92,0,32.88,0,3.76,0,6.92,1.26,9.06,4.44,.69,1.04,1.03,2.31,1.52,3.46,9.25-.65,12.5-4.63,11.69-13.95,2.88-.62,5.84-.94,8.56-1.91,4.28-1.53,5.81-4.87,4.74-9.31-.22-.93-.49-1.86-.8-3.04,.64,.26,.97,.38,1.29,.51,5.03,2.14,8.57,1.6,12.28-2.38,2.04-2.19,3.74-4.72,5.33-7.27,1.24-1.99,2.71-3.44,4.91-4.26,1.64-.62,4.01-1.24,3.65-3.27Z"/>
      <g>
        <path d="M73.93,67.35c-3.53,0-6.23-.92-8.09-2.75-1.86-1.83-2.79-4.41-2.79-7.74,0-1.18,.16-2.49,.49-3.93,.33-1.44,.78-2.85,1.36-4.24l3.38,1.02c-.5,1.1-.9,2.23-1.22,3.4-.31,1.17-.47,2.19-.47,3.08,0,1.78,.52,3.16,1.57,4.14s2.49,1.47,4.32,1.47h2.91c1.1,0,2.02-.13,2.77-.39s1.35-.68,1.81-1.26c.46-.58,.79-1.33,1-2.28,.21-.94,.31-2.09,.31-3.46V28.86h4.16v23.92h4.48v4.08l-1.06,1.06h-3.65c-.45,3.22-1.58,5.6-3.42,7.13-1.83,1.53-4.45,2.3-7.85,2.3Z"/>
        <path d="M88.85,53.84l1.06-1.06h4.63l.08-.2c-1.1-1-1.89-2.07-2.38-3.22-.49-1.15-.73-2.33-.73-3.53,0-1.12,.18-2.19,.55-3.2,.37-1.01,.88-1.88,1.55-2.63,.67-.75,1.47-1.34,2.4-1.77s1.96-.65,3.08-.65,2.15,.22,3.06,.65c.92,.43,1.71,1.02,2.38,1.77,.67,.75,1.18,1.62,1.55,2.63,.37,1.01,.55,2.08,.55,3.2,0,1.21-.24,2.38-.73,3.53-.48,1.15-1.28,2.23-2.38,3.22l.08,.2h4.75v4.08l-1.06,1.06h-.43c-1.39,0-2.74-.18-4.04-.53-1.31-.35-2.55-.95-3.73-1.79-1.18,.84-2.42,1.43-3.71,1.79s-2.64,.53-4.03,.53h-2.51v-4.08Zm6.95-19.87c-.63,0-1.15-.19-1.55-.57-.41-.38-.61-.99-.61-1.83s.2-1.49,.61-1.87c.41-.38,.92-.57,1.55-.57h.67c.63,0,1.14,.19,1.55,.57,.41,.38,.61,1,.61,1.87s-.2,1.45-.61,1.83c-.41,.38-.92,.57-1.55,.57h-.67Zm3.3,18.1c1.33-.76,2.36-1.58,3.06-2.45,.71-.88,1.06-1.89,1.06-3.04s-.37-2.11-1.12-2.81c-.75-.69-1.68-1.04-2.81-1.04h-.43c-1.13,0-2.06,.35-2.81,1.04-.75,.69-1.12,1.63-1.12,2.81s.36,2.17,1.08,3.04,1.75,1.7,3.08,2.45Zm2.55-18.1c-.63,0-1.15-.19-1.55-.57s-.61-.99-.61-1.83,.2-1.49,.61-1.87,.92-.57,1.55-.57h.67c.63,0,1.15,.19,1.55,.57,.41,.38,.61,1,.61,1.87s-.2,1.45-.61,1.83c-.41,.38-.92,.57-1.55,.57h-.67Z"/>
        <path d="M107.31,53.84l1.06-1.06h1.22c2.15,0,3.22-.98,3.22-2.95v-5.77h3.85v5.77c0,1.96,.98,2.95,2.95,2.95h1.49v4.08l-1.06,1.06c-2.02,0-3.56-.39-4.63-1.18-1.07-.79-1.79-2.02-2.16-3.69h-.2c-.34,1.73-.95,2.97-1.83,3.73-.88,.76-2.18,1.14-3.91,1.14v-4.08Zm7.07-13.39c-.63,0-1.15-.19-1.55-.57-.41-.38-.61-.99-.61-1.83s.2-1.49,.61-1.87,.92-.57,1.55-.57h.67c.63,0,1.15,.19,1.55,.57,.41,.38,.61,1,.61,1.87s-.2,1.45-.61,1.83c-.41,.38-.92,.57-1.55,.57h-.67Z"/>
        <path d="M120.03,53.84l1.06-1.06h1.57c1.05,0,1.77-.22,2.18-.67,.41-.44,.61-1.14,.61-2.08V28.86h4.16v21.17c0,2.7-.53,4.68-1.59,5.95-1.06,1.27-2.85,1.92-5.36,1.94h-2.63v-4.08Z"/>
        <path d="M134.68,28.86h4.2v29.06h-4.2V28.86Z"/>
        <path d="M167.44,58.39c-2.83,0-5.2-.15-7.13-.45-1.92-.3-3.48-.8-4.67-1.49-1.19-.69-2.05-1.6-2.57-2.73-.52-1.12-.79-2.5-.79-4.12,0-1.05,.14-2.18,.41-3.4,.27-1.22,.67-2.45,1.2-3.71l3.38,.98c-.47,.97-.84,1.89-1.1,2.75-.26,.86-.39,1.64-.39,2.32,0,.79,.16,1.45,.49,1.98,.33,.54,.86,.97,1.59,1.3,.73,.33,1.68,.57,2.85,.73,1.16,.16,2.58,.24,4.26,.24h5.5c1.75,0,3.23-.04,4.42-.14,1.19-.09,2.15-.24,2.89-.45,.73-.21,1.25-.49,1.55-.84,.3-.35,.45-.79,.45-1.32,0-.39-.03-.91-.1-1.55-.07-.64-.19-1.47-.37-2.49l-.67-3.53,3.85-.63,.55,3.54c.13,.86,.24,1.71,.33,2.53,.09,.83,.14,1.54,.14,2.14,0,1.65-.25,3.01-.75,4.08-.5,1.07-1.35,1.92-2.57,2.55-1.22,.63-2.86,1.07-4.93,1.33-2.07,.26-4.67,.39-7.82,.39Zm-3.02-14.81c-.63,0-1.15-.19-1.55-.57-.41-.38-.61-.99-.61-1.83s.2-1.49,.61-1.87c.41-.38,.92-.57,1.55-.57h.67c.63,0,1.15,.19,1.55,.57,.41,.38,.61,1,.61,1.87s-.2,1.45-.61,1.83c-.41,.38-.92,.57-1.55,.57h-.67Zm5.85,0c-.63,0-1.15-.19-1.55-.57-.41-.38-.61-.99-.61-1.83s.2-1.49,.61-1.87c.41-.38,.92-.57,1.55-.57h.67c.63,0,1.15,.19,1.55,.57,.41,.38,.61,1,.61,1.87s-.2,1.45-.61,1.83c-.41,.38-.92,.57-1.55,.57h-.67Z"/>
        <path d="M194.89,57.92c-2.59,0-4.5-.58-5.71-1.73-1.22-1.15-1.83-3.06-1.83-5.73V28.86h4.2v21.05c0,1.13,.24,1.89,.73,2.28s1.32,.59,2.49,.59h1.22v4.08l-1.06,1.06h-.04Z"/>
        <path d="M194.92,53.84l1.06-1.06h2.32c1.36,0,2.6-.03,3.73-.08,1.12-.05,2.2-.16,3.22-.33,1.02-.17,2.05-.42,3.08-.76s2.17-.81,3.4-1.41l2.08-1.02v-.2l-6.13-1.3-6.6-1.66v3.1h-3.97v-3.02c0-3.19,1.47-4.79,4.4-4.79,.18,0,.38,0,.59,.02,.21,.01,.45,.05,.73,.1,.28,.05,.61,.12,1,.22s.86,.22,1.41,.38l8.17,2.14c1.18,.29,2.34,.52,3.48,.67,1.14,.16,2.22,.24,3.24,.24h.75v5.14h-3.1l-4.16,2.71c-1.7,1.1-3.22,1.98-4.56,2.65-1.33,.67-2.6,1.17-3.79,1.51-1.19,.34-2.34,.56-3.46,.67-1.11,.11-2.29,.16-3.51,.16h-3.38v-4.08Z"/>
        <path d="M222.89,62.2h2.4c2.64,0,4.73-.38,6.26-1.14,1.53-.76,2.57-1.81,3.12-3.14h-4.67c-2.12,0-3.77-.6-4.95-1.81-1.18-1.2-1.77-2.88-1.77-5.03,0-1.31,.2-2.53,.59-3.65,.39-1.12,.94-2.11,1.63-2.95,.69-.84,1.52-1.49,2.47-1.96,.96-.47,1.98-.71,3.08-.71,2.33,0,4.18,.96,5.54,2.89,1.36,1.92,2.08,4.61,2.16,8.07h1.92v4.08l-1.06,1.06h-1.34c-.68,3.01-2.08,5.33-4.2,6.97-2.12,1.64-4.96,2.45-8.52,2.45h-2.67v-5.14Zm3.97-11.78c0,.84,.29,1.44,.88,1.81,.59,.37,1.43,.55,2.53,.55h4.87v-.43c0-1.65-.42-2.96-1.26-3.93-.84-.97-1.92-1.45-3.26-1.45-1.1,0-2,.33-2.71,.98s-1.06,1.48-1.06,2.47Z"/>
        <path d="M239.61,53.84l1.06-1.06h1.57c1.05,0,1.77-.22,2.18-.67,.41-.44,.61-1.14,.61-2.08V28.86h4.16v21.17c0,2.7-.53,4.68-1.59,5.95-1.06,1.27-2.85,1.92-5.36,1.94h-2.63v-4.08Z"/>
      </g>
    </g>
  </g>
</svg>