<?xml version="1.0" encoding="UTF-8"?>
<svg id="Layer_1" data-name="Layer 1" xmlns="http://www.w3.org/2000/svg" viewBox="0 0 66.36 67.33">
  <path d="M28.16,51.76c-3.65,.03-7.27-.16-10.74-1.48-4.82-1.84-7.31-5.34-7.47-10.47-.11-3.58,.51-7.03,2.08-10.28,.25-.52,.5-1.15,.94-1.43,.56-.35,1.46-.71,1.93-.49,.47,.22,.84,1.19,.81,1.8-.07,1.3-.57,2.58-.67,3.88-.25,3.48,1.08,5.62,4.38,6.81,1.62,.59,3.36,.94,5.07,1.14,7.65,.91,15.15,.11,22.48-2.25,.2-.06,.4-.13,.6-.2,2.55-.95,2.72-1.22,1.23-3.56-1.19-1.86-1.29-3.55-.11-5.42,.79-1.24,1.32-2.64,2.08-3.91,.64-1.07,1.74-1.15,2.45-.15,3.97,5.6,4.48,13.25,.24,18.23-1.95,2.29-4.66,3.44-7.35,4.48-5.76,2.24-11.77,3.27-17.94,3.29Z"/>
  <path d="M35.93,55.65c.4,.23,.86,.39,1.18,.7,1.33,1.28,2.63,2.57,3.91,3.91,.76,.79,.82,1.66,.03,2.52-1.14,1.24-2.24,2.51-3.4,3.74-.96,1.02-1.97,1.11-3.01,.07-1.15-1.15-2.33-2.28-3.51-3.41-.79-.76-1.03-1.68-.31-2.53,1.29-1.52,2.69-2.95,4.07-4.4,.24-.25,.61-.37,1.03-.6Z"/>
</svg>