<?xml version="1.0" encoding="UTF-8"?>
<svg id="Layer_1" data-name="Layer 1" xmlns="http://www.w3.org/2000/svg" viewBox="0 0 66.36 67.33">
  <path d="M27.92,67.33c-1.72-.17-4.1-.34-6.47-.63-2.36-.29-3.88-1.54-4.18-4.03-.2-1.61-.5-3.2-.65-4.81-.18-1.98,.44-2.51,2.41-2.34,7.51,.65,15.02,.85,22.5-.37,2.61-.43,3.23-1.26,2.24-3.66-3.49-8.44-8.99-14.91-18.11-17.59-1.14-.33-1.61-.88-1.37-2.02,.38-1.9,.72-3.8,1.16-5.69,.35-1.52,1.15-2.07,2.68-1.62,1.54,.46,3.07,1.07,4.45,1.88,8.29,4.93,13.24,12.39,15.89,21.5,1.26,4.33,1.59,8.75,1.08,13.24-.23,2.05-1.08,3.35-3.18,3.97-5.82,1.71-11.77,2.07-18.43,2.17Z"/>
</svg>