<?xml version="1.0" encoding="UTF-8"?>
<svg id="Layer_1" data-name="Layer 1" xmlns="http://www.w3.org/2000/svg" viewBox="0 0 66.36 67.33">
  <path d="M47.59,58.92c2.38-.12,4.76-.29,7.14-.31,.67,0,1.35,.46,2.02,.71-.3,.63-.41,1.46-.93,1.86-1.85,1.41-3.83,2.69-5.8,3.97-2.04,1.32-4.4,1.78-6.86,1.97-8.04,.63-15.83-.03-23.13-3.43-7.84-3.65-10.89-10.39-10.35-17.64,.51-6.85,4.42-12.15,9.51-16.92,.74-.69,1.49-1.39,2.13-2.15,1.09-1.31,1.05-2.14-.1-3.42-.67-.75-1.42-1.44-2.14-2.15-5.31-5.2-5.17-10.17-.58-16.12C23.35-.98,31.14-.73,36.76,1.21c.64,.22,1.29,1.08,1.4,1.72,.19,1.06-.64,1.8-1.76,2.12-1.8,.52-3.67,.88-5.44,1.48-2.54,.86-5.1,1.72-7.48,2.87-3.01,1.45-3.26,3.81-.65,5.81,4.66,3.56,10.07,4.81,16.06,3.53,2.26-.48,4.44-1.3,6.69-1.83,.6-.14,1.59-.03,1.95,.34,.36,.37,.15,1.18,.19,1.8,0,.08-.07,.16-.09,.25-.82,2.92-2.87,4.24-6.25,4.67-9.71,1.24-17.29,5.78-22.9,12.93-2.27,2.89-3.53,6.14-3,9.74,.47,3.19,2.55,5.5,5.41,7.29,4.35,2.73,9.33,3.89,14.48,4.42,4.05,.42,8.14,.51,12.21,.75,0-.06,.01-.12,.02-.18Z"/>
</svg>