<?xml version="1.0" encoding="UTF-8"?>
<svg id="Layer_1" data-name="Layer 1" xmlns="http://www.w3.org/2000/svg" viewBox="0 0 66.36 67.33">
  <path d="M57.05,43.19c-.55-5.69-2.39-11.06-4.85-16.21-1.26-2.64-2.84-5.1-5.29-6.86-2.72-1.95-5.4-1.57-7.16,1.26-1.05,1.68-1.86,3.57-2.46,5.46-1.2,3.77-1.43,7.64-.31,11.49,.92,3.2,3,5.15,6.37,5.57,.84,.11,1.68,.15,2.51,.29,0,0,4.78-.22,5.43-1.09,0,0,5.75,7.62-12.31,10.84-8.88,1.58-14.84,.69-18.6-.62-.01,0-.02,0-.03-.01-.08-.02-.16-.05-.24-.07-2.03-.64-3.89-1.55-5.14-3.05,0-.01-.01-.02-.01-.02-.65-.79-1.13-1.74-1.4-2.91-.33-1.5-.19-3.15-.03-4.71,.17-1.77,.63-3.5,.9-5.26,.1-.62,0-1.3-.77-1.47-.78-.17-1.11,.38-1.32,1-.41,1.23-.84,2.46-1.19,3.7-1.06,3.68-2.12,7.37-1.95,11.25,.29,6.49,3.24,11.2,9.36,13.73,3.2,1.32,6.54,1.8,10.24,1.82,7.06-.15,13.81-2.29,19.88-6.29,6.35-4.19,9.08-10.32,8.36-17.86Zm-9.85-7.91c-.85,.41-1.83,.56-2.65,.8-.89-.19-1.63-.29-2.33-.52-2.55-.85-3.39-2.65-2.46-5.19,.85-2.34,3.28-3.47,5.49-2.57,1.65,.67,2.8,1.84,3.46,3.49,.68,1.72,.17,3.19-1.5,3.98Z"/>
  <path d="M38.99,7.96c-.22,.38-.36,.83-.65,1.13-1.35,1.4-2.72,2.76-4.11,4.12-.84,.82-1.4,.83-2.25,0-1.39-1.35-2.74-2.74-4.1-4.13-.65-.66-.68-1.41-.05-2.08,1.41-1.51,2.86-2.99,4.33-4.45,.56-.56,1.28-.56,1.84-.03,1.55,1.47,3.05,2.98,4.55,4.49,.21,.21,.28,.55,.45,.93Z"/>
  <path d="M51.3,7.99c-.24,.39-.39,.79-.67,1.07-1.35,1.39-2.72,2.77-4.1,4.13-.84,.82-1.42,.83-2.25,.02-1.41-1.38-2.79-2.79-4.18-4.19-.6-.6-.67-1.3-.1-1.9,1.43-1.54,2.9-3.04,4.4-4.52,.62-.61,1.37-.59,2,.01,1.46,1.42,2.9,2.86,4.32,4.32,.25,.26,.37,.65,.59,1.06Z"/>
</svg>