<?xml version="1.0" encoding="UTF-8"?>
<svg id="Layer_1" data-name="Layer 1" xmlns="http://www.w3.org/2000/svg" viewBox="0 0 66.36 67.33">
  <path d="M56.03,50.79c0,2.83-.47,5.57-1.73,8.13-1.87,3.78-5.45,5.66-9.65,5.23-3.56-.37-6.83-1.59-9.99-3.18-5.29-2.67-4.8-1.83-8.34,1.13-1.35,1.13-2.69,2.27-4.08,3.34-1.56,1.22-3.38,1.8-5.35,1.86-1.44,.04-2.88,.05-4.32,.02-.89-.02-1.84-.09-2.15-1.14-.3-1.01,.18-1.78,.96-2.39,2.65-2.07,5.28-4.15,7.94-6.2,1.73-1.34,1.87-2.03,.54-3.73-2.08-2.67-2.51-5.63-1.68-8.84,1.02-3.94,3.18-7.3,5.41-10.62,.51-.76,1.02-1.53,1.6-2.25,1.42-1.75,1.31-3.58,.14-5.32-.89-1.31-1.92-2.57-3.08-3.65-1.69-1.56-2.23-3.23-1.2-5.35,.33-.68,.56-1.41,.87-2.1,.87-1.94,1.7-2.31,3.7-1.48,1.8,.75,3.62,1.53,5.32,2.47,9.51,5.26,16.96,12.61,22.08,22.22,2.12,3.97,2.99,7.84,3.01,11.85Zm-8.85,2.74c.03-.12,.05-.23,.08-.35,.52,0,1.04,.03,1.56,0,3.12-.18,4.35-1.72,3.63-4.74-.96-4.01-3.3-7.14-6.59-9.53-1.95-1.41-4.01-.91-4.91,1.33-1.1,2.72-1.95,5.56-2.71,8.4-.45,1.65,.15,2.64,1.8,3.13,2.35,.7,4.77,1.19,7.16,1.76Zm-11.56-11.75c.01-3.21-2.43-5.91-5.35-5.91-2.97,0-6.42,3.46-6.45,6.47-.03,2.61,3.09,5.2,6.29,5.23,2.94,.02,5.5-2.66,5.51-5.78Z"/>
</svg>