<?xml version="1.0" encoding="UTF-8"?>
<svg id="Layer_1" data-name="Layer 1" xmlns="http://www.w3.org/2000/svg" viewBox="0 0 66.36 67.33">
  <path d="M27.32,10.18c-1.62-.25-2.92-.71-4.17-.6-3.55,.32-7.08,.91-10.63,1.29-.86,.09-2.02,.07-2.54-.45-.42-.41-.32-1.74-.06-2.52C11.64,2.65,15.21-.1,20.54,0c3.74,.07,7.46,.51,11.2,.69,6.11,.29,12.22,.52,18.33,.72,3.04,.1,3.48,.94,2.78,3.98-.86,3.76-2.58,5.36-6.55,5.74-9.1,.88-17.35,4.49-24.42,10.72-3.15,2.78-5.7,6.09-7.35,10.02-3.52,8.42-1.01,15.87,6.77,20.28,5.87,3.33,12.29,4.67,18.89,4.86,5.11,.14,10.22-.21,15.34-.34,.47-.01,1.01-.16,1.41,.02,.58,.26,1.35,.66,1.49,1.17,.14,.5-.21,1.45-.65,1.8-3.75,3-7.69,5.57-12.44,6.59-6.67,1.43-13.27,1.55-19.89-.31-11.52-3.24-18.3-13.33-17.46-26.08,.62-9.41,5.02-16.79,11.46-23,2.08-2.01,4.42-3.74,6.64-5.6,.31-.26,.62-.54,1.23-1.08Z"/>
</svg>