<?xml version="1.0" encoding="UTF-8"?>
<svg id="Layer_1" data-name="Layer 1" xmlns="http://www.w3.org/2000/svg" viewBox="0 0 66.36 67.33">
  <path d="M51.9,.37c.3,.61,.65,1.19,.9,1.82,1.06,2.66,2,5.38,3.16,7.99,.51,1.14,.56,2.05-.32,2.92-1.49,1.48-1.57,3.24-1.44,5.22,.55,8.78,.84,14.57,1.49,23.34,.79,10.49-3.83,17.56-13.19,21.81-7.1,3.23-14.5,4.84-22.25,3.22-6.97-1.46-10.49-5.97-10.19-13.08,.14-3.19,.99-6.35,1.57-9.52,.11-.61,.42-1.18,.66-1.76,.36-.84,1.04-1.43,1.88-.95,.45,.26,.77,1.15,.74,1.74-.05,1.15-.42,2.29-.59,3.44-.73,4.85,.92,7.39,5.75,8.27,9.06,1.64,17.69,.22,25.77-4.21,3.35-1.84,4.95-4.53,4.61-8.62-1-11.98-1.61-20.99-2.58-32.98-.29-3.63,1.68-6,3.3-8.67,.24,0,.49,0,.73,.01Z"/>
  <path d="M26.79,34.35c-3.01-2.19-2.48-3.56-1.06-5.86,.99-1.59,2.55-2.9,4.06-4.07,1.32-1.02,2.96-.87,4.45-.14,1.17,.58,1.9,1.54,1.91,2.89,.01,1.88-1.42,2.67-3.03,1.72-1.45-.86-2.27-.75-3.5,.52,.83,1.19,2.1,1.09,3.25,.93,1.19-.17,2.33-.7,3.53-.89,.64-.1,1.68,0,1.92,.38,.31,.51,.28,1.64-.09,2.07-.96,1.1-2.06,2.3-3.36,2.85-1.99,.85-4.17,1.3-6.3,1.73-1.99,.4-2.36-.11-1.77-2.14Z"/>
</svg>