<?xml version="1.0" encoding="UTF-8"?>
<svg id="Layer_1" data-name="Layer 1" xmlns="http://www.w3.org/2000/svg" viewBox="0 0 66.36 67.33">
  <path d="M53.91,43.57c.18,11.78-6.75,20.93-17.77,23.18-6.6,1.35-12.89,.5-18.11-4.14-4.7-4.17-5.77-9.81-5.56-15.78,.17-4.75,1.48-9.26,3.36-13.6,.67-1.55,1.61-2.15,2.61-1.67,1.37,.66,1.24,1.8,.88,3.02-.54,1.86-1.08,3.73-1.52,5.61-2.08,8.9,2.39,15.57,11.46,16.59,7.78,.87,14.27-1.72,18.81-8.38,1.28-1.88,1.74-4.03,1.07-6.14-1.04-3.24-2.22-6.45-3.67-9.53-.8-1.71-1-3.14-.07-4.75,.36-.62,.55-1.37,1.02-1.87,.5-.54,1.24-1.18,1.88-1.19,.55,0,1.36,.71,1.62,1.3,2.43,5.52,3.9,11.28,3.99,17.34Z"/>
  <path d="M38.16,16.98c-.07,.4-.03,.8-.2,.99-1.6,1.66-3.16,3.39-4.94,4.84-.39,.31-1.77-.18-2.41-.68-1.15-.9-2.12-2.06-3.11-3.16-1.18-1.3-1.19-2.68-.03-3.97,.99-1.1,2.03-2.16,3.09-3.19,.98-.94,2.24-1.08,3.21-.25,1.43,1.22,2.66,2.67,3.91,4.08,.31,.35,.34,.94,.48,1.34Z"/>
</svg>