<?xml version="1.0" encoding="UTF-8"?>
<svg id="Layer_1" data-name="Layer 1" xmlns="http://www.w3.org/2000/svg" viewBox="0 0 66.36 67.33">
  <path d="M53.21,39.66c-.25,9.37-3.8,17.26-11,23.29-6.2,5.2-13.21,5.47-20.43,2.39-2.67-1.14-5.17-2.68-7.74-4.05-.82-.44-1.1-1.15-.75-2,.37-.91,1.14-1.25,2.05-.92,10.96,3.93,24.1-2.11,30.71-10.99,1.97-2.65,2.13-4.2,.3-6.95-1.07-1.62-2.36-3.12-3.69-4.54-.84-.9-1.23-1.82-.83-2.93,.82-2.27,1.66-4.54,2.66-6.73,.7-1.54,2.23-1.61,3.47-.32,3.7,3.83,5.46,8.4,5.25,13.74Z"/>
</svg>