<?xml version="1.0" encoding="UTF-8"?>
<svg id="Layer_1" data-name="Layer 1" xmlns="http://www.w3.org/2000/svg" viewBox="0 0 66.36 67.33">
  <path d="M47.13,10.52c1.08,1.73,1.75,2.91,2.53,4.01,1.39,1.97,3.86,2.56,5.13,.53,.61-.98-.27-2.71,.37-3.68,1.19-1.8,2.77-1.78,3.52,.18,1.56,4.05,2.77,8.24,2.6,12.62-.06,1.64-.64,3.31-1.27,4.85-1.16,2.81-3.34,4.27-6.46,4.14-.32-.01-.65,.06-.95,0-3.65-.8-6.53,.79-9.34,2.83-1.15,.83-1.61,1.72-1.68,3.13-.16,3.36-.34,6.75-.88,10.07-.6,3.67-2.07,7.09-4.22,10.16-4.36,6.23-10.46,8.76-17.87,7.78-6.1-.81-10.12-4.42-12.03-10.31-1.59-4.92-1.86-10.03-1.19-15.04,.69-5.09,2.09-10.1,3.31-15.11,.3-1.25,.72-2.84,2.61-2.62,1.28,.15,1.47,1.32,1.18,3.7-.61,4.91-1.07,9.84-1.56,14.77-.08,.83,0,1.69,.1,2.53,.57,4.84,2.72,7.26,7.49,8.05,5.16,.86,9.87-.25,13.86-3.8,2.81-2.5,4.27-5.64,3.46-9.34-.94-4.31-2.01-8.64-3.57-12.75-1.35-3.58-1-6.82,.44-10.1,.34-.77,1.18-1.78,1.84-1.81,.63-.03,1.43,.97,1.95,1.67,.68,.92,1.08,2.06,1.75,2.99,1.29,1.77,2.88,2.29,4.68,1.69,1.67-.55,2.32-1.65,2.46-3.97,.09-1.57-.75-3.34-.49-4.89,.11-.65,1.56-1.04,2.22-2.26Z"/>
</svg>