<?xml version="1.0" encoding="UTF-8"?>
<svg id="Layer_1" data-name="Layer 1" xmlns="http://www.w3.org/2000/svg" viewBox="0 0 66.36 67.33">
  <path d="M56.92,45.7c-1.06-6.23-6.42-10.01-12.84-9.33-3.62,.39-7.02,1.66-10.03,3.82-3.95,2.85-7.75,5.95-11.6,8.93,0-3.2,.08-6.57-.02-9.94-.22-7.71-.51-15.42-.81-23.13-.05-1.19,.08-1.13,1.12-1.84,1.05-.72,1.28-1.77,.77-3.05-1.3-3.27-2.58-6.56-3.83-9.85-.44-1.16-1.13-1.42-2.01-.68-2.09,1.75-3.51,3.75-3.21,6.96,.73,7.79,1.4,14.59,1.75,22.41,.35,7.76,.34,15.54,.37,23.31,0,2.68-1.47,4.04-3.97,3.88-1.15-.07-2.31-.2-3.46-.33h0s1.9,9.45,17.57,10.47c3.32-.11,6.65-.53,9.97-1.17,5.48-1.05,10.73-2.8,15.32-6.4,4.53-3.54,5.87-8.41,4.91-14.07Zm-7.11,7.31c-4.78,2.74-10.02,4.05-15.43,4.66-3.52,.4-7.07,.52-10.61,.76-.05-.2-.09-.39-.14-.59,4.92-4.55,9.8-9.17,16.51-11.08,2.53-.72,5.06-.76,7.44,.47,1.03,.53,2.03,1.28,2.81,2.14,1.59,1.75,1.45,2.46-.57,3.63Z"/>
</svg>