<?xml version="1.0" encoding="UTF-8"?>
<svg id="Layer_1" data-name="Layer 1" xmlns="http://www.w3.org/2000/svg" viewBox="0 0 66.36 67.33">
  <path d="M52.82,34.3c-.02,11.37-4.07,21.03-12.44,28.81-4.38,4.07-9.42,5.12-15.13,3.46-3.9-1.14-7.56-2.75-10.8-5.23-.45-.35-.63-1.06-.94-1.6,.61-.15,1.3-.55,1.83-.41,13.11,3.62,26.21-4.32,31.71-16.79,.33-.75,.6-1.54,.75-2.34,.31-1.59-.53-2.23-2.11-1.92-2.27,.44-4.58,1.01-6.87,.99-4.71-.05-8.13-3.36-8.39-8.08-.3-5.33,.72-10.48,3.37-15.18,2.41-4.29,6.1-5.87,10.33-4.56,2.92,.91,4.68,3.11,5.89,5.77,2,4.41,2.45,9.16,2.79,13.92,.07,1.05,.01,2.1,.01,3.15Zm-12.15-3.81s.01,.07,.02,.11c.89-.18,1.81-.27,2.66-.56,2.07-.71,2.79-1.93,2.18-4.02-.36-1.24-.95-2.48-1.71-3.53-1.72-2.4-4.9-2.56-6.85-.36-1.44,1.63-2.4,3.61-1.61,5.77,.79,2.16,2.89,2.42,4.89,2.58,.14,.01,.27,0,.41,0Z"/>
</svg>