<?xml version="1.0" encoding="UTF-8"?>
<svg id="Layer_1" data-name="Layer 1" xmlns="http://www.w3.org/2000/svg" viewBox="0 0 66.36 67.33">
  <path d="M7.32,47.66c.16-5.26,.78-9.61,2.55-13.72,.38-.87,.93-1.67,1.47-2.45,.15-.23,.53-.3,.81-.45,.14,.3,.42,.61,.4,.89-.11,1.3-.3,2.6-.48,3.9-.44,3-.84,6.01-.43,9.03,.78,5.79,4,9.38,9.7,10.81,4.48,1.13,8.96,.83,13.38-.31,6.39-1.63,12.01-4.64,16.52-9.53,1.41-1.53,2.65-3.18,3.12-5.27,.49-2.18-.22-3.87-2.13-5.02-1.48-.89-3.14-1.22-4.8-1.51-1.89-.33-3.81-.5-5.66-.96-4.05-1-5.58-3.59-4.75-7.69,.71-3.5,2.39-6.56,4.42-9.43,3.46-4.89,7.65-9.09,12.28-12.87,.42-.35,.92-.63,1.43-.84,.75-.3,1.32,.04,1.4,.85,.05,.46-.03,.96-.15,1.41-.39,1.48-.83,2.95-1.25,4.43-.32,1.12-1.02,1.83-2.08,2.34-2.78,1.33-5.15,3.26-7.33,5.4-1.09,1.07-2.1,2.25-3.03,3.46-1.75,2.28-.64,3.75,1.39,4.41,1.76,.57,3.63,.81,5.45,1.15,1.11,.21,2.25,.27,3.36,.49,3.86,.76,5.93,3.2,6.11,7.15,.17,3.58-.52,7.03-1.69,10.38-2.46,7.04-6.61,12.89-12.63,17.31-5.5,4.05-11.65,6.37-18.56,6.29-3.99-.04-7.74-.98-11.03-3.35-4.02-2.89-6.24-6.91-7.2-11.67-.36-1.79-.47-3.64-.59-4.65Z"/>
</svg>