<?xml version="1.0" encoding="UTF-8"?>
<svg id="Layer_1" data-name="Layer 1" xmlns="http://www.w3.org/2000/svg" viewBox="0 0 66.36 67.33">
  <path d="M1.45,49.32c0-4.47,.75-8.84,1.91-13.14,1.24-4.59,2.88-9.03,4.97-13.31,.26-.53,.56-1.03,.88-1.53,.25-.4,.61-.7,1.12-.59,.51,.1,.72,.5,.83,.96,.22,.94,.14,1.9-.08,2.81-.55,2.3-1.15,4.58-1.8,6.85-.78,2.76-1.56,5.52-1.97,8.37-.31,2.14-.32,4.28,.12,6.4,.82,4,3.17,6.23,7.23,6.8,4.58,.64,8.97-.07,13.09-2.17,.95-.48,1.82-1.16,2.65-1.83,1.32-1.08,1.59-2.47,1.15-4.1-.96-3.53-2.45-6.82-4.23-10-.59-1.05-1.21-2.08-1.84-3.1-.35-.57-.46-1.13-.3-1.79,.83-3.46,1.63-6.93,2.45-10.4,.09-.38,.21-.77,.35-1.13,.35-.91,1.11-1.04,1.72-.26,.52,.67,.99,1.37,1.49,2.05,.37,.51,.75,1.01,1.12,1.51,.11,.15,.24,.3,.37,.44,1.16,1.23,2.26,1.3,3.41,.07,.74-.79,1.37-1.7,1.99-2.6,2.72-3.93,5.62-7.71,8.96-11.13,1.45-1.49,3-2.87,4.73-4.03,3.62-2.43,7.55-1.66,10.39,.48,1.34,1.01,1.94,2.46,2.29,4.05,.53,2.42,.54,4.86,.29,7.3-.43,4.29-1.43,8.45-3.16,12.41-1.07,2.46-2.67,4.54-4.77,6.21-3.09,2.47-6.63,4.04-10.4,5.15-2.55,.75-5.16,1.19-7.81,1.41-.4,.03-.51,.19-.56,.56-.5,3.28-.95,6.57-1.95,9.75-.98,3.1-2.29,6.04-4.4,8.54-4.28,5.08-9.7,7.55-16.4,6.88-2.75-.27-5.36-1.06-7.68-2.61-2.63-1.75-4.23-4.25-5.15-7.23-.81-2.63-1.03-5.33-1.01-8.06ZM42.99,27.05c.33-.02,.53-.02,.74-.04,.31-.03,.62-.07,.93-.12,3.35-.52,6.51-1.65,9.5-3.22,.83-.43,1.63-.96,2.35-1.56,1.19-.99,1.28-2.33,.36-3.57-.45-.61-1.04-1.06-1.73-1.34-2.44-.99-4.86-.84-7.17,.36-2.63,1.36-4.61,3.47-6.18,5.96-.34,.53-.57,1.15-.74,1.76-.23,.86,.27,1.54,1.15,1.7,.29,.05,.6,.05,.78,.07Z"/>
</svg>