<?xml version="1.0" encoding="UTF-8"?>
<svg id="Layer_1" data-name="Layer 1" xmlns="http://www.w3.org/2000/svg" viewBox="0 0 66.36 67.33">
  <path d="M20.3,67.29c-.4-6.06-.76-11.9-1.17-17.74-.7-10.03-1.23-10.82-2.23-20.82-.56-5.56,.33-10.36,3.92-14.74,2.71-3.31,5.03-6.95,7.55-10.41,.57-.78,1.17-1.58,1.91-2.2,2.1-1.76,4.17-1.84,6.36-.17,2.4,1.83,4.69,3.8,7.04,5.69,1.44,1.16,2.89,2.3,4.35,3.43,1.6,1.23,1.94,1.83,1.28,3.72-2.34,6.76-1.71,6.75-8.49,6.58-3.98-.1-7.96,.15-11.95,.25-.48,.01-.98,.04-1.45,.12-2.93,.52-4.24,2.04-4.12,5.04,.19,4.49,.59,7.76,.75,12.24,.34,9.37,.67,10.69,.81,20.06,.03,2.19-.56,4.43-1.15,6.57-.38,1.4-1.26,2.68-3.4,2.38ZM36.47,10.58c.05-1.01-2.79-2.72-3.92-2.81-1.13-.09-2.19,.69-2.32,1.71-.15,1.14,.86,2.18,2.14,2.2,1.14,.02,4.05-.08,4.1-1.1Z"/>
</svg>