<?xml version="1.0" encoding="UTF-8"?>
<svg id="Layer_2" data-name="Layer 2" xmlns="http://www.w3.org/2000/svg" xmlns:xlink="http://www.w3.org/1999/xlink" viewBox="0 0 1039.2 231.79">
  <defs>
    <style>
      .cls-1 {
        fill: url(#linear-gradient);
      }
    </style>
    <linearGradient id="linear-gradient" x1="0" y1="115.89" x2="1039.2" y2="115.89" gradientUnits="userSpaceOnUse">
      <stop offset="0" stop-color="#79582d"/>
      <stop offset=".56" stop-color="#fdeba3"/>
      <stop offset="1" stop-color="#926b2e"/>
    </linearGradient>
  </defs>
  <g id="Layer_1-2" data-name="Layer 1">
    <g>
      
      <path class="cls-1" d="M935.99,195.78c2.1,24.07-6.29,34.33-30.17,36-1.26-2.95-2.13-6.24-3.93-8.91-5.52-8.23-13.67-11.46-23.37-11.47-80.27,0-160.53-.06-240.8-.06-157.57,0-315.14,.03-472.71,.03-8.09,0-16.32,.3-22.49,6.1-4.04,3.79-6.8,8.93-10.67,14.2-20.94,.02-30.86-12.15-28.1-36.46-5.43-.76-10.98-1.05-16.28-2.36-16.77-4.15-22-13.65-17.05-30.13,.3-1,.5-2.03,.91-3.73-1.82,.78-2.96,1.24-4.08,1.74-11.34,5.1-21.6,2.97-30-5.73-5.23-5.41-9.84-11.63-13.69-18.1-3.81-6.4-8.51-11.06-15.57-13.36-1.23-.4-2.46-.89-3.55-1.57-5.71-3.55-6.13-9.47,0-11.24,12.52-3.61,17.94-13.4,23.98-23.17,2.03-3.28,4.64-6.27,7.34-9.05,10.14-10.39,21.77-12.57,35.55-4.97-.91-3.4-1.65-5.8-2.18-8.24-2.7-12.35,2.77-21.75,15.04-24.93,6.21-1.61,12.69-2.23,19.61-3.39-1.74-9.05-3.44-18.49,4.09-26.33,6.85-7.14,15.97-8.68,25.29-10.67,3.43,12.37,11.23,19.27,23.69,20.46,2.93,.28,5.91,0,8.87,0,129.95,.07,259.89,.2,389.84,.21,106.22,0,212.44-.13,318.66-.19,2.41,0,4.83,.31,7.22,.11,12.62-1.04,21.12-7.23,24.35-20.49,9.44,1.8,18.6,3.52,25.6,10.73,7.47,7.7,6.01,16.92,4.03,26.28,5.83,.84,11.33,1.33,16.7,2.47,16,3.39,21.89,13.43,17.31,29.05-.36,1.23-.76,2.44-1.36,4.37,1.65-.5,2.8-.73,3.86-1.19,12.06-5.17,22.33-3.49,31.28,6.38,5.31,5.85,9.69,12.61,13.98,19.29,3.14,4.87,6.94,8.26,12.32,10.62,3.77,1.66,9.02,4.72,9.58,7.87,.93,5.25-5.18,6.84-9.41,8.43-5.67,2.13-9.48,5.87-12.67,11-4.09,6.57-8.49,13.12-13.75,18.76-9.59,10.28-18.71,11.66-31.7,6.14-.83-.35-1.68-.67-3.33-1.32,.81,3.05,1.49,5.44,2.07,7.85,2.76,11.44-1.19,20.08-12.24,24.01-7.02,2.51-14.64,3.34-22.09,4.94Z"/>
    </g>
  </g>
</svg>