<?xml version="1.0" encoding="UTF-8"?>
<svg id="Layer_2" data-name="Layer 2" xmlns="http://www.w3.org/2000/svg" viewBox="0 0 62.35 69.51">
  <g id="Layer_1-2" data-name="Layer 1">
    <g>
      <path d="M0,63.49c.57-2.02,1.13-4.05,1.7-6.07,.2-.71,.61-1.04,1.41-1.21,5.93-1.21,11.85-2.5,17.77-3.76,.35-.07,.69-.18,1.09-.28v-9.39c-6.13,1.3-12.19,2.58-18.56,3.92,.31-1.52,.52-2.91,.88-4.26,.97-3.64,1-3.62,4.65-4.39,4.01-.84,8.01-1.75,12.03-2.56,.86-.17,1.07-.51,1.07-1.34-.03-8.95,0-17.9-.04-26.86,0-.91,.25-1.59,.86-2.24,1.84-1.95,3.87-3.63,6.41-5.06V33.69c2.44-.51,4.73-.97,6.99-1.51,.21-.05,.39-.71,.4-1.08,.03-4.92,.02-9.83,.02-14.75,0-1.56,.12-3.13-.03-4.67-.15-1.52,.38-2.61,1.49-3.54,1.83-1.52,3.65-3.04,5.47-4.56,.12,.08,.24,.17,.36,.25V30.57c2.51-.52,4.83-1,7.15-1.49,3.51-.74,7.01-1.5,10.52-2.24,.23-.05,.48-.02,.71-.03v.72c-.54,1.95-1.12,3.89-1.6,5.85-.25,1-.86,1.38-1.8,1.57-4.64,.95-9.27,1.95-13.91,2.9-.75,.15-1.07,.44-1.05,1.25,.06,1.84,.01,3.67,.02,5.51,0,.29,.08,.59,.13,.96,6.15-1.31,12.17-2.6,18.2-3.89v.96c-.56,1.98-1.13,3.96-1.69,5.94-.22,.77-.66,1.13-1.49,1.3-4.37,.89-8.72,1.86-13.08,2.79-3.1,.66-6.2,1.29-9.42,1.96v-14.97c-2.52,.54-4.91,1.04-7.37,1.57,0,2.7,.06,5.29-.03,7.88-.03,.88-.25,1.85-.69,2.59-1.15,1.91-2.46,3.73-3.72,5.57-.97,1.41-2.3,2.29-3.98,2.66-3.31,.72-6.62,1.42-9.92,2.14C7.3,62.84,3.65,63.65,0,64.45c0-.32,0-.64,0-.96Z"/>
      <path d="M62.35,57.73c-.57,1.97-1.16,3.94-1.71,5.92-.21,.75-.68,1.06-1.42,1.21-7.2,1.51-14.4,3.05-21.6,4.58-.26,.06-.54,.04-.91,.06,.25-2.63,.9-5.07,1.93-7.4,.1-.23,.44-.46,.7-.52,7.51-1.62,15.01-3.21,22.52-4.8,.15-.03,.32,0,.48,0v.96Z"/>
    </g>
  </g>
</svg>