<?xml version="1.0" encoding="UTF-8"?>
<svg id="Layer_1" data-name="Layer 1" xmlns="http://www.w3.org/2000/svg" viewBox="0 0 50 81.57">
  <path d="M33.34,53.76c-.04,6.79-.56,13.54-1.79,20.22-.36,1.92-.85,3.82-1.32,5.72-.11,.44-.31,.87-.56,1.24-.56,.86-1.69,.82-2.23-.06-.4-.65-.42-1.37-.38-2.11,.14-2.54,.35-5.07,.38-7.61,.05-3.9-.25-7.8-.76-11.67-.64-4.9-1.28-9.8-2.05-14.68-.82-5.18-1.94-10.31-3.42-15.34-1.31-4.43-2.83-8.8-4.3-13.19-.32-.95-.31-1.86,0-2.78,.81-2.42,1.64-4.84,2.47-7.26,.1-.28,.23-.55,.39-.81,.49-.84,1.43-.95,2.04-.18,.52,.65,.98,1.36,1.38,2.09,1.93,3.5,3.77,7.05,5.03,10.85,1.44,4.32,2.45,8.75,3.25,13.23,.77,4.34,1.34,8.71,1.58,13.11,.17,3.07,.21,6.15,.31,9.23Z"/>
</svg>