<?xml version="1.0" encoding="UTF-8"?>
<svg id="Layer_1" data-name="Layer 1" xmlns="http://www.w3.org/2000/svg" viewBox="0 0 50 81.57">
  <path d="M32.99,67.33c-.16,4.99-.5,8.9-1.6,12.71-.2,.7-.4,1.48-1.31,1.53-.92,.05-1.2-.7-1.45-1.38-1.6-4.37-3.12-8.77-4.79-13.11-2.35-6.11-4.82-12.18-7.2-18.28-1.95-4.99-3.95-9.96-5.75-15-1.5-4.2-2.28-8.55-1.78-13.04,.85-7.68,6.21-15.37,16.09-16.44,4.93-.53,9.67,.15,14.17,2.28,.23,.11,.46,.23,.69,.36,.92,.54,1.19,1.26,.82,2.26-.19,.5-.41,1-.66,1.47-1.03,1.95-2.05,3.89-3.12,5.82-.71,1.29-1.41,1.53-2.87,1.13-2.64-.73-5.3-1.41-8.06-1.5-1.07-.04-2.16-.04-3.22,.1-2.84,.38-4.17,2.11-3.59,4.91,.5,2.42,1.15,4.83,1.93,7.17,2.57,7.65,5.26,15.26,7.85,22.9,1.11,3.3,2.23,6.61,3.05,9.99,.57,2.32,.63,4.77,.79,6.13Z"/>
</svg>