<?xml version="1.0" encoding="UTF-8"?>
<svg id="Layer_1" data-name="Layer 1" xmlns="http://www.w3.org/2000/svg" viewBox="0 0 50 81.57">
  <path d="M29.05,22.13c-1.81,3.04-4.41,4.99-7.87,5.86,.07,.34,.09,.63,.19,.9,2.3,6.54,3.89,13.26,4.75,20.13,1.22,9.75,.78,19.4-2.24,28.83-.27,.86-.62,1.7-1.01,2.52-.29,.62-.64,1.31-1.51,1.17-.76-.13-.97-.8-1.1-1.45-.12-.63-.2-1.28-.24-1.92-.23-3.49-.39-6.99-.68-10.47-.43-5.13-1.59-10.14-2.78-15.14-2.72-11.44-6.91-22.33-12.31-32.77-.18-.35-.35-.7-.51-1.05-.5-1.03-.5-2.01-.01-3.1,1.51-3.39,2.91-6.83,4.37-10.25,.24-.55,.49-1.12,.82-1.61,.41-.59,.92-.6,1.4-.07,.34,.39,.61,.84,.89,1.27,1.08,1.63,2.34,3.1,3.84,4.36,3.24,2.72,7.4,2.43,10.11-.82,.87-1.04,1.5-2.31,2.15-3.52,.49-.91,.82-1.9,1.24-2.85,.14-.31,.29-.64,.5-.9,.54-.67,1.33-.59,1.61,.23,.28,.81,.38,1.68,.54,2.52,.19,1.02,.27,2.06,.54,3.06,.56,2.12,1.93,3.48,4.14,3.75,2.16,.26,4.08-.38,5.32-2.25,.63-.95,1.01-2.09,1.4-3.18,.34-.97,.52-2,.79-3,.09-.33,.16-.7,.36-.96,.24-.32,.6-.76,.91-.77,.3,0,.72,.43,.89,.77,.29,.57,.5,1.2,.63,1.83,.86,4.46,.58,8.85-.96,13.14-1.87,5.2-6.1,7.66-11.88,6.89-.73-.1-1.45-.26-2.16-.45-.66-.18-1.31-.43-2.11-.7Z"/>
</svg>