<?xml version="1.0" encoding="UTF-8"?>
<svg id="Layer_1" data-name="Layer 1" xmlns="http://www.w3.org/2000/svg" viewBox="0 0 50 81.57">
  <path d="M28.12,70.42c3.83,0,7.3-1.09,10.63-2.73,.81-.4,1.63-.82,2.48-1.09,.42-.14,1.11-.14,1.37,.11,.27,.26,.33,.96,.2,1.37-.23,.73-.61,1.45-1.06,2.09-2.29,3.27-5.4,5.62-8.79,7.61-4.34,2.56-9.03,3.92-14.1,3.77-2.79-.08-5.5-.59-7.9-2.15-3.11-2.03-4.37-5.14-3.59-8.77,.66-3.08,2.28-5.68,4.09-8.18,2.23-3.09,4.59-6.09,6.71-9.25,1.27-1.88,2.35-3.92,3.26-6,1.28-2.93,.49-5.57-1.87-7.6-1.95-1.67-4.13-3.06-6.16-4.63-1.03-.8-2.04-1.65-2.93-2.6-1.76-1.88-2.21-4.14-1.65-6.64,.77-3.44,2.45-6.44,4.47-9.27,3.98-5.57,8.5-10.64,13.8-15,.55-.45,1.14-.88,1.76-1.21,1.08-.57,2.01-.13,2.04,1.06,.06,3.21-.51,6.23-3.16,8.45-1.95,1.63-3.99,3.18-5.86,4.91-1.12,1.04-2.11,2.27-2.94,3.56-1.42,2.2-1.23,4.19,.67,5.99,1.3,1.23,2.86,2.19,4.36,3.2,1.18,.8,2.47,1.43,3.67,2.21,4.19,2.71,5.36,5.84,4.06,10.65-.79,2.93-2.11,5.63-3.73,8.16-2.23,3.47-4.6,6.84-6.82,10.3-.84,1.31-1.59,2.72-2.13,4.18-.9,2.42-.03,4.51,2.18,5.87,2.16,1.33,4.56,1.58,6.94,1.62Z"/>
</svg>