<?xml version="1.0" encoding="UTF-8"?>
<svg id="Layer_1" data-name="Layer 1" xmlns="http://www.w3.org/2000/svg" viewBox="0 0 50 81.57">
  <path d="M21.98,67.11c-2.87-.09-5.33-.26-7.74-.94-4.33-1.23-6.9-4.1-8.03-8.38-.77-2.94-.91-5.92-.6-8.92,.95-9.15,4.01-17.62,8.55-25.57,1.42-2.49,3.09-4.82,5.25-6.73,.63-.56,1.35-1.04,2.08-1.48,1.26-.77,2.6-.77,3.96-.25,2.41,.92,4.48,2.39,6.41,4.06,3.25,2.82,5.85,6.18,7.97,9.93,1.86,3.29,3.25,6.75,4.07,10.45,.6,2.72,.72,5.47,.6,8.24-.12,2.83-.52,5.62-1.35,8.33-1.47,4.77-4.51,8-9.27,9.61-2.65,.89-5.39,1.31-8.17,1.5-1.37,.09-2.74,.12-3.73,.16Zm3.79-14.73c1.18-.12,3.54-.3,5.89-.59,1.48-.19,2.94-.56,4.28-1.29,1.85-1.01,2.74-2.77,2.32-4.83-.17-.82-.44-1.65-.82-2.4-1.89-3.73-4.56-6.84-7.7-9.57-1.72-1.5-3.56-2.84-5.72-3.64-2.46-.92-4.69-.58-6.55,1.38-.48,.5-.92,1.05-1.3,1.62-1.96,2.9-3.35,6.07-4.35,9.42-.41,1.38-.7,2.78-.66,4.24,.06,2.1,1.01,3.62,2.99,4.4,.65,.26,1.34,.46,2.03,.6,2.78,.57,5.6,.69,9.61,.67Z"/>
</svg>