<?xml version="1.0" encoding="UTF-8"?>
<svg id="Layer_1" data-name="Layer 1" xmlns="http://www.w3.org/2000/svg" viewBox="0 0 50 81.57">
  <path d="M2.23,12.58c.84-3.06,1.54-5.89,2.42-8.66,.42-1.3,1.75-1.54,2.67-.54,5.74,6.2,12.79,5.9,20.14,4.11,1.27-.31,2.49-.84,3.73-1.27,2.56-.88,4.28,0,4.98,2.61,.2,.74,.23,1.54,.22,2.31-.06,11.16,.49,22.27,2.42,33.28,1.47,8.37,3.43,16.57,8.49,23.69,.47,.67,.6,1.94,.31,2.72-1.15,3.09-2.47,6.13-3.88,9.12-.34,.72-1.27,1.62-1.91,1.61-.65-.01-1.52-.93-1.89-1.66-2.76-5.37-4.41-11.13-5.36-17.04-2.02-12.57-3.82-25.18-5.7-37.78-.06-.38-.06-.78-.08-1.16-.11-2.23-1.03-3.01-3.34-2.65-3.64,.58-7.27,.55-10.89-.12-4.08-.76-7.67-2.53-10.52-5.57-.78-.83-1.22-1.99-1.82-3.01Z"/>
</svg>