<?xml version="1.0" encoding="UTF-8"?>
<svg id="Layer_1" data-name="Layer 1" xmlns="http://www.w3.org/2000/svg" viewBox="0 0 50 81.57">
  <path d="M43.62,66.36c-.67,4.79-1.25,9.15-1.94,13.49-.1,.62-.78,1.14-1.19,1.71-.56-.48-1.41-.85-1.65-1.46-2.72-6.98-5.38-13.99-7.98-21.02-1.59-4.28-3.03-8.62-4.6-12.9-.26-.69-.89-1.25-1.35-1.87-.48,.6-1.16,1.12-1.41,1.8-4.04,11.05-8.03,22.12-12.04,33.19-.18,.49-.29,1.07-.63,1.44-.36,.39-.97,.81-1.42,.76-.43-.05-1.1-.63-1.16-1.06-.69-4.81-1.32-9.64-1.87-14.47-.07-.64,.25-1.39,.58-1.99,7.99-14.42,12.16-30,14.3-46.23,.59-4.47,1.35-8.92,2-13.39,.16-1.06,.4-2.07,1.71-2.02,1.32,.05,1.41,1.14,1.57,2.16,1.95,12.56,3.04,25.32,7.16,37.41,2.54,7.46,6.04,14.58,9.08,21.87,.39,.94,.63,1.95,.83,2.58Z"/>
</svg>