<?xml version="1.0" encoding="UTF-8"?>
<svg id="Layer_1" data-name="Layer 1" xmlns="http://www.w3.org/2000/svg" viewBox="0 0 50 81.57">
  <path d="M4.63,30.94c.6-7.72,2.91-14.19,6.9-20.07,1.92-2.83,4.02-5.49,7.16-7.12,3.23-1.67,6.63-1.23,9.3,1.24,3.2,2.96,4.63,6.84,5.34,10.95,.79,4.54,1.31,9.14,1.78,13.73,.82,8.13,1.52,16.27,3.48,24.23,1.21,4.91,3.11,9.51,5.99,13.68,.79,1.14,1.04,2.26,.47,3.55-1.36,3.06-2.66,6.16-4.11,9.18-.28,.58-1.15,1.24-1.72,1.23-.58-.01-1.35-.72-1.67-1.31-2.77-5.2-4.44-10.79-5.41-16.57-1.24-7.43-2.27-14.9-3.39-22.35-.06-.38-.09-.78-.23-1.14-.48-1.24-1.07-1.45-2.22-.76-3.16,1.92-6.59,2.93-10.28,2.73-4.71-.25-8.49-2.2-10.41-6.72-.66-1.57-.77-3.38-1-4.5Zm14.52-1.5c2.28-.08,4.37-.76,6.26-2.08,1.26-.88,1.9-2.05,1.13-3.5-.94-1.79-1.83-3.67-3.12-5.19-2.28-2.69-5.71-2.85-8.24-.38-1.32,1.29-2.22,3.02-3.2,4.62-.82,1.33-.47,2.61,.5,3.76,1.75,2.06,4.11,2.63,6.67,2.78Z"/>
</svg>