<?xml version="1.0" encoding="UTF-8"?>
<svg id="Layer_2" data-name="Layer 2" xmlns="http://www.w3.org/2000/svg" viewBox="0 0 457.62 227.79">
  <defs>
    <style>
      .cls-1 {
        fill: #d9d7e2;
      }

      .cls-2 {
        fill: #0297fe;
      }
    </style>
  </defs>
  <g id="Layer_1-2" data-name="Layer 1">
    <g>
      <g>
        <g>
          <rect class="cls-1" x="2.09" y="2.09" width="453.45" height="223.61" rx="15" ry="15"/>
          <rect class="cls-2" x="2.09" y="2.09" width="453.45" height="223.61" rx="15" ry="15"/>
          <path d="M440.54,227.79H17.09c-9.42,0-17.09-7.67-17.09-17.09V17.09C0,7.67,7.67,0,17.09,0H440.54c9.42,0,17.09,7.67,17.09,17.09V210.7c0,9.42-7.67,17.09-17.09,17.09ZM17.09,4.18c-7.12,0-12.91,5.79-12.91,12.91V210.7c0,7.12,5.79,12.91,12.91,12.91H440.54c7.12,0,12.91-5.79,12.91-12.91V17.09c0-7.12-5.79-12.91-12.91-12.91H17.09Z"/>
        </g>
        <g>
          <path d="M440.54,227.79H17.09c-9.42,0-17.09-7.67-17.09-17.09V17.09C0,7.67,7.67,0,17.09,0H440.54c9.42,0,17.09,7.67,17.09,17.09V210.7c0,9.42-7.67,17.09-17.09,17.09ZM17.09,4.18c-7.12,0-12.91,5.79-12.91,12.91V210.7c0,7.12,5.79,12.91,12.91,12.91H440.54c7.12,0,12.91-5.79,12.91-12.91V17.09c0-7.12-5.79-12.91-12.91-12.91H17.09Z"/>
          <path d="M440.54,227.79H17.09c-9.42,0-17.09-7.67-17.09-17.09V17.09C0,7.67,7.67,0,17.09,0H440.54c9.42,0,17.09,7.67,17.09,17.09V210.7c0,9.42-7.67,17.09-17.09,17.09ZM17.09,4.18c-7.12,0-12.91,5.79-12.91,12.91V210.7c0,7.12,5.79,12.91,12.91,12.91H440.54c7.12,0,12.91-5.79,12.91-12.91V17.09c0-7.12-5.79-12.91-12.91-12.91H17.09Z"/>
          <path d="M440.54,227.79H17.09c-9.42,0-17.09-7.67-17.09-17.09V17.09C0,7.67,7.67,0,17.09,0H440.54c9.42,0,17.09,7.67,17.09,17.09V210.7c0,9.42-7.67,17.09-17.09,17.09ZM17.09,4.18c-7.12,0-12.91,5.79-12.91,12.91V210.7c0,7.12,5.79,12.91,12.91,12.91H440.54c7.12,0,12.91-5.79,12.91-12.91V17.09c0-7.12-5.79-12.91-12.91-12.91H17.09Z"/>
        </g>
      </g>
      <g>
        <path d="M321.48,33.91c-.29-.22-.58-.46-.88-.67-1.61-1.09-2.42-2.59-2.41-4.54,0-.65-.08-1.3-.13-1.95-.12-.02-.24-.04-.35-.07-2.05,2.33-3.88,4.8-5.11,7.69-.35,.82-.13,1.55,.38,2.22,.64,.83,.82,1.77,.85,2.81,.13,3.58,.33,7.16,.48,10.74,.07,1.69,.12,3.37,.1,5.06,0,1.13-.29,1.39-1.41,1.44-.74,.03-1.48,.02-2.22,0-1.79-.02-3.6,.1-5.38-.1-2.61-.29-2.8-1.25-2.55-3.06,.36-2.58,.06-5.16-.47-7.7-.18-.85-.31-1.76-1.36-2.58-.19,.31-.37,.63-.57,.93-1.12,1.73-2.22,3.46-3.37,5.17-.34,.5-.22,.95-.13,1.49,.27,1.5,.47,3.01,.66,4.52,.07,.57-.14,1.01-.75,1.23-2.27,.82-4.43-.31-5.05-2.66-.11-.41-.17-.82-.22-1.24-.21-1.78-.38-3.56-.61-5.34-.06-.49-.24-.96-.45-1.72-.53,.53-.89,.82-1.16,1.18-.69,.93-1.29,1.93-2.02,2.83-1.2,1.48-1.83,3.05-1.14,4.95,.07,.19,.06,.42,.07,.63,.06,1.08-.11,1.35-1.18,1.41-1.31,.08-2.64,.07-3.96,.03-1.38-.04-1.88-.42-2.18-1.82-.39-1.85-.66-3.73-.99-5.6-.13-.74-.27-1.48-.41-2.21-.13-.02-.25-.05-.38-.08-1.18,1.53-2.34,3.08-3.54,4.59-.63,.8-.87,1.66-.7,2.65,.06,.36,.06,.74,.14,1.1,.15,.73-.18,1.1-.86,1.23-.36,.07-.73,.14-1.09,.14-7.65,0-15.3,0-22.95-.03-.6,0-1.19-.16-1.82-.26,.71-1.56,1.44-2.91,1.93-4.34,1.27-3.67-.63-7.24-4.36-8.29-3.12-.88-6.17-.47-9.15,.66-.52,.2-1.03,.59-1.37,1.03-1.48,1.93-2.32,4.17-3.2,6.53,2.94,.47,5.48,1.28,6.88,4.51-6.79,.36-13.3,.13-19.81,.19-.38-1.5-.68-2.83-1.05-4.14-.53-1.9-1.34-3.67-2.73-5.11-2.32-2.41-5.11-2.48-7.55-.21-2.51,2.33-4.09,5.21-4.89,8.51-.25,1.01-.38,2.09-.32,3.13,.12,2.24,1.26,3.88,3.34,4.77,.72,.31,1.5,.5,2.27,.67,1.06,.24,2.14,.43,3.39,.67-2.79,3.31-6.08,4.9-10.26,4.26-1.29-.2-2.55-.65-3.82-.99-.48-.13-.97-.26-1.76-.47,.28,.61,.35,.97,.57,1.21,2.34,2.56,4.98,4.71,8.26,5.97,2.45,.94,4.76,.62,6.94-.8,1.58-1.02,2.79-2.4,3.87-3.91,1.32-1.86,2.25-3.91,2.91-6.26,.59,0,1.16,0,1.73,0,4.38,0,8.76,0,13.14-.02,3.24,0,6.44-.22,9.24-2.49,1.16,2.19,3.22,2.29,5.24,2.46,.73,.06,1.48,.03,2.22,.03,7.07,0,14.14,0,21.21,0,2.13,0,4.23-.07,5.76-1.62,1.2,.49,2.23,1.15,3.34,1.3,3.59,.49,7.24,.97,10.39-1.78,1.4,1.51,3.25,1.87,5.18,2.03,2.03,.16,4.06,.28,5.22-2,1.44,1.13,2.94,1.87,4.59,1.93,3.1,.11,6.22,.1,9.32-.02,3.23-.13,4.99-2.1,5.9-5.07,.67-2.19,1.09-4.4,1.06-6.68-.05-3.69-.13-7.38-.23-11.07-.02-.82,.12-1.54,.51-2.27,.57-1.06,1.04-2.19,1.58-3.27,.32-.64,.16-1.11-.37-1.51Zm-114.14,23.79c-1.03-.53-1.33-1.23-1.08-2.35,.06-.26,.13-.51,.24-.75,.42-.88,.93-1.76,1.97-1.89,1.05-.13,1.54,.79,1.99,1.55,.7,1.18,1.08,2.48,1.21,4.01-1.65,.31-3.03,.1-4.33-.57Z"/>
        <path d="M157.06,42.97c-1.33,2.23-2.63,4.43-3.89,6.55,2.41,3.67,3.01,5.24,2.71,7-.14,.04-.29,.11-.44,.11-5.75,0-11.5,0-17.24,0-1.09,0-1.86-.53-2.15-1.54-.36-1.26-.74-2.55-.79-3.84-.14-3.21-.1-6.42-.13-9.63,0-.45,0-.89,0-1.51-1.63,.64-2.64,1.72-3.78,2.6-1.06,.81-1.84,1.75-1.54,3.14-2.43,1.36-4.72,2.55-6.91,3.91-.96,.6-1.91,1.42-2.48,2.37-1.33,2.2-2.47,4.53-3.6,6.84-.55,1.14-.37,1.53,.81,1.87,3.4,.97,6.86,1.64,10.4,1.87,.71,.05,1.2-.21,1.59-.79,.4-.6,.86-1.17,1.32-1.79,1.57,2.87,3.02,3.77,6.25,3.79,5.85,.03,11.71,.03,17.56,0,.88,0,1.79-.16,2.64-.4,1.33-.38,2.28-1.26,2.83-2.56,2.2-5.18,2.02-10.26-.62-15.23-.56-1.05-1.21-2.09-2.53-2.77Zm-32.39,11.86c1.69-1.42,3.3-2.32,5.23-3.16,.16,1.67,.31,3.14,.47,4.77-2.11-.02-3.79-.62-5.7-1.62Z"/>
        <path d="M181.02,41.03c-.6-.25-1.28-.31-1.97-.47-1.15,2.4-2.37,4.58-3.24,7.13,4.71,1.4,8.15,3.94,9.52,9.02-4.7-.29-9.22,.53-13.94-.8-.48,1.66-1,3.2-1.37,4.78-.6,2.58-.24,3.15,2.44,3.26,3.84,.16,7.69,.14,11.53,.16,.94,0,1.89-.17,2.83-.25,.98-.08,1.68-.52,2-1.5,.62-1.9,1.32-3.77,1.89-5.68,.45-1.49,.43-3.04,.02-4.53-1.44-5.25-4.66-9-9.72-11.1Z"/>
        <path d="M334.33,28.35c-.12-.08-.23-.16-.35-.24-.37,.32-.79,.6-1.1,.97-1,1.16-1.92,2.38-2.94,3.51-1.2,1.32-1.66,2.78-1.56,4.59,.29,5.36,.46,10.73,.59,16.1,.08,3.21,.02,6.42,.04,9.64,0,.38,.09,.76,.18,1.46,.6-.59,.99-.92,1.32-1.3,2.5-2.84,3.79-6.16,3.85-9.94,.08-5.32,.21-10.63,.23-15.95,.01-2.94-.16-5.88-.25-8.82Z"/>
        <path d="M156.43,67.4c-1.26,1.23-2.42,2.35-3.61,3.52-1.4-1.23-2.69-2.37-4.07-3.58-1.43,1.53-2.75,2.94-4.12,4.41,1.73,2.17,3.55,3.79,4.75,4.25,1.11-1.09,2.25-2.21,3.4-3.35,1.38,1.21,2.63,2.31,4,3.51,1.48-1.59,2.83-3.04,4.26-4.58-1.47-1.63-3.02-2.86-4.61-4.19Z"/>
        <path d="M127.93,34.18c1.3,1.2,2.56,2.36,3.88,3.57,1.53-1.52,3.03-2.89,4.37-4.69-1.57-1.43-3.03-2.75-4.57-4.15-1.3,1.25-2.48,2.4-3.67,3.55-1.44-1.21-2.71-2.28-4.08-3.43-1.42,1.53-2.73,2.94-4.16,4.49,1.58,1.49,3.01,2.85,4.51,4.26,1.28-1.24,2.44-2.37,3.72-3.6Z"/>
      </g>
    </g>
  </g>
</svg>