<?xml version="1.0" encoding="UTF-8"?>
<svg id="Layer_2" data-name="Layer 2" xmlns="http://www.w3.org/2000/svg" viewBox="0 0 666.5 135.53">
  <defs>
    <style>
      .cls-1 {
        fill: #d9d7e2;
      }

      .cls-2 {
        fill: #005028;
      }
    </style>
  </defs>
  <g id="Layer_1-2" data-name="Layer 1">
    <g>
      <g>
        <g>
          <rect class="cls-1" x="2.09" y="2.09" width="662.32" height="131.35" rx="15" ry="15"/>
          <rect class="cls-1" x="2.09" y="2.09" width="662.32" height="131.35" rx="15" ry="15"/>
          <path d="M649.41,135.53H17.09c-9.42,0-17.09-7.67-17.09-17.09V17.09C0,7.67,7.67,0,17.09,0H649.41c9.42,0,17.09,7.67,17.09,17.09V118.44c0,9.42-7.67,17.09-17.09,17.09ZM17.09,4.18c-7.12,0-12.91,5.79-12.91,12.91V118.44c0,7.12,5.79,12.91,12.91,12.91H649.41c7.12,0,12.91-5.79,12.91-12.91V17.09c0-7.12-5.79-12.91-12.91-12.91H17.09Z"/>
        </g>
        <g>
          <path d="M649.41,135.53H17.09c-9.42,0-17.09-7.67-17.09-17.09V17.09C0,7.67,7.67,0,17.09,0H649.41c9.42,0,17.09,7.67,17.09,17.09V118.44c0,9.42-7.67,17.09-17.09,17.09ZM17.09,4.18c-7.12,0-12.91,5.79-12.91,12.91V118.44c0,7.12,5.79,12.91,12.91,12.91H649.41c7.12,0,12.91-5.79,12.91-12.91V17.09c0-7.12-5.79-12.91-12.91-12.91H17.09Z"/>
          <path d="M649.41,135.53H17.09c-9.42,0-17.09-7.67-17.09-17.09V17.09C0,7.67,7.67,0,17.09,0H649.41c9.42,0,17.09,7.67,17.09,17.09V118.44c0,9.42-7.67,17.09-17.09,17.09ZM17.09,4.18c-7.12,0-12.91,5.79-12.91,12.91V118.44c0,7.12,5.79,12.91,12.91,12.91H649.41c7.12,0,12.91-5.79,12.91-12.91V17.09c0-7.12-5.79-12.91-12.91-12.91H17.09Z"/>
          <path d="M649.41,135.53H17.09c-9.42,0-17.09-7.67-17.09-17.09V17.09C0,7.67,7.67,0,17.09,0H649.41c9.42,0,17.09,7.67,17.09,17.09V118.44c0,9.42-7.67,17.09-17.09,17.09ZM17.09,4.18c-7.12,0-12.91,5.79-12.91,12.91V118.44c0,7.12,5.79,12.91,12.91,12.91H649.41c7.12,0,12.91-5.79,12.91-12.91V17.09c0-7.12-5.79-12.91-12.91-12.91H17.09Z"/>
        </g>
      </g>
      <g>
        <path d="M402.92,20.12c-.21-.16-.42-.33-.64-.48-1.17-.79-1.76-1.88-1.75-3.3,0-.47-.06-.95-.09-1.42-.09-.02-.17-.03-.26-.05-1.49,1.69-2.82,3.49-3.71,5.59-.25,.59-.1,1.13,.27,1.61,.47,.61,.59,1.29,.62,2.04,.09,2.6,.24,5.2,.35,7.8,.05,1.22,.08,2.45,.08,3.67,0,.82-.21,1.01-1.02,1.04-.54,.02-1.07,.01-1.61,0-1.3-.01-2.62,.07-3.9-.07-1.89-.21-2.03-.91-1.85-2.22,.26-1.87,.04-3.75-.34-5.59-.13-.61-.23-1.28-.99-1.87-.14,.23-.27,.45-.41,.67-.81,1.25-1.61,2.51-2.44,3.75-.24,.37-.16,.69-.09,1.08,.2,1.09,.34,2.19,.48,3.28,.05,.42-.1,.73-.54,.89-1.65,.59-3.22-.22-3.66-1.93-.08-.29-.13-.6-.16-.9-.15-1.29-.28-2.59-.44-3.88-.04-.35-.18-.7-.32-1.25-.39,.39-.65,.6-.84,.86-.5,.68-.94,1.4-1.47,2.06-.87,1.08-1.33,2.21-.83,3.59,.05,.14,.04,.3,.05,.46,.04,.78-.08,.98-.86,1.03-.95,.06-1.92,.05-2.87,.02-1-.03-1.36-.3-1.58-1.32-.29-1.34-.48-2.71-.72-4.06-.09-.54-.2-1.07-.3-1.61-.09-.02-.19-.04-.28-.05-.86,1.11-1.7,2.23-2.57,3.34-.46,.58-.64,1.2-.51,1.93,.05,.26,.05,.54,.1,.8,.11,.53-.13,.8-.63,.89-.26,.05-.53,.1-.79,.1-5.56,0-11.11,0-16.67-.02-.43,0-.87-.12-1.32-.19,.51-1.13,1.05-2.11,1.4-3.15,.92-2.67-.46-5.26-3.16-6.02-2.26-.64-4.48-.34-6.64,.48-.38,.14-.75,.43-1,.74-1.07,1.4-1.69,3.03-2.33,4.74,2.14,.34,3.98,.93,4.99,3.27-4.93,.26-9.65,.09-14.39,.14-.27-1.09-.5-2.05-.76-3.01-.39-1.38-.98-2.66-1.99-3.71-1.69-1.75-3.71-1.8-5.48-.16-1.82,1.69-2.97,3.79-3.55,6.18-.18,.73-.27,1.52-.23,2.27,.09,1.62,.91,2.82,2.43,3.47,.52,.22,1.09,.36,1.65,.49,.77,.18,1.55,.31,2.46,.49-2.02,2.4-4.42,3.56-7.45,3.09-.94-.15-1.85-.47-2.78-.72-.35-.09-.7-.19-1.28-.34,.2,.44,.26,.71,.41,.88,1.7,1.86,3.62,3.42,6,4.33,1.78,.68,3.45,.45,5.04-.58,1.15-.74,2.03-1.74,2.81-2.84,.96-1.35,1.64-2.84,2.11-4.54,.43,0,.84,0,1.26,0,3.18,0,6.36,0,9.54-.01,2.36,0,4.68-.16,6.71-1.8,.84,1.59,2.34,1.66,3.8,1.79,.53,.05,1.07,.02,1.61,.02,5.13,0,10.27,0,15.4,0,1.55,0,3.08-.05,4.18-1.18,.87,.35,1.62,.84,2.42,.95,2.61,.35,5.26,.71,7.54-1.29,1.02,1.1,2.36,1.36,3.76,1.47,1.48,.12,2.95,.21,3.79-1.46,1.05,.82,2.14,1.36,3.33,1.4,2.25,.08,4.52,.07,6.77-.02,2.34-.1,3.62-1.52,4.28-3.68,.49-1.59,.79-3.19,.77-4.85-.04-2.68-.09-5.36-.16-8.04-.02-.59,.09-1.12,.37-1.65,.42-.77,.75-1.59,1.15-2.38,.23-.46,.12-.81-.27-1.1Zm-82.88,17.28c-.75-.38-.96-.89-.79-1.71,.04-.19,.09-.37,.18-.55,.3-.64,.68-1.28,1.43-1.37,.77-.09,1.12,.58,1.45,1.13,.51,.86,.78,1.8,.88,2.91-1.2,.23-2.2,.07-3.14-.41Z"/>
        <path d="M283.52,26.7c-.96,1.62-1.91,3.21-2.82,4.75,1.75,2.66,2.19,3.8,1.97,5.09-.1,.03-.21,.08-.32,.08-4.17,0-8.35,0-12.52,0-.79,0-1.35-.39-1.56-1.11-.26-.91-.54-1.85-.58-2.79-.1-2.33-.07-4.66-.1-7,0-.32,0-.65,0-1.1-1.18,.46-1.91,1.25-2.75,1.89-.77,.59-1.33,1.27-1.12,2.28-1.77,.99-3.43,1.85-5.01,2.84-.69,.43-1.38,1.03-1.8,1.72-.97,1.6-1.8,3.29-2.62,4.97-.4,.82-.27,1.11,.59,1.36,2.47,.71,4.98,1.19,7.55,1.36,.52,.03,.87-.15,1.16-.57,.29-.44,.62-.85,.96-1.3,1.14,2.08,2.19,2.74,4.54,2.75,4.25,.02,8.5,.02,12.75,0,.64,0,1.3-.12,1.92-.29,.97-.28,1.65-.92,2.06-1.86,1.6-3.76,1.47-7.45-.45-11.06-.41-.76-.88-1.52-1.83-2.01Zm-23.52,8.61c1.23-1.03,2.4-1.69,3.8-2.29,.12,1.21,.22,2.28,.34,3.47-1.53-.01-2.75-.45-4.14-1.18Z"/>
        <path d="M300.92,25.29c-.44-.18-.93-.23-1.43-.34-.83,1.74-1.72,3.33-2.36,5.17,3.42,1.02,5.92,2.86,6.92,6.55-3.41-.21-6.69,.38-10.12-.58-.35,1.21-.72,2.32-.99,3.47-.44,1.88-.17,2.29,1.77,2.36,2.79,.11,5.58,.1,8.38,.12,.69,0,1.37-.12,2.06-.18,.71-.06,1.22-.37,1.45-1.09,.45-1.38,.96-2.74,1.37-4.12,.32-1.08,.31-2.21,.01-3.29-1.05-3.82-3.39-6.53-7.06-8.06Z"/>
        <path d="M412.25,16.08c-.08-.06-.17-.12-.25-.18-.27,.23-.57,.44-.8,.7-.72,.84-1.39,1.73-2.14,2.55-.87,.96-1.2,2.02-1.13,3.33,.21,3.89,.33,7.79,.43,11.69,.06,2.33,.02,4.66,.03,7,0,.28,.07,.55,.13,1.06,.44-.43,.72-.67,.96-.95,1.81-2.06,2.75-4.47,2.79-7.22,.06-3.86,.15-7.72,.17-11.58,0-2.14-.12-4.27-.18-6.41Z"/>
        <path d="M283.06,44.44c-.92,.89-1.75,1.71-2.62,2.56-1.02-.9-1.95-1.72-2.95-2.6-1.04,1.11-1.99,2.14-2.99,3.2,1.26,1.57,2.58,2.75,3.45,3.09,.81-.79,1.64-1.61,2.47-2.43,1,.88,1.91,1.68,2.9,2.55,1.08-1.16,2.05-2.2,3.09-3.32-1.07-1.18-2.19-2.07-3.35-3.04Z"/>
        <path d="M262.37,20.32c.95,.87,1.86,1.71,2.82,2.59,1.11-1.11,2.2-2.1,3.17-3.4-1.14-1.03-2.2-2-3.32-3.01-.94,.91-1.8,1.74-2.67,2.58-1.05-.88-1.97-1.66-2.96-2.49-1.03,1.11-1.98,2.14-3.02,3.26,1.15,1.08,2.19,2.07,3.28,3.09,.93-.9,1.77-1.72,2.7-2.62Z"/>
      </g>
      <g>
        <g>
          <path class="cls-2" d="M331.76,80.03c-.89,1.91-1.78,3.83-2.69,5.79-1.34-2.88-1.02-5.72-.07-8.59-2.28,1.69-4.02,3.85-5.84,5.94-.05,0-.09-.02-.14-.02,.06-.76,.07-1.52,.2-2.27,.32-1.96,1.34-3.57,2.59-5.06,.51-.6,1.04-1.18,1.56-1.77,.11-.12,.21-.26,.29-.43-1.96,.2-3.65,1.13-5.45,1.96,1.05-3.31,3.72-4.68,6.61-5.83-1.26-.5-2.49-.17-3.71,.07-.01-.05-.04-.08-.03-.09,1.22-1.38,2.66-2.39,4.59-2.29,.65,.03,1.3,.29,1.94,.49,.56,.18,.74,.11,.93-.45,.08-.24,.17-.49,.29-.71,.23-.39,.6-.4,.86-.03,.11,.16,.19,.35,.26,.54,.32,.87,.35,.86,1.24,.55,.55-.19,1.12-.36,1.7-.41,1.48-.12,2.68,.57,3.78,1.47,.3,.25,.58,.54,.84,.87-1.27-.19-2.51-.52-3.89-.06,.27,.13,.46,.23,.66,.31,1.26,.52,2.5,1.08,3.58,1.93,1.16,.92,2.18,2.39,2.44,3.61-1.77-.82-3.47-1.74-5.46-1.9,.12,.15,.25,.29,.37,.44,.99,1.24,2.06,2.43,2.95,3.74,1.05,1.56,1.4,3.37,1.34,5.24,0,.04-.02,.08-.04,.16-.95-1.07-1.85-2.14-2.8-3.16-.95-1.02-1.89-2.06-3.13-2.84,.98,2.87,1.25,5.71-.06,8.58-.92-1.98-1.82-3.92-2.72-5.86-.05,.01-.1,.02-.15,.03-.02,.19-.05,.38-.05,.56,0,6.21-.01,12.41,.02,18.62,0,.66-.21,1.13-.65,1.55-.21,.2-.42,.38-.7,.64-.41-.44-.82-.83-1.18-1.26-.1-.11-.11-.32-.11-.48,0-6.31,0-12.61,0-18.92,0-.21,0-.42,0-.63-.05-.01-.1-.02-.15-.03Z"/>
          <path class="cls-2" d="M328.57,108.07c1.04-1.13,2.11-2.3,3.31-3.6-.29-.23-.58-.42-.82-.66-2.35-2.32-4.72-4.6-7.48-6.44-3.2-2.14-6.72-3.34-10.58-3.51-.43-.02-.85-.05-1.29-.16,.84-.13,1.68-.3,2.53-.37,3.67-.32,7.16,.34,10.4,2.12,2.1,1.15,3.93,2.67,5.62,4.35,.92,.92,1.81,1.87,2.71,2.82,.09,.09,.15,.21,.25,.37,.64-.67,1.2-1.26,1.76-1.85,1.96-2.04,4.01-3.98,6.47-5.42,3.13-1.82,6.5-2.65,10.12-2.43,1,.06,1.98,.25,2.98,.38,.09,.01,.18,.05,.26,.07-1.21,.13-2.42,.22-3.62,.39-3.22,.46-6.12,1.75-8.77,3.62-2.71,1.9-5.06,4.21-7.39,6.54-.15,.15-.26,.28-.06,.5,1,1.07,1.98,2.15,2.97,3.22,.03,.03,.07,.04,.13,.07,.16-.18,.32-.36,.48-.53,.33-.35,.75-.52,1.23-.52,.59,0,1.22,.64,.92,1.3-.11-.02-.24-.08-.36-.06-.33,.06-.69,.09-.96,.26-.48,.31-.48,.57-.08,.98,.73,.77,1.46,1.54,2.41,2.05,1.22,.66,2.48,.54,3.32-.34,.17-.17,.31-.38,.41-.6,.14-.3,.32-.29,.54-.12,.46,.37,.56,.91,.51,1.44-.14,1.57-1.26,2.55-2.85,2.57-1.6,.02-2.9-.66-4.05-1.7-.62-.56-1.22-1.12-1.87-1.71-.04,.05-.16,.18-.29,.31-.38,.41-.82,.66-1.4,.61-.7-.06-1.07-.73-.74-1.39,.53,.21,1.03,.17,1.43-.29,.18-.2,.21-.36,0-.58-1.09-1.14-2.16-2.29-3.24-3.44-.06-.06-.13-.1-.23-.18-.8,.84-1.58,1.67-2.37,2.5-.34,.36-.67,.75-1.03,1.1-.23,.23-.19,.42,.02,.62,.3,.3,.65,.45,1.09,.35,.4-.09,.57,.09,.48,.51-.14,.66-.88,1.01-1.57,.71-.22-.1-.42-.25-.6-.4-.17-.15-.31-.33-.56-.6-.16,.2-.29,.4-.45,.58-.78,.84-1.56,1.69-2.57,2.26-1.13,.64-2.34,.94-3.63,.62-1.38-.34-2.27-1.87-1.89-3.2,.05-.19,.14-.38,.26-.53,.3-.38,.52-.35,.75,.07,.63,1.15,1.98,1.55,3.32,.99,.94-.39,1.66-1.06,2.35-1.77,.1-.1,.21-.2,.29-.31,.15-.22,.44-.59,.39-.66-.24-.29-.58-.51-.9-.73-.07-.05-.2-.01-.29-.02-.18,0-.37-.02-.55-.03,.04-.22,.03-.46,.12-.65,.25-.52,.96-.72,1.53-.39,.4,.23,.74,.57,1.14,.9Z"/>
        </g>
        <path class="cls-2" d="M333.25,121.16c-16.9,0-30.66-13.75-30.66-30.66s13.75-30.66,30.66-30.66,30.66,13.75,30.66,30.66-13.75,30.66-30.66,30.66Zm0-60.31c-16.35,0-29.66,13.3-29.66,29.66s13.3,29.66,29.66,29.66,29.66-13.3,29.66-29.66-13.3-29.66-29.66-29.66Z"/>
      </g>
    </g>
  </g>
</svg>