<?xml version="1.0" encoding="UTF-8"?>
<svg id="Layer_2" data-name="Layer 2" xmlns="http://www.w3.org/2000/svg" viewBox="0 0 666.5 135.53">
  <defs>
    <style>
      .cls-1 {
        fill: #d9d7e2;
      }
    </style>
  </defs>
  <g id="Layer_1-2" data-name="Layer 1">
    <g>
      <g>
        <g>
          <rect class="cls-1" x="2.09" y="2.09" width="662.32" height="131.35" rx="15" ry="15"/>
          <rect class="cls-1" x="2.09" y="2.09" width="662.32" height="131.35" rx="15" ry="15"/>
          <path d="M649.41,135.53H17.09c-9.42,0-17.09-7.67-17.09-17.09V17.09C0,7.67,7.67,0,17.09,0H649.41c9.42,0,17.09,7.67,17.09,17.09V118.44c0,9.42-7.67,17.09-17.09,17.09ZM17.09,4.18c-7.12,0-12.91,5.79-12.91,12.91V118.44c0,7.12,5.79,12.91,12.91,12.91H649.41c7.12,0,12.91-5.79,12.91-12.91V17.09c0-7.12-5.79-12.91-12.91-12.91H17.09Z"/>
        </g>
        <g>
          <path d="M649.41,135.53H17.09c-9.42,0-17.09-7.67-17.09-17.09V17.09C0,7.67,7.67,0,17.09,0H649.41c9.42,0,17.09,7.67,17.09,17.09V118.44c0,9.42-7.67,17.09-17.09,17.09ZM17.09,4.18c-7.12,0-12.91,5.79-12.91,12.91V118.44c0,7.12,5.79,12.91,12.91,12.91H649.41c7.12,0,12.91-5.79,12.91-12.91V17.09c0-7.12-5.79-12.91-12.91-12.91H17.09Z"/>
          <path d="M649.41,135.53H17.09c-9.42,0-17.09-7.67-17.09-17.09V17.09C0,7.67,7.67,0,17.09,0H649.41c9.42,0,17.09,7.67,17.09,17.09V118.44c0,9.42-7.67,17.09-17.09,17.09ZM17.09,4.18c-7.12,0-12.91,5.79-12.91,12.91V118.44c0,7.12,5.79,12.91,12.91,12.91H649.41c7.12,0,12.91-5.79,12.91-12.91V17.09c0-7.12-5.79-12.91-12.91-12.91H17.09Z"/>
          <path d="M649.41,135.53H17.09c-9.42,0-17.09-7.67-17.09-17.09V17.09C0,7.67,7.67,0,17.09,0H649.41c9.42,0,17.09,7.67,17.09,17.09V118.44c0,9.42-7.67,17.09-17.09,17.09ZM17.09,4.18c-7.12,0-12.91,5.79-12.91,12.91V118.44c0,7.12,5.79,12.91,12.91,12.91H649.41c7.12,0,12.91-5.79,12.91-12.91V17.09c0-7.12-5.79-12.91-12.91-12.91H17.09Z"/>
        </g>
      </g>
      <g>
        <path d="M420.94,53.93c-.26-.2-.51-.41-.78-.59-1.43-.96-2.14-2.29-2.13-4.02,0-.58-.07-1.15-.11-1.73-.1-.02-.21-.04-.31-.06-1.81,2.06-3.44,4.25-4.52,6.81-.31,.72-.12,1.37,.33,1.96,.57,.74,.72,1.57,.75,2.49,.11,3.17,.29,6.34,.43,9.51,.06,1.49,.1,2.98,.09,4.48,0,1-.26,1.23-1.24,1.27-.65,.03-1.31,.01-1.96,0-1.59-.02-3.19,.09-4.76-.09-2.31-.26-2.47-1.11-2.25-2.71,.32-2.28,.05-4.56-.42-6.81-.16-.75-.28-1.56-1.2-2.28-.17,.28-.33,.55-.51,.82-.99,1.53-1.97,3.06-2.98,4.57-.3,.45-.2,.84-.11,1.32,.24,1.33,.41,2.66,.59,4,.07,.51-.12,.89-.66,1.09-2.01,.72-3.92-.27-4.46-2.35-.09-.36-.15-.73-.2-1.1-.18-1.57-.34-3.15-.54-4.72-.05-.43-.22-.85-.4-1.52-.47,.47-.79,.73-1.03,1.04-.61,.82-1.14,1.71-1.79,2.5-1.06,1.31-1.62,2.7-1.01,4.38,.06,.17,.05,.37,.06,.55,.05,.95-.1,1.2-1.05,1.25-1.16,.07-2.33,.06-3.5,.03-1.22-.04-1.66-.37-1.92-1.61-.35-1.64-.58-3.3-.87-4.95-.11-.65-.24-1.31-.36-1.96-.11-.02-.23-.04-.34-.07-1.04,1.36-2.07,2.72-3.13,4.06-.56,.7-.77,1.47-.62,2.35,.06,.32,.06,.65,.12,.97,.14,.65-.16,.97-.76,1.08-.32,.06-.65,.12-.97,.12-6.77,0-13.54,0-20.31-.02-.53,0-1.06-.15-1.61-.23,.62-1.38,1.28-2.57,1.71-3.84,1.12-3.25-.56-6.4-3.86-7.33-2.76-.78-5.46-.41-8.09,.59-.46,.17-.91,.52-1.21,.91-1.31,1.71-2.06,3.69-2.83,5.77,2.6,.41,4.85,1.13,6.09,3.99-6.01,.32-11.76,.11-17.53,.17-.33-1.33-.6-2.5-.93-3.66-.47-1.68-1.19-3.24-2.42-4.52-2.06-2.13-4.53-2.19-6.68-.19-2.22,2.06-3.62,4.61-4.33,7.53-.22,.89-.33,1.85-.28,2.76,.11,1.98,1.11,3.43,2.96,4.22,.64,.27,1.33,.44,2.01,.6,.94,.22,1.89,.38,3,.59-2.46,2.93-5.38,4.34-9.08,3.77-1.14-.18-2.26-.58-3.38-.88-.43-.11-.85-.23-1.55-.42,.25,.54,.31,.86,.5,1.07,2.07,2.26,4.4,4.17,7.31,5.28,2.17,.83,4.21,.55,6.14-.7,1.4-.9,2.47-2.12,3.42-3.46,1.17-1.65,1.99-3.46,2.58-5.53,.52,0,1.03,0,1.53,0,3.87,0,7.75,0,11.62-.02,2.87,0,5.7-.19,8.17-2.2,1.03,1.94,2.85,2.02,4.63,2.18,.65,.06,1.31,.03,1.96,.03,6.26,0,12.51,0,18.77,0,1.89,0,3.75-.06,5.09-1.44,1.06,.43,1.98,1.02,2.95,1.15,3.18,.43,6.4,.86,9.19-1.57,1.24,1.34,2.88,1.66,4.58,1.8,1.8,.15,3.59,.25,4.62-1.77,1.27,1,2.6,1.65,4.06,1.7,2.75,.09,5.5,.09,8.25-.02,2.86-.12,4.41-1.86,5.22-4.48,.59-1.94,.96-3.89,.93-5.91-.05-3.26-.11-6.53-.2-9.79-.02-.72,.11-1.36,.45-2,.51-.94,.92-1.94,1.4-2.89,.28-.56,.14-.98-.33-1.34Zm-100.98,21.05c-.91-.47-1.17-1.09-.96-2.08,.05-.23,.12-.46,.21-.66,.37-.78,.83-1.56,1.74-1.67,.93-.11,1.37,.7,1.76,1.37,.62,1.05,.96,2.2,1.07,3.54-1.46,.28-2.68,.09-3.83-.5Z"/>
        <path d="M275.47,61.95c-1.17,1.97-2.32,3.92-3.44,5.79,2.13,3.24,2.66,4.63,2.4,6.2-.12,.03-.26,.1-.39,.1-5.09,0-10.17,0-15.26,0-.96,0-1.65-.47-1.9-1.36-.32-1.11-.65-2.26-.7-3.4-.12-2.84-.09-5.68-.12-8.52,0-.4,0-.79,0-1.33-1.44,.57-2.33,1.52-3.35,2.3-.94,.72-1.63,1.55-1.37,2.78-2.15,1.2-4.18,2.25-6.11,3.46-.85,.53-1.69,1.26-2.19,2.1-1.18,1.95-2.19,4-3.19,6.05-.49,1-.32,1.36,.72,1.66,3.01,.86,6.07,1.45,9.2,1.65,.63,.04,1.06-.18,1.41-.7,.36-.53,.76-1.03,1.17-1.58,1.39,2.54,2.67,3.33,5.53,3.35,5.18,.03,10.36,.03,15.54,0,.78,0,1.58-.14,2.34-.36,1.18-.34,2.02-1.12,2.5-2.27,1.95-4.58,1.79-9.08-.55-13.47-.5-.93-1.07-1.85-2.23-2.45Zm-28.66,10.49c1.5-1.26,2.92-2.05,4.63-2.79,.15,1.48,.27,2.78,.42,4.22-1.87-.02-3.35-.55-5.05-1.43Z"/>
        <path d="M296.68,60.22c-.53-.22-1.14-.28-1.74-.42-1.02,2.12-2.1,4.05-2.87,6.3,4.17,1.24,7.21,3.49,8.42,7.98-4.15-.26-8.15,.47-12.34-.71-.42,1.47-.88,2.83-1.21,4.23-.53,2.29-.21,2.78,2.16,2.88,3.4,.14,6.8,.13,10.2,.14,.84,0,1.67-.15,2.51-.22,.87-.07,1.48-.46,1.77-1.33,.55-1.68,1.17-3.34,1.67-5.03,.39-1.32,.38-2.69,.01-4.01-1.28-4.65-4.13-7.96-8.6-9.82Z"/>
        <path d="M432.31,49c-.1-.07-.21-.14-.31-.22-.33,.28-.7,.53-.98,.85-.88,1.02-1.7,2.11-2.6,3.11-1.06,1.17-1.47,2.46-1.38,4.06,.26,4.74,.4,9.49,.53,14.24,.07,2.84,.02,5.68,.03,8.53,0,.34,.08,.67,.16,1.3,.53-.52,.87-.82,1.17-1.15,2.21-2.52,3.35-5.45,3.4-8.8,.07-4.7,.19-9.41,.2-14.11,0-2.6-.14-5.2-.22-7.81Z"/>
        <path d="M274.91,83.56c-1.12,1.09-2.14,2.08-3.2,3.11-1.24-1.09-2.38-2.1-3.6-3.17-1.26,1.35-2.43,2.6-3.65,3.9,1.53,1.92,3.14,3.35,4.2,3.76,.98-.97,1.99-1.96,3.01-2.96,1.22,1.07,2.33,2.04,3.54,3.11,1.31-1.41,2.5-2.69,3.77-4.05-1.3-1.44-2.67-2.53-4.08-3.71Z"/>
        <path d="M249.71,54.16c1.15,1.06,2.27,2.08,3.43,3.16,1.35-1.35,2.68-2.56,3.87-4.15-1.39-1.26-2.68-2.43-4.04-3.67-1.15,1.11-2.2,2.12-3.25,3.14-1.28-1.07-2.4-2.02-3.61-3.03-1.26,1.36-2.41,2.6-3.68,3.97,1.4,1.32,2.67,2.52,3.99,3.77,1.13-1.1,2.16-2.09,3.29-3.19Z"/>
      </g>
    </g>
  </g>
</svg>