<?xml version="1.0" encoding="UTF-8"?>
<svg id="Layer_2" data-name="Layer 2" xmlns="http://www.w3.org/2000/svg" viewBox="0 0 736.26 135.53">
  <defs>
    <style>
      .cls-1 {
        fill: #d9d7e2;
      }

      .cls-2 {
        fill: #8c7b01;
      }

      .cls-3 {
        fill: #005028;
      }
    </style>
  </defs>
  <g id="Layer_1-2" data-name="Layer 1">
    <g>
      <g>
        <g>
          <rect class="cls-1" x="2.09" y="2.09" width="732.08" height="131.35" rx="15" ry="15"/>
          <rect class="cls-1" x="2.09" y="2.09" width="732.08" height="131.35" rx="15" ry="15"/>
          <path d="M719.17,135.53H17.09c-9.42,0-17.09-7.67-17.09-17.09V17.09C0,7.67,7.67,0,17.09,0H719.17c9.42,0,17.09,7.67,17.09,17.09V118.44c0,9.42-7.67,17.09-17.09,17.09ZM17.09,4.18c-7.12,0-12.91,5.79-12.91,12.91V118.44c0,7.12,5.79,12.91,12.91,12.91H719.17c7.12,0,12.91-5.79,12.91-12.91V17.09c0-7.12-5.79-12.91-12.91-12.91H17.09Z"/>
        </g>
        <g>
          <path d="M719.17,135.53H17.09c-9.42,0-17.09-7.67-17.09-17.09V17.09C0,7.67,7.67,0,17.09,0H719.17c9.42,0,17.09,7.67,17.09,17.09V118.44c0,9.42-7.67,17.09-17.09,17.09ZM17.09,4.18c-7.12,0-12.91,5.79-12.91,12.91V118.44c0,7.12,5.79,12.91,12.91,12.91H719.17c7.12,0,12.91-5.79,12.91-12.91V17.09c0-7.12-5.79-12.91-12.91-12.91H17.09Z"/>
          <path d="M719.17,135.53H17.09c-9.42,0-17.09-7.67-17.09-17.09V17.09C0,7.67,7.67,0,17.09,0H719.17c9.42,0,17.09,7.67,17.09,17.09V118.44c0,9.42-7.67,17.09-17.09,17.09ZM17.09,4.18c-7.12,0-12.91,5.79-12.91,12.91V118.44c0,7.12,5.79,12.91,12.91,12.91H719.17c7.12,0,12.91-5.79,12.91-12.91V17.09c0-7.12-5.79-12.91-12.91-12.91H17.09Z"/>
          <path d="M719.17,135.53H17.09c-9.42,0-17.09-7.67-17.09-17.09V17.09C0,7.67,7.67,0,17.09,0H719.17c9.42,0,17.09,7.67,17.09,17.09V118.44c0,9.42-7.67,17.09-17.09,17.09ZM17.09,4.18c-7.12,0-12.91,5.79-12.91,12.91V118.44c0,7.12,5.79,12.91,12.91,12.91H719.17c7.12,0,12.91-5.79,12.91-12.91V17.09c0-7.12-5.79-12.91-12.91-12.91H17.09Z"/>
        </g>
      </g>
      <g>
        <path class="cls-3" d="M363.95,64.08c-1.32,2.83-2.64,5.67-3.99,8.57-1.98-4.27-1.52-8.48-.11-12.73-3.38,2.5-5.96,5.71-8.66,8.8-.07-.01-.14-.02-.21-.04,.09-1.12,.11-2.25,.29-3.36,.48-2.9,1.98-5.3,3.84-7.5,.75-.89,1.55-1.75,2.32-2.63,.16-.19,.31-.38,.43-.64-2.9,.29-5.41,1.67-8.08,2.91,1.56-4.91,5.51-6.94,9.8-8.64-1.87-.74-3.69-.26-5.5,.11-.02-.07-.05-.12-.04-.14,1.81-2.04,3.94-3.54,6.8-3.4,.97,.05,1.93,.44,2.87,.73,.83,.26,1.1,.16,1.38-.66,.12-.36,.25-.73,.44-1.06,.34-.58,.89-.59,1.27-.04,.17,.24,.28,.52,.38,.8,.47,1.28,.52,1.28,1.84,.82,.81-.28,1.67-.54,2.52-.6,2.19-.17,3.98,.84,5.6,2.19,.45,.38,.86,.8,1.25,1.28-1.88-.28-3.72-.77-5.76-.09,.41,.19,.68,.34,.97,.46,1.86,.77,3.7,1.59,5.3,2.86,1.72,1.36,3.23,3.55,3.62,5.35-2.62-1.22-5.14-2.57-8.09-2.82,.19,.22,.38,.43,.55,.65,1.47,1.84,3.05,3.6,4.36,5.54,1.56,2.31,2.07,4.99,1.99,7.77,0,.06-.03,.11-.06,.24-1.41-1.59-2.75-3.17-4.15-4.68-1.4-1.52-2.8-3.06-4.64-4.21,1.45,4.25,1.85,8.46-.09,12.72-1.37-2.94-2.7-5.81-4.04-8.68-.08,.02-.15,.03-.23,.05-.03,.28-.07,.56-.07,.84,0,9.2-.02,18.39,.03,27.59,0,.98-.31,1.67-.97,2.29-.31,.29-.62,.57-1.04,.94-.61-.65-1.21-1.24-1.75-1.87-.14-.17-.17-.47-.17-.71,0-9.34,0-18.69,0-28.03,0-.31,0-.62,0-.93-.08-.02-.15-.03-.23-.05Z"/>
        <path class="cls-2" d="M359.22,105.63c1.54-1.68,3.13-3.41,4.9-5.34-.43-.34-.86-.62-1.22-.98-3.48-3.43-7-6.81-11.08-9.54-4.75-3.17-9.96-4.95-15.68-5.2-.63-.03-1.27-.07-1.92-.24,1.25-.19,2.49-.44,3.74-.55,5.44-.48,10.61,.51,15.42,3.14,3.12,1.71,5.83,3.95,8.33,6.45,1.37,1.36,2.69,2.78,4.02,4.17,.13,.14,.22,.32,.37,.55,.95-.99,1.77-1.87,2.6-2.74,2.9-3.03,5.94-5.9,9.59-8.03,4.63-2.7,9.64-3.93,14.99-3.6,1.48,.09,2.94,.37,4.41,.56,.14,.02,.27,.07,.39,.1-1.8,.19-3.59,.32-5.37,.58-4.78,.68-9.06,2.6-12.99,5.36-4.01,2.82-7.5,6.24-10.95,9.7-.23,.23-.39,.41-.09,.73,1.48,1.58,2.93,3.18,4.4,4.78,.04,.04,.11,.06,.19,.11,.24-.26,.47-.53,.72-.79,.49-.52,1.11-.77,1.82-.77,.88,0,1.81,.95,1.36,1.92-.17-.03-.36-.12-.53-.08-.48,.1-1.02,.14-1.42,.39-.71,.45-.71,.84-.13,1.46,1.08,1.14,2.17,2.28,3.57,3.04,1.8,.98,3.67,.8,4.92-.5,.25-.26,.45-.57,.6-.89,.21-.45,.47-.43,.79-.17,.68,.55,.82,1.35,.75,2.13-.21,2.33-1.87,3.78-4.22,3.8-2.37,.02-4.3-.98-6-2.52-.91-.83-1.81-1.66-2.77-2.53-.06,.07-.24,.26-.42,.46-.56,.61-1.21,.98-2.07,.9-1.04-.09-1.59-1.08-1.1-2.07,.79,.31,1.52,.25,2.12-.43,.27-.3,.31-.53,0-.86-1.62-1.69-3.21-3.4-4.81-5.09-.08-.09-.2-.15-.34-.26-1.18,1.24-2.35,2.47-3.51,3.71-.51,.54-.99,1.11-1.52,1.63-.34,.34-.28,.62,.02,.92,.45,.44,.97,.67,1.61,.52,.6-.13,.85,.14,.71,.75-.21,.98-1.31,1.5-2.33,1.05-.32-.14-.62-.37-.89-.59-.26-.22-.46-.49-.83-.88-.24,.3-.43,.6-.67,.86-1.15,1.25-2.31,2.5-3.81,3.35-1.68,.95-3.47,1.4-5.38,.92-2.05-.51-3.36-2.77-2.8-4.75,.08-.28,.21-.56,.39-.79,.44-.56,.77-.52,1.11,.1,.93,1.7,2.93,2.29,4.93,1.47,1.39-.57,2.46-1.57,3.48-2.62,.15-.15,.32-.29,.44-.46,.22-.33,.66-.87,.57-.98-.35-.43-.86-.75-1.33-1.08-.1-.07-.29-.02-.44-.03-.27-.01-.54-.03-.81-.04,.06-.33,.04-.68,.18-.97,.37-.77,1.42-1.07,2.27-.58,.59,.34,1.09,.85,1.69,1.33Z"/>
      </g>
      <path class="cls-2" d="M366.15,124.78c-24.92,0-45.19-20.27-45.19-45.19s20.27-45.19,45.19-45.19,45.19,20.27,45.19,45.19-20.27,45.19-45.19,45.19Zm0-89.38c-24.37,0-44.19,19.82-44.19,44.19s19.82,44.19,44.19,44.19,44.19-19.82,44.19-44.19-19.82-44.19-44.19-44.19Z"/>
      <g>
        <path d="M397.46,13.61c-.1-.07-.19-.15-.29-.22-.53-.35-.79-.84-.79-1.48,0-.21-.03-.42-.04-.64-.04,0-.08-.01-.12-.02-.67,.76-1.27,1.57-1.67,2.51-.11,.27-.04,.51,.12,.72,.21,.27,.27,.58,.28,.92,.04,1.17,.11,2.34,.16,3.51,.02,.55,.04,1.1,.03,1.65,0,.37-.1,.45-.46,.47-.24,.01-.48,0-.72,0-.59,0-1.18,.03-1.75-.03-.85-.09-.91-.41-.83-1,.12-.84,.02-1.68-.15-2.51-.06-.28-.1-.58-.44-.84-.06,.1-.12,.2-.19,.3-.36,.56-.73,1.13-1.1,1.69-.11,.16-.07,.31-.04,.49,.09,.49,.15,.98,.22,1.48,.02,.19-.05,.33-.24,.4-.74,.27-1.45-.1-1.65-.87-.03-.13-.06-.27-.07-.41-.07-.58-.13-1.16-.2-1.74-.02-.16-.08-.31-.15-.56-.17,.17-.29,.27-.38,.38-.23,.3-.42,.63-.66,.92-.39,.48-.6,1-.37,1.62,.02,.06,.02,.14,.02,.2,.02,.35-.04,.44-.39,.46-.43,.03-.86,.02-1.29,.01-.45-.01-.61-.14-.71-.59-.13-.6-.22-1.22-.32-1.83-.04-.24-.09-.48-.13-.72-.04,0-.08-.02-.12-.02-.38,.5-.76,1-1.16,1.5-.2,.26-.29,.54-.23,.87,.02,.12,.02,.24,.05,.36,.05,.24-.06,.36-.28,.4-.12,.02-.24,.05-.36,.05-2.5,0-4.99,0-7.49,0-.19,0-.39-.05-.59-.08,.23-.51,.47-.95,.63-1.42,.41-1.2-.21-2.36-1.42-2.7-1.02-.29-2.01-.15-2.99,.22-.17,.06-.34,.19-.45,.33-.48,.63-.76,1.36-1.05,2.13,.96,.15,1.79,.42,2.24,1.47-2.22,.12-4.34,.04-6.47,.06-.12-.49-.22-.92-.34-1.35-.17-.62-.44-1.2-.89-1.67-.76-.79-1.67-.81-2.46-.07-.82,.76-1.33,1.7-1.6,2.78-.08,.33-.12,.68-.1,1.02,.04,.73,.41,1.27,1.09,1.56,.24,.1,.49,.16,.74,.22,.35,.08,.7,.14,1.11,.22-.91,1.08-1.98,1.6-3.35,1.39-.42-.07-.83-.21-1.25-.32-.16-.04-.32-.08-.57-.15,.09,.2,.11,.32,.18,.39,.76,.84,1.62,1.54,2.69,1.95,.8,.31,1.55,.2,2.27-.26,.52-.33,.91-.78,1.26-1.28,.43-.61,.74-1.28,.95-2.04,.19,0,.38,0,.56,0,1.43,0,2.86,0,4.29,0,1.06,0,2.1-.07,3.02-.81,.38,.71,1.05,.75,1.71,.8,.24,.02,.48,.01,.72,.01,2.31,0,4.62,0,6.92,0,.7,0,1.38-.02,1.88-.53,.39,.16,.73,.38,1.09,.43,1.17,.16,2.36,.32,3.39-.58,.46,.49,1.06,.61,1.69,.66,.66,.05,1.32,.09,1.7-.65,.47,.37,.96,.61,1.5,.63,1.01,.03,2.03,.03,3.04,0,1.05-.04,1.63-.68,1.92-1.65,.22-.71,.36-1.44,.34-2.18-.02-1.2-.04-2.41-.07-3.61,0-.27,.04-.5,.17-.74,.19-.35,.34-.71,.52-1.07,.11-.21,.05-.36-.12-.49Zm-37.25,7.76c-.34-.17-.43-.4-.35-.77,.02-.08,.04-.17,.08-.25,.14-.29,.3-.57,.64-.62,.34-.04,.5,.26,.65,.51,.23,.39,.35,.81,.39,1.31-.54,.1-.99,.03-1.41-.18Z"/>
        <path d="M343.8,16.56c-.43,.73-.86,1.44-1.27,2.14,.79,1.2,.98,1.71,.88,2.29-.05,.01-.09,.04-.14,.04-1.88,0-3.75,0-5.63,0-.35,0-.61-.17-.7-.5-.12-.41-.24-.83-.26-1.25-.05-1.05-.03-2.1-.04-3.14,0-.15,0-.29,0-.49-.53,.21-.86,.56-1.24,.85-.35,.26-.6,.57-.5,1.02-.79,.44-1.54,.83-2.25,1.27-.31,.19-.62,.46-.81,.77-.43,.72-.81,1.48-1.18,2.23-.18,.37-.12,.5,.27,.61,1.11,.32,2.24,.54,3.39,.61,.23,.02,.39-.07,.52-.26,.13-.2,.28-.38,.43-.58,.51,.94,.98,1.23,2.04,1.24,1.91,.01,3.82,.01,5.73,0,.29,0,.58-.05,.86-.13,.44-.12,.74-.41,.92-.84,.72-1.69,.66-3.35-.2-4.97-.18-.34-.39-.68-.82-.9Zm-10.57,3.87c.55-.46,1.08-.76,1.71-1.03,.05,.54,.1,1.03,.15,1.56-.69,0-1.24-.2-1.86-.53Z"/>
        <path d="M351.62,15.93c-.2-.08-.42-.1-.64-.15-.37,.78-.77,1.49-1.06,2.33,1.54,.46,2.66,1.29,3.11,2.94-1.53-.1-3.01,.17-4.55-.26-.16,.54-.33,1.04-.45,1.56-.2,.84-.08,1.03,.8,1.06,1.25,.05,2.51,.05,3.76,.05,.31,0,.62-.06,.92-.08,.32-.03,.55-.17,.65-.49,.2-.62,.43-1.23,.62-1.85,.15-.49,.14-.99,0-1.48-.47-1.71-1.52-2.94-3.17-3.62Z"/>
        <path d="M401.66,11.79s-.08-.05-.11-.08c-.12,.1-.26,.2-.36,.32-.33,.38-.63,.78-.96,1.15-.39,.43-.54,.91-.51,1.5,.09,1.75,.15,3.5,.19,5.25,.03,1.05,0,2.1,.01,3.14,0,.12,.03,.25,.06,.48,.2-.19,.32-.3,.43-.43,.82-.93,1.24-2.01,1.26-3.25,.03-1.73,.07-3.47,.07-5.2,0-.96-.05-1.92-.08-2.88Z"/>
        <path d="M343.6,24.54c-.41,.4-.79,.77-1.18,1.15-.46-.4-.88-.77-1.33-1.17-.47,.5-.9,.96-1.34,1.44,.57,.71,1.16,1.24,1.55,1.39,.36-.36,.73-.72,1.11-1.09,.45,.4,.86,.75,1.3,1.15,.48-.52,.92-.99,1.39-1.49-.48-.53-.98-.93-1.51-1.37Z"/>
        <path d="M334.3,13.69c.42,.39,.84,.77,1.27,1.16,.5-.5,.99-.94,1.43-1.53-.51-.47-.99-.9-1.49-1.35-.42,.41-.81,.78-1.2,1.16-.47-.4-.89-.74-1.33-1.12-.46,.5-.89,.96-1.36,1.47,.52,.49,.98,.93,1.47,1.39,.42-.41,.8-.77,1.21-1.18Z"/>
      </g>
    </g>
  </g>
</svg>