<?xml version="1.0" encoding="UTF-8"?>
<svg id="Layer_2" data-name="Layer 2" xmlns="http://www.w3.org/2000/svg" viewBox="0 0 704.24 179.51">
  <defs>
    <style>
      .cls-1 {
        fill: #d9d7e2;
      }
    </style>
  </defs>
  <g id="Layer_1-2" data-name="Layer 1">
    <g>
      <g>
        <g>
          <rect class="cls-1" x="2.09" y="2.09" width="700.07" height="175.34" rx="15" ry="15"/>
          <rect class="cls-1" x="2.09" y="2.09" width="700.07" height="175.34" rx="15" ry="15"/>
          <path d="M687.15,179.51H17.09c-9.42,0-17.09-7.67-17.09-17.09V17.09C0,7.67,7.67,0,17.09,0H687.15c9.42,0,17.09,7.67,17.09,17.09V162.43c0,9.42-7.67,17.09-17.09,17.09ZM17.09,4.18c-7.12,0-12.91,5.79-12.91,12.91V162.43c0,7.12,5.79,12.91,12.91,12.91H687.15c7.12,0,12.91-5.79,12.91-12.91V17.09c0-7.12-5.79-12.91-12.91-12.91H17.09Z"/>
        </g>
        <rect class="cls-1" x="296.14" y="2.09" width="111.96" height="175.34"/>
        <rect x="406.01" y="2.09" width="4.18" height="175.34"/>
        <rect x="294.05" y="2.09" width="4.18" height="175.34"/>
        <g>
          <path d="M687.15,179.51H17.09c-9.42,0-17.09-7.67-17.09-17.09V17.09C0,7.67,7.67,0,17.09,0H687.15c9.42,0,17.09,7.67,17.09,17.09V162.43c0,9.42-7.67,17.09-17.09,17.09ZM17.09,4.18c-7.12,0-12.91,5.79-12.91,12.91V162.43c0,7.12,5.79,12.91,12.91,12.91H687.15c7.12,0,12.91-5.79,12.91-12.91V17.09c0-7.12-5.79-12.91-12.91-12.91H17.09Z"/>
          <path d="M687.15,179.51H17.09c-9.42,0-17.09-7.67-17.09-17.09V17.09C0,7.67,7.67,0,17.09,0H687.15c9.42,0,17.09,7.67,17.09,17.09V162.43c0,9.42-7.67,17.09-17.09,17.09ZM17.09,4.18c-7.12,0-12.91,5.79-12.91,12.91V162.43c0,7.12,5.79,12.91,12.91,12.91H687.15c7.12,0,12.91-5.79,12.91-12.91V17.09c0-7.12-5.79-12.91-12.91-12.91H17.09Z"/>
          <path d="M687.15,179.51H17.09c-9.42,0-17.09-7.67-17.09-17.09V17.09C0,7.67,7.67,0,17.09,0H687.15c9.42,0,17.09,7.67,17.09,17.09V162.43c0,9.42-7.67,17.09-17.09,17.09ZM17.09,4.18c-7.12,0-12.91,5.79-12.91,12.91V162.43c0,7.12,5.79,12.91,12.91,12.91H687.15c7.12,0,12.91-5.79,12.91-12.91V17.09c0-7.12-5.79-12.91-12.91-12.91H17.09Z"/>
        </g>
        <g>
          <path d="M294.06,9.04V61.75c1.39,.02,2.78,.04,4.17,.05V9.04c0-2.69,2.18-4.87,4.87-4.87h-13.91c2.69,0,4.87,2.18,4.87,4.87Z"/>
          <path d="M298.23,170.47v-39.97c-1.39-.01-2.78-.02-4.17-.03v39.99c0,2.69-2.18,4.87-4.87,4.87h13.91c-2.69,0-4.87-2.18-4.87-4.87Z"/>
          <path d="M406.02,9.04V60.03c1.39,0,2.78,0,4.17,0V9.04c0-2.69,2.18-4.87,4.87-4.87h-13.91c2.69,0,4.87,2.18,4.87,4.87Z"/>
          <path d="M410.19,170.47v-41.85c-1.39,0-2.78,0-4.17,0v41.84c0,2.69-2.18,4.87-4.87,4.87h13.91c-2.69,0-4.87-2.18-4.87-4.87Z"/>
        </g>
      </g>
      <g>
        <g>
          <path d="M330.64,153.32v-14.41h2.91v6.4l5.88-6.4h3.91l-5.43,5.61,5.72,8.8h-3.77l-3.96-6.76-2.36,2.41v4.36h-2.91Z"/>
          <path d="M346.42,148.63l2.83-.28c.17,.95,.52,1.65,1.04,2.09,.52,.45,1.22,.67,2.11,.67,.94,0,1.64-.2,2.12-.59,.48-.4,.71-.86,.71-1.39,0-.34-.1-.63-.3-.87s-.55-.45-1.05-.62c-.34-.12-1.12-.33-2.33-.63-1.56-.39-2.65-.86-3.28-1.43-.88-.79-1.33-1.76-1.33-2.9,0-.73,.21-1.42,.62-2.06,.42-.64,1.02-1.13,1.8-1.46,.78-.33,1.73-.5,2.84-.5,1.81,0,3.17,.4,4.09,1.19,.91,.79,1.39,1.85,1.44,3.18l-2.91,.13c-.12-.74-.39-1.27-.8-1.6-.41-.32-1.02-.49-1.84-.49s-1.51,.17-1.99,.52c-.31,.22-.46,.52-.46,.89,0,.34,.14,.63,.43,.88,.37,.31,1.26,.63,2.67,.96s2.46,.68,3.14,1.04c.68,.36,1.21,.85,1.59,1.47,.38,.62,.57,1.38,.57,2.3,0,.83-.23,1.6-.69,2.32s-1.11,1.26-1.95,1.61c-.84,.35-1.88,.53-3.14,.53-1.82,0-3.22-.42-4.2-1.26-.98-.84-1.56-2.07-1.75-3.68Z"/>
          <path d="M375.6,153.32h-3.17l-1.26-3.27h-5.76l-1.19,3.27h-3.09l5.61-14.41h3.08l5.77,14.41Zm-5.36-5.7l-1.99-5.35-1.95,5.35h3.93Z"/>
        </g>
        <g>
          <path d="M378.59,112.15c-.09-.09-.18-.18-.27-.26-.5-.42-.75-1.01-.74-1.77,0-.25-.03-.51-.04-.76-.04,0-.07-.02-.11-.03-.63,.91-1.2,1.87-1.57,3-.11,.32-.04,.61,.12,.87,.2,.33,.25,.69,.26,1.1,.04,1.4,.1,2.79,.15,4.19,.02,.66,.04,1.31,.03,1.97,0,.44-.09,.54-.43,.56-.23,.01-.46,0-.68,0-.55,0-1.11,.04-1.66-.04-.8-.11-.86-.49-.78-1.19,.11-1.01,.02-2.01-.15-3-.05-.33-.1-.69-.42-1-.06,.12-.12,.24-.18,.36-.34,.67-.69,1.35-1.04,2.01-.1,.2-.07,.37-.04,.58,.08,.58,.14,1.17,.2,1.76,.02,.22-.04,.39-.23,.48-.7,.32-1.37-.12-1.56-1.04-.03-.16-.05-.32-.07-.48-.06-.69-.12-1.39-.19-2.08-.02-.19-.08-.37-.14-.67-.16,.21-.28,.32-.36,.46-.21,.36-.4,.75-.62,1.1-.37,.58-.56,1.19-.35,1.93,.02,.08,.02,.16,.02,.24,.02,.42-.03,.53-.37,.55-.41,.03-.81,.03-1.22,.01-.42-.02-.58-.16-.67-.71-.12-.72-.2-1.45-.3-2.18-.04-.29-.08-.58-.13-.86-.04,0-.08-.02-.12-.03-.36,.6-.72,1.2-1.09,1.79-.19,.31-.27,.65-.22,1.03,.02,.14,.02,.29,.04,.43,.05,.28-.06,.43-.27,.48-.11,.03-.22,.05-.34,.05-2.36,0-.62,0-2.98-.01-.18,0-.37-.06-.56-.1,.22-.61,.44-1.13,.6-1.69,.39-1.43-.19-2.82-1.34-3.23-.96-.34-1.9-.18-2.82,.26-.16,.08-.32,.23-.42,.4-.46,.75-.72,1.62-.99,2.54,.91,.18,1.69,.5,2.12,1.76-2.09,.14-2.05,.05-4.06,.08-.12-.58-.21-1.1-.32-1.61-.16-.74-.41-1.43-.84-1.99-.72-.94-1.58-.97-2.33-.08-.77,.91-1.26,2.03-1.51,3.32-.08,.39-.12,.81-.1,1.22,.04,.87,.39,1.51,1.03,1.86,.22,.12,.46,.19,.7,.26,.33,.1,.66,.17,1.04,.26-.86,1.29-1.87,1.91-3.16,1.66-.4-.08-.79-.25-1.18-.39-.15-.05-.3-.1-.54-.18,.09,.24,.11,.38,.17,.47,.72,1,1.53,1.84,2.55,2.33,.75,.37,1.47,.24,2.14-.31,.49-.4,.86-.93,1.19-1.53,.41-.73,.69-1.53,.9-2.44,.18,0,.36,0,.53,0,1.35,0,.65,0,2,0,1,0,1.99-.08,2.85-.97,.36,.85,.99,.89,1.61,.96,.23,.02,.46,.01,.68,.01,2.18,0,.26,0,2.44,0,.66,0,1.31-.03,1.77-.63,.37,.19,.69,.45,1.03,.51,1.11,.19,2.23,.38,3.2-.69,.43,.59,1,.73,1.6,.79,.63,.06,1.25,.11,1.61-.78,.44,.44,.91,.73,1.41,.75,.96,.04,1.92,.04,2.87,0,1-.05,1.54-.82,1.82-1.98,.21-.85,.34-1.71,.33-2.61-.02-1.44-.04-2.88-.07-4.31,0-.32,.04-.6,.16-.88,.18-.42,.32-.85,.49-1.27,.1-.25,.05-.43-.11-.59Zm-29.03,9.27c-.32-.21-.41-.48-.33-.92,.02-.1,.04-.2,.07-.29,.13-.34,.29-.69,.61-.74,.33-.05,.48,.31,.61,.61,.22,.46,.33,.97,.37,1.56-.51,.12-.93,.04-1.33-.22Z"/>
          <path d="M334.06,115.68c-.41,.87-.81,1.72-1.2,2.55,.74,1.43,.93,2.04,.83,2.73-.04,.01-.09,.04-.14,.04-1.77,0-1.49,0-3.27,0-.33,0-.57-.21-.66-.6-.11-.49-.23-.99-.24-1.5-.04-1.25-.03-2.5-.04-3.76,0-.17,0-.35,0-.59-.5,.25-.81,.67-1.17,1.01-.33,.32-.57,.68-.48,1.22-.75,.53-1.46,.99-2.13,1.52-.29,.23-.59,.55-.76,.92-.41,.86-.76,1.76-1.11,2.67-.17,.44-.11,.6,.25,.73,1.05,.38,2.12,.64,3.21,.73,.22,.02,.37-.08,.49-.31,.12-.23,.26-.46,.41-.7,.48,1.12,.93,1.47,1.93,1.48,1.8,.01,1.56,.01,3.36,0,.27,0,.55-.06,.81-.16,.41-.15,.7-.49,.87-1,.68-2.02,.62-4-.19-5.93-.17-.41-.37-.81-.78-1.08Zm-7.93,4.62c.52-.55,1.02-.9,1.61-1.23,.05,.65,.1,1.23,.14,1.86-.65,0-1.17-.24-1.76-.63Z"/>
          <path d="M341.44,114.92c-.19-.1-.4-.12-.61-.18-.35,.93-.73,1.79-1,2.78,1.45,.55,2.51,1.54,2.94,3.52-1.45-.11-2.84,.21-4.3-.31-.15,.65-.31,1.25-.42,1.86-.19,1.01-.07,1.23,.75,1.27,1.18,.06,2.37,.06,3.56,.06,.29,0,.58-.07,.87-.1,.3-.03,.52-.2,.62-.58,.19-.74,.41-1.47,.58-2.21,.14-.58,.13-1.18,0-1.77-.44-2.05-1.44-3.51-2.99-4.33Z"/>
          <path d="M382.55,109.98s-.07-.06-.11-.1c-.11,.12-.24,.23-.34,.38-.31,.45-.59,.93-.91,1.37-.37,.52-.51,1.08-.48,1.79,.09,2.09,.14,4.18,.18,6.27,.03,1.25,0,2.5,.01,3.76,0,.15,.03,.3,.06,.57,.19-.23,.3-.36,.41-.51,.77-1.11,1.17-2.4,1.19-3.88,.03-2.07,.06-4.14,.07-6.22,0-1.15-.05-2.29-.08-3.44Z"/>
          <path d="M333.86,125.2c-.39,.48-.74,.92-1.11,1.37-.43-.48-.83-.92-1.25-1.4-.44,.59-.85,1.15-1.27,1.72,.53,.85,1.09,1.48,1.46,1.66,.34-.43,.69-.86,1.05-1.3,.43,.47,.81,.9,1.23,1.37,.46-.62,.87-1.18,1.31-1.78-.45-.64-.93-1.11-1.42-1.63Z"/>
          <path d="M327.13,112.25c.4,.47,.79,.92,1.2,1.39,.47-.59,.93-1.13,1.35-1.83-.48-.56-.93-1.07-1.41-1.62-.4,.49-.77,.94-1.13,1.38-.44-.47-.84-.89-1.26-1.34-.44,.6-.84,1.15-1.28,1.75,.49,.58,.93,1.11,1.39,1.66,.39-.48,.75-.92,1.15-1.4Z"/>
        </g>
        <g>
          <path d="M359.09,26.35c1.44-.36,2.89-.59,4.37-.45,3.26,.29,5.89,1.65,7.54,4.6,.37,.66,.59,1.37,.61,2.21-3.17-2.67-6.68-4.31-10.83-4.23l-.04,.1c.15,.04,.3,.09,.46,.13,2.54,.74,4.6,2.14,6.03,4.38,.85,1.33,1.24,2.8,1.07,4.4-.01,.14-.05,.28-.1,.53-.91-1.75-2-3.24-3.41-4.49-1.39-1.23-2.9-2.28-4.65-2.82,.71,.74,1.5,1.47,2.17,2.29,1.45,1.74,2.33,3.73,2.29,6.05-.01,.72-.16,1.42-.46,2.12-1.61-3.7-3.6-7.07-6.97-9.41,.25,.34,.51,.68,.74,1.03,.98,1.45,1.79,2.97,2.12,4.71,.31,1.65,.23,3.27-.48,4.82-.03,.06-.05,.12-.08,.18-.01,.02-.03,.04-.05,.06-1.13-3.7-2.26-7.39-4.53-10.58-.04,.02-.09,.03-.13,.05,.24,1.36,.48,2.71,.73,4.07,.16,.86,.33,1.72,.49,2.57,.1,.55-.04,.71-.61,.71-.47,0-.93,0-1.51,0,.1,.23,.13,.45,.26,.54,.35,.25,.57,.52,.45,.96,.71,.16,.72,.16,.59,.84-.16,.88-.33,1.76-.49,2.64,.74,.17,.73,.17,.58,.93-.18,.89-.33,1.79-.5,2.68,.73,.17,.73,.16,.59,.91-.17,.91-.33,1.82-.49,2.72,.03,.03,.04,.06,.06,.06q.69,.08,.57,.76c-.18,1.01-.36,2.02-.53,3.03,.05,.03,.07,.05,.09,.05,.69,.07,.7,.08,.59,.76-.14,.89-.29,1.77-.44,2.66-.02,.13-.03,.25-.05,.4,.08,.02,.14,.05,.2,.05,.8-.03,.66,.18,.59,.69-.14,1.05-.3,2.09-.44,3.14-.03,.19-.05,.38-.08,.64h8.45c-.78,.71-1.58,1.33-2.26,2.07-.67,.73-1.23,1.57-1.88,2.42-.34-.65-.65-1.26-.99-1.91-.59,.58-1.14,1.11-1.69,1.65-.34,.33-.46,.32-.73-.06-.3-.43-.59-.86-.91-1.34-.54,.48-1.06,.93-1.57,1.39-.4,.35-.49,.34-.79-.09-.3-.43-.6-.85-.93-1.33-.45,.37-.88,.72-1.3,1.08-.91,.77-.78,.88-1.5-.23-.2-.31-.42-.62-.67-1-.43,.37-.82,.7-1.21,1.03-.45,.39-.58,.38-.92-.11-.9-1.29-1.93-2.47-3.26-3.34-.05-.03-.09-.08-.24-.21h8.64c-.12-.93-.23-1.77-.35-2.62-.06-.45-.14-.9-.2-1.35-.06-.45-.02-.49,.43-.51,.1,0,.2-.02,.37-.03-.09-.58-.18-1.14-.27-1.7-.09-.51-.18-1.03-.27-1.54-.09-.5-.03-.56,.48-.6,.05,0,.1,0,.16-.01,.02,0,.05-.02,.08-.04-.17-1.01-.35-2.02-.52-3.03-.12-.7-.12-.7,.65-.79-.09-.53-.18-1.06-.28-1.59-.09-.49-.19-.97-.27-1.46-.08-.47-.03-.53,.46-.56,.05,0,.1-.01,.21-.03-.13-.69-.25-1.36-.38-2.03-.06-.32-.12-.64-.18-.96-.1-.48-.05-.55,.43-.58,.06,0,.13-.02,.23-.04-.17-.89-.34-1.77-.5-2.65-.13-.66-.08-.73,.58-.85-.1-.45,.08-.75,.49-.97,.13-.07,.18-.29,.33-.55-.63,0-1.12,0-1.61,0-.64,0-.74-.12-.63-.74,.39-2.14,.77-4.28,1.15-6.42,.01-.06,.02-.13,.04-.32-.22,.26-.39,.43-.52,.62-.96,1.3-1.63,2.76-2.21,4.26-.73,1.89-1.4,3.81-2.09,5.72-.11-.27-.26-.58-.36-.91-.6-1.9-.4-3.76,.29-5.59,.59-1.58,1.44-3,2.54-4.31-.82,.2-2.94,2.29-4.27,4.18-1.16,1.64-2.18,3.37-2.91,5.33-.36-.69-.47-1.38-.48-2.08-.05-2.39,.89-4.41,2.39-6.2,.63-.74,1.32-1.44,1.88-2.05-1.59,.52-3.07,1.54-4.44,2.75-1.38,1.22-2.46,2.69-3.35,4.38-.05-.14-.08-.21-.1-.29-.27-1.7,.18-3.24,1.1-4.65,1.47-2.26,3.57-3.64,6.15-4.34,.1-.03,.19-.06,.28-.11-2.03-.16-3.97,.26-5.85,1-1.87,.74-3.56,1.78-5.13,3.17,.14-1.36,.62-2.47,1.41-3.44,1.61-1.95,3.72-3.01,6.21-3.36,1.67-.23,3.3-.02,4.92,.42,.06,.02,.12,.03,.18,0-3.85-2.57-7.92-2.27-12.21-.9,.23-.42,.39-.79,.62-1.1,.91-1.23,2.19-1.89,3.65-2.25,2.26-.55,4.4-.1,6.45,.87,.6,.28,1.17,.63,1.72,.93-.34-.75-2.24-2.21-4.09-3.11-1.58-.77-3.26-1.23-5.09-1.45,.58-.66,1.24-1,2.01-1.14,1.75-.32,3.36,.13,4.91,.91,1.74,.88,3.18,2.13,4.43,3.6,.08,.1,.17,.19,.28,.26-1.39-3.38-3.79-5.74-7.26-7.07,.43-.39,.89-.54,1.39-.6,1.22-.15,2.29,.28,3.28,.92,.97,.63,1.78,1.44,2.49,2.35,.08,.1,.16,.2,.25,.3,.01,.01,.04,.02,.09,.03-.35-1.16-.89-2.21-1.58-3.18-.18-.26-.36-.51-.57-.75-.24-.27-.16-.46,.13-.57,.63-.24,1.26-.49,1.91-.67,.44-.12,.9-.15,1.35-.19,.48-.04,.54,.07,.64,.52,.24,1.08,.51,2.15,.77,3.23,.02,.08,.07,.16,.11,.24,.04,0,.08,.01,.11,.02,.24-.98,.47-1.97,.71-2.95,.03-.13,.05-.26,.07-.38,.11-.66,.18-.73,.83-.68,1.05,.07,2.06,.33,3,.81,.42,.21,.44,.3,.15,.66-.83,1.02-1.47,2.15-1.95,3.37-.06,.15-.11,.31-.2,.57,.49-.56,.88-1.05,1.32-1.5,.88-.92,1.88-1.65,3.12-2.02,.84-.25,1.67-.28,2.47,.15,.13,.07,.25,.17,.44,.29-3.46,1.38-5.87,3.73-7.22,7.14,.39-.43,.77-.88,1.18-1.3,1.63-1.68,3.52-2.95,5.82-3.48,1.27-.3,2.54-.29,3.71,.41,.26,.16,.49,.37,.84,.64-3.66,.54-6.81,1.84-9.2,4.63,.08-.04,.16-.08,.24-.13,1.96-1.23,4.06-2.05,6.41-1.91,2,.12,3.81,.75,5.07,2.44,.23,.31,.39,.68,.64,1.12-4.24-1.44-8.27-1.65-12.07,.88Z"/>
          <path d="M362.95,86.14c.27-.32,.51-.55,.68-.83,.08-.12,.05-.33,.01-.49-.15-.68,.12-1.37,.66-1.71,.61-.37,1.31-.32,1.85,.14,.5,.42,.67,1.16,.41,1.79-.25,.62-.85,1.04-1.51,.94-.38-.06-.58,.06-.76,.34-.1,.15-.22,.29-.37,.47,1.15,.78,2.29,1.54,3.71,1.62,.64,.04,1.23-.2,1.74-.6,.46-.36,.89-.77,1.39-1.08,.52-.33,1.08-.66,1.66-.82,1.3-.34,2.53,.57,2.69,1.92,.18,1.5-.46,2.68-1.52,3.64-1.54,1.41-3.4,1.72-5.4,1.43-1.88-.27-3.45-1.21-4.97-2.27-.49-.35-.97-.7-1.51-1.09-.22,.28-.46,.55-.65,.85-.05,.08,.02,.27,.06,.4,.25,.8-.07,1.64-.78,2.02-.72,.39-1.55,.23-2.08-.42-.47-.58-.49-1.22-.16-1.87,.31-.61,.84-.93,1.49-.88,.41,.03,.63-.08,.82-.39,.08-.13,.19-.25,.31-.41-.24-.19-.47-.38-.71-.55-5.4-3.85-10.52-8.05-15.62-12.28-3.38-2.8-6.88-5.43-10.72-7.58-3.19-1.79-6.54-3.17-10.15-3.85-2.52-.48-5.07-.61-7.63-.43-.14,0-.28,.01-.45-.04,.1-.06,.2-.13,.31-.18,3.34-1.55,6.85-2.03,10.49-1.69,4.73,.44,9.01,2.16,13.05,4.58,3.54,2.11,6.82,4.58,9.92,7.28,3.41,2.97,6.76,6.01,10.15,9.01,1.15,1.02,2.34,1.99,3.55,3.02Z"/>
          <path d="M357.17,79.78c-1.11-1.01-2.2-2-3.31-3.02,.1-.11,.17-.21,.27-.29,2.93-2.65,5.93-5.22,9.18-7.49,2.76-1.93,5.65-3.65,8.78-4.92,3.5-1.41,7.11-2.21,10.9-2,2.55,.14,5,.69,7.32,1.79,.16,.08,.32,.16,.46,.33-.24-.01-.47-.02-.71-.04-5.09-.43-9.93,.49-14.58,2.57-3.24,1.45-6.21,3.35-9.07,5.44-3.16,2.31-6.13,4.85-9.05,7.46-.05,.04-.1,.08-.19,.16Z"/>
          <path d="M342.37,86.78c-.21-.26-.4-.52-.61-.74-.06-.06-.2-.09-.3-.07-.75,.12-1.38-.17-1.7-.81-.32-.64-.19-1.38,.32-1.87,.51-.48,1.26-.56,1.88-.19,.61,.36,.89,1.04,.67,1.76-.09,.29-.02,.47,.16,.66,.17,.18,.33,.37,.56,.63,1.92-1.65,3.82-3.29,5.76-4.95,1.02,.82,2.05,1.65,3.14,2.54-2.23,1.7-4.43,3.38-6.68,5.09,.24,.27,.44,.55,.7,.79,.09,.08,.29,.06,.43,.04,.8-.07,1.44,.29,1.76,1.02,.29,.67,.11,1.48-.45,1.96-.55,.48-1.31,.55-1.93,.19-.66-.39-.99-1.13-.76-1.88,.12-.39,.03-.63-.24-.88-.16-.15-.29-.33-.46-.53-.53,.37-1.05,.75-1.59,1.11-1.3,.88-2.62,1.72-4.17,2.1-2.08,.51-4.09,.37-5.85-.97-1.25-.95-2.05-2.2-1.88-3.86,.16-1.53,1.57-2.43,3.01-1.93,.51,.18,.97,.49,1.43,.79,.38,.25,.73,.55,1.08,.84,.95,.79,2,.99,3.18,.57,.91-.33,1.73-.83,2.54-1.42Z"/>
        </g>
      </g>
    </g>
  </g>
</svg>