<?xml version="1.0" encoding="UTF-8"?>
<svg id="Layer_2" data-name="Layer 2" xmlns="http://www.w3.org/2000/svg" viewBox="0 0 736.26 135.53">
  <defs>
    <style>
      .cls-1 {
        fill: #d9d7e2;
      }

      .cls-2 {
        fill: none;
        stroke: #000;
        stroke-miterlimit: 10;
        stroke-width: 2.5px;
      }
    </style>
  </defs>
  <g id="Layer_1-2" data-name="Layer 1">
    <g>
      <g>
        <g>
          <rect class="cls-1" x="2.09" y="2.09" width="732.08" height="131.35" rx="15" ry="15"/>
          <rect class="cls-1" x="2.09" y="2.09" width="732.08" height="131.35" rx="15" ry="15"/>
          <path d="M719.17,135.53H17.09c-9.42,0-17.09-7.67-17.09-17.09V17.09C0,7.67,7.67,0,17.09,0H719.17c9.42,0,17.09,7.67,17.09,17.09V118.44c0,9.42-7.67,17.09-17.09,17.09ZM17.09,4.18c-7.12,0-12.91,5.79-12.91,12.91V118.44c0,7.12,5.79,12.91,12.91,12.91H719.17c7.12,0,12.91-5.79,12.91-12.91V17.09c0-7.12-5.79-12.91-12.91-12.91H17.09Z"/>
        </g>
        <g>
          <path d="M719.17,135.53H17.09c-9.42,0-17.09-7.67-17.09-17.09V17.09C0,7.67,7.67,0,17.09,0H719.17c9.42,0,17.09,7.67,17.09,17.09V118.44c0,9.42-7.67,17.09-17.09,17.09ZM17.09,4.18c-7.12,0-12.91,5.79-12.91,12.91V118.44c0,7.12,5.79,12.91,12.91,12.91H719.17c7.12,0,12.91-5.79,12.91-12.91V17.09c0-7.12-5.79-12.91-12.91-12.91H17.09Z"/>
          <path d="M719.17,135.53H17.09c-9.42,0-17.09-7.67-17.09-17.09V17.09C0,7.67,7.67,0,17.09,0H719.17c9.42,0,17.09,7.67,17.09,17.09V118.44c0,9.42-7.67,17.09-17.09,17.09ZM17.09,4.18c-7.12,0-12.91,5.79-12.91,12.91V118.44c0,7.12,5.79,12.91,12.91,12.91H719.17c7.12,0,12.91-5.79,12.91-12.91V17.09c0-7.12-5.79-12.91-12.91-12.91H17.09Z"/>
          <path d="M719.17,135.53H17.09c-9.42,0-17.09-7.67-17.09-17.09V17.09C0,7.67,7.67,0,17.09,0H719.17c9.42,0,17.09,7.67,17.09,17.09V118.44c0,9.42-7.67,17.09-17.09,17.09ZM17.09,4.18c-7.12,0-12.91,5.79-12.91,12.91V118.44c0,7.12,5.79,12.91,12.91,12.91H719.17c7.12,0,12.91-5.79,12.91-12.91V17.09c0-7.12-5.79-12.91-12.91-12.91H17.09Z"/>
        </g>
      </g>
      <g>
        <path d="M363.27,47.01c-1.72,3.71-3.45,7.41-5.21,11.21-2.59-5.59-1.98-11.09-.15-16.65-4.43,3.27-7.79,7.47-11.32,11.51-.09-.02-.18-.03-.27-.05,.12-1.47,.14-2.95,.38-4.39,.62-3.79,2.59-6.93,5.02-9.8,.99-1.16,2.02-2.29,3.03-3.43,.21-.24,.41-.5,.56-.84-3.8,.39-7.08,2.18-10.56,3.8,2.04-6.42,7.21-9.07,12.81-11.3-2.44-.97-4.82-.34-7.19,.15-.03-.09-.07-.16-.05-.18,2.37-2.67,5.15-4.63,8.89-4.45,1.27,.06,2.52,.57,3.76,.96,1.09,.34,1.44,.21,1.8-.87,.16-.47,.32-.95,.57-1.38,.44-.76,1.16-.78,1.66-.05,.22,.31,.37,.68,.5,1.05,.62,1.68,.68,1.67,2.41,1.07,1.06-.37,2.18-.7,3.29-.79,2.87-.22,5.2,1.09,7.32,2.86,.59,.49,1.13,1.05,1.64,1.68-2.46-.37-4.86-1.01-7.53-.11,.53,.25,.89,.44,1.27,.6,2.44,1.01,4.84,2.08,6.94,3.74,2.26,1.78,4.22,4.64,4.74,6.99-3.42-1.59-6.72-3.36-10.58-3.69,.24,.28,.49,.56,.73,.85,1.92,2.4,3.99,4.7,5.71,7.24,2.04,3.02,2.71,6.52,2.6,10.16,0,.07-.04,.15-.08,.31-1.84-2.08-3.59-4.14-5.43-6.13-1.84-1.98-3.66-4-6.06-5.5,1.89,5.55,2.42,11.06-.12,16.64-1.79-3.84-3.53-7.6-5.28-11.35-.1,.02-.2,.04-.29,.06-.03,.36-.1,.73-.1,1.09,0,12.02-.02,24.05,.03,36.07,0,1.27-.41,2.18-1.27,3-.4,.38-.81,.74-1.36,1.24-.8-.84-1.58-1.62-2.29-2.45-.19-.22-.22-.62-.22-.93-.01-12.22,0-24.44,0-36.65,0-.4,0-.81,0-1.21-.1-.02-.2-.05-.3-.07Z"/>
        <path d="M357.09,101.34c2.02-2.2,4.09-4.46,6.4-6.98-.57-.45-1.13-.82-1.6-1.28-4.55-4.49-9.15-8.91-14.49-12.47-6.21-4.14-13.02-6.47-20.5-6.8-.83-.04-1.66-.1-2.51-.32,1.63-.25,3.25-.58,4.89-.72,7.12-.63,13.87,.66,20.16,4.11,4.07,2.23,7.62,5.17,10.89,8.43,1.79,1.78,3.51,3.63,5.26,5.46,.17,.18,.28,.41,.49,.72,1.24-1.3,2.32-2.44,3.41-3.58,3.79-3.96,7.76-7.71,12.53-10.5,6.06-3.53,12.6-5.14,19.61-4.71,1.93,.12,3.84,.48,5.77,.73,.18,.02,.35,.09,.51,.14-2.35,.25-4.7,.42-7.02,.76-6.25,.9-11.85,3.4-16.99,7.01-5.25,3.69-9.8,8.16-14.32,12.68-.3,.3-.51,.54-.11,.96,1.93,2.07,3.84,4.16,5.75,6.25,.05,.06,.14,.08,.25,.14,.31-.35,.62-.7,.94-1.03,.64-.69,1.45-1,2.38-1.01,1.15,0,2.36,1.24,1.78,2.51-.22-.04-.47-.15-.69-.11-.63,.13-1.34,.18-1.86,.51-.93,.59-.92,1.1-.16,1.91,1.41,1.5,2.83,2.98,4.67,3.97,2.36,1.28,4.8,1.05,6.43-.65,.32-.33,.59-.74,.79-1.16,.27-.59,.62-.56,1.04-.22,.89,.72,1.08,1.76,.98,2.79-.28,3.05-2.44,4.94-5.52,4.97-3.1,.03-5.62-1.28-7.85-3.3-1.19-1.08-2.37-2.17-3.62-3.31-.08,.09-.32,.34-.56,.6-.73,.79-1.58,1.28-2.71,1.18-1.36-.12-2.08-1.41-1.43-2.7,1.03,.41,1.99,.32,2.78-.56,.35-.39,.4-.7,0-1.13-2.11-2.2-4.19-4.44-6.29-6.66-.11-.12-.26-.2-.45-.34-1.54,1.63-3.07,3.24-4.59,4.85-.67,.71-1.3,1.45-1.99,2.13-.45,.45-.36,.81,.03,1.2,.59,.58,1.27,.87,2.11,.69,.78-.17,1.11,.18,.93,.98-.28,1.29-1.71,1.96-3.04,1.37-.42-.18-.81-.48-1.17-.78-.34-.28-.61-.64-1.08-1.15-.31,.4-.57,.78-.88,1.12-1.51,1.63-3.02,3.27-4.98,4.38-2.2,1.24-4.53,1.83-7.03,1.21-2.67-.66-4.39-3.62-3.66-6.2,.1-.36,.28-.73,.51-1.03,.57-.73,1-.68,1.45,.14,1.22,2.22,3.83,3,6.44,1.92,1.81-.75,3.21-2.05,4.56-3.43,.19-.2,.42-.38,.57-.61,.29-.43,.86-1.14,.75-1.28-.46-.57-1.13-.98-1.74-1.41-.13-.09-.38-.03-.57-.03-.35-.02-.71-.04-1.06-.06,.07-.43,.06-.89,.24-1.27,.48-1.01,1.86-1.4,2.97-.76,.77,.45,1.43,1.11,2.21,1.74Z"/>
      </g>
      <line class="cls-2" x1="679.56" y1="2.09" x2="679.56" y2="133.44"/>
      <g>
        <path d="M698.61,83.07v-13.64h2.75v6.06l5.56-6.06h3.7l-5.13,5.31,5.41,8.33h-3.56l-3.75-6.4-2.23,2.28v4.12h-2.75Z"/>
        <path d="M698.4,98.56l2.68-.26c.16,.9,.49,1.56,.98,1.98s1.16,.63,2,.63c.89,0,1.56-.19,2-.56,.45-.38,.67-.81,.67-1.32,0-.32-.09-.6-.28-.82-.19-.23-.52-.42-.99-.59-.32-.11-1.06-.31-2.21-.59-1.48-.37-2.51-.82-3.11-1.35-.84-.75-1.26-1.67-1.26-2.74,0-.69,.2-1.34,.59-1.95,.39-.6,.96-1.07,1.7-1.38s1.64-.47,2.68-.47c1.71,0,3,.38,3.87,1.13,.87,.75,1.32,1.75,1.36,3l-2.75,.12c-.12-.7-.37-1.21-.76-1.51-.39-.31-.97-.46-1.75-.46s-1.43,.17-1.88,.49c-.29,.21-.44,.49-.44,.85,0,.32,.14,.6,.41,.83,.35,.29,1.19,.6,2.53,.91,1.34,.32,2.33,.64,2.97,.98,.64,.34,1.14,.8,1.51,1.39,.36,.59,.54,1.31,.54,2.17,0,.78-.22,1.51-.65,2.2-.43,.68-1.05,1.19-1.84,1.52s-1.78,.5-2.97,.5c-1.72,0-3.05-.4-3.97-1.2-.92-.8-1.48-1.96-1.66-3.48Z"/>
        <path d="M710.87,122.93h-3l-1.19-3.1h-5.45l-1.13,3.1h-2.92l5.31-13.64h2.91l5.46,13.64Zm-5.07-5.4l-1.88-5.06-1.84,5.06h3.72Z"/>
      </g>
      <g>
        <path d="M703.15,25.14c-.61,1.31-1.22,2.62-1.84,3.96-.91-1.97-.7-3.92-.05-5.88-1.56,1.15-2.75,2.64-4,4.06-.03,0-.06-.01-.1-.02,.04-.52,.05-1.04,.13-1.55,.22-1.34,.91-2.45,1.77-3.46,.35-.41,.71-.81,1.07-1.21,.08-.09,.14-.18,.2-.3-1.34,.14-2.5,.77-3.73,1.34,.72-2.27,2.55-3.2,4.52-3.99-.86-.34-1.7-.12-2.54,.05,0-.03-.02-.06-.02-.06,.84-.94,1.82-1.64,3.14-1.57,.45,.02,.89,.2,1.33,.34,.38,.12,.51,.07,.64-.31,.06-.17,.11-.34,.2-.49,.16-.27,.41-.27,.59-.02,.08,.11,.13,.24,.18,.37,.22,.59,.24,.59,.85,.38,.38-.13,.77-.25,1.16-.28,1.01-.08,1.84,.39,2.59,1.01,.21,.17,.4,.37,.58,.59-.87-.13-1.72-.36-2.66-.04,.19,.09,.32,.16,.45,.21,.86,.36,1.71,.74,2.45,1.32,.8,.63,1.49,1.64,1.67,2.47-1.21-.56-2.37-1.19-3.74-1.3,.09,.1,.17,.2,.26,.3,.68,.85,1.41,1.66,2.02,2.56,.72,1.07,.96,2.3,.92,3.59,0,.03-.01,.05-.03,.11-.65-.73-1.27-1.46-1.92-2.16-.65-.7-1.29-1.41-2.14-1.94,.67,1.96,.85,3.91-.04,5.88-.63-1.36-1.25-2.68-1.86-4.01-.03,0-.07,.02-.1,.02-.01,.13-.03,.26-.03,.39,0,4.25,0,8.49,.01,12.74,0,.45-.14,.77-.45,1.06-.14,.13-.29,.26-.48,.44-.28-.3-.56-.57-.81-.86-.07-.08-.08-.22-.08-.33,0-4.32,0-8.63,0-12.95,0-.14,0-.29,0-.43-.04,0-.07-.02-.11-.02Z"/>
        <path d="M700.97,44.33c.71-.78,1.45-1.57,2.26-2.46-.2-.16-.4-.29-.56-.45-1.61-1.59-3.23-3.15-5.12-4.41-2.19-1.46-4.6-2.28-7.24-2.4-.29-.01-.58-.03-.89-.11,.58-.09,1.15-.2,1.73-.26,2.51-.22,4.9,.23,7.12,1.45,1.44,.79,2.69,1.82,3.85,2.98,.63,.63,1.24,1.28,1.86,1.93,.06,.06,.1,.15,.17,.25,.44-.46,.82-.86,1.2-1.26,1.34-1.4,2.74-2.72,4.43-3.71,2.14-1.25,4.45-1.82,6.92-1.66,.68,.04,1.36,.17,2.04,.26,.06,0,.12,.03,.18,.05-.83,.09-1.66,.15-2.48,.27-2.21,.32-4.19,1.2-6,2.48-1.85,1.3-3.46,2.88-5.06,4.48-.11,.11-.18,.19-.04,.34,.68,.73,1.35,1.47,2.03,2.21,.02,.02,.05,.03,.09,.05,.11-.12,.22-.25,.33-.37,.23-.24,.51-.35,.84-.36,.4,0,.83,.44,.63,.89-.08-.01-.17-.05-.24-.04-.22,.04-.47,.06-.66,.18-.33,.21-.33,.39-.06,.67,.5,.53,1,1.05,1.65,1.4,.83,.45,1.7,.37,2.27-.23,.11-.12,.21-.26,.28-.41,.1-.21,.22-.2,.37-.08,.31,.26,.38,.62,.35,.99-.1,1.08-.86,1.74-1.95,1.76-1.09,.01-1.99-.45-2.77-1.16-.42-.38-.84-.77-1.28-1.17-.03,.03-.11,.12-.2,.21-.26,.28-.56,.45-.96,.42-.48-.04-.73-.5-.51-.95,.36,.15,.7,.11,.98-.2,.12-.14,.14-.25,0-.4-.75-.78-1.48-1.57-2.22-2.35-.04-.04-.09-.07-.16-.12-.54,.57-1.08,1.14-1.62,1.71-.24,.25-.46,.51-.7,.75-.16,.16-.13,.29,.01,.42,.21,.2,.45,.31,.75,.24,.28-.06,.39,.06,.33,.35-.1,.45-.6,.69-1.07,.49-.15-.07-.29-.17-.41-.27-.12-.1-.21-.23-.38-.41-.11,.14-.2,.28-.31,.4-.53,.58-1.07,1.15-1.76,1.55-.78,.44-1.6,.65-2.48,.43-.94-.23-1.55-1.28-1.29-2.19,.04-.13,.1-.26,.18-.36,.2-.26,.35-.24,.51,.05,.43,.78,1.35,1.06,2.28,.68,.64-.27,1.13-.73,1.61-1.21,.07-.07,.15-.13,.2-.21,.1-.15,.3-.4,.26-.45-.16-.2-.4-.35-.62-.5-.05-.03-.13,0-.2-.01-.13,0-.25-.01-.38-.02,.03-.15,.02-.32,.08-.45,.17-.36,.66-.49,1.05-.27,.27,.16,.5,.39,.78,.62Z"/>
      </g>
    </g>
  </g>
</svg>