<?xml version="1.0" encoding="UTF-8"?>
<svg id="Layer_2" data-name="Layer 2" xmlns="http://www.w3.org/2000/svg" viewBox="0 0 736.26 144.5">
  <defs>
    <style>
      .cls-1 {
        fill: #d9d7e2;
      }

      .cls-2 {
        fill: #8c7b01;
      }

      .cls-3 {
        fill: none;
        stroke: #000;
        stroke-miterlimit: 10;
        stroke-width: 2.5px;
      }

      .cls-4 {
        fill: #005028;
      }
    </style>
  </defs>
  <g id="Layer_1-2" data-name="Layer 1">
    <g>
      <g>
        <g>
          <rect class="cls-1" x="2.09" y="2.09" width="732.08" height="140.33" rx="15" ry="15"/>
          <rect class="cls-1" x="2.09" y="2.09" width="732.08" height="140.33" rx="15" ry="15"/>
          <path d="M719.17,144.5H17.09c-9.42,0-17.09-7.67-17.09-17.09V17.09C0,7.67,7.67,0,17.09,0H719.17c9.42,0,17.09,7.67,17.09,17.09V127.42c0,9.42-7.67,17.09-17.09,17.09ZM17.09,4.18c-7.12,0-12.91,5.79-12.91,12.91V127.42c0,7.12,5.79,12.91,12.91,12.91H719.17c7.12,0,12.91-5.79,12.91-12.91V17.09c0-7.12-5.79-12.91-12.91-12.91H17.09Z"/>
          <g>
            <path d="M688.47,132.09h-2.48c0,4.56-3.69,8.25-8.25,8.25h18.98c-4.56,0-8.25-3.69-8.25-8.25Z"/>
            <path d="M685.99,12.37h2.48c0-4.56,3.69-8.25,8.25-8.25h-18.98c4.56,0,8.25,3.69,8.25,8.25Z"/>
          </g>
        </g>
        <line class="cls-3" x1="687.24" y1="2.09" x2="687.24" y2="142.42"/>
        <g>
          <path d="M703.59,81.27v-17.12h3.46v7.6l6.98-7.6h4.65l-6.45,6.67,6.8,10.45h-4.47l-4.71-8.04-2.8,2.86v5.17h-3.46Z"/>
          <path d="M703.32,100.72l3.36-.33c.2,1.13,.61,1.96,1.23,2.49,.62,.53,1.46,.79,2.51,.79,1.11,0,1.95-.24,2.52-.71,.56-.47,.85-1.02,.85-1.65,0-.41-.12-.75-.36-1.03-.24-.28-.65-.53-1.24-.74-.4-.14-1.33-.39-2.77-.75-1.85-.46-3.15-1.02-3.9-1.69-1.05-.94-1.58-2.09-1.58-3.45,0-.87,.25-1.69,.74-2.45,.49-.76,1.21-1.34,2.14-1.74,.93-.4,2.05-.6,3.37-.6,2.15,0,3.77,.47,4.85,1.41,1.09,.94,1.66,2.2,1.71,3.77l-3.46,.15c-.15-.88-.46-1.51-.95-1.9s-1.22-.58-2.19-.58-1.79,.21-2.36,.62c-.37,.26-.55,.62-.55,1.06,0,.41,.17,.75,.51,1.04,.44,.37,1.5,.75,3.18,1.14,1.68,.4,2.93,.81,3.73,1.23,.81,.42,1.44,1,1.89,1.74,.46,.74,.68,1.64,.68,2.73,0,.98-.27,1.9-.82,2.76-.54,.86-1.32,1.49-2.31,1.91-1,.42-2.24,.62-3.73,.62-2.16,0-3.83-.5-4.99-1.5s-1.85-2.46-2.08-4.37Z"/>
          <path d="M718.98,131.31h-3.76l-1.49-3.89h-6.85l-1.41,3.89h-3.67l6.67-17.12h3.66l6.86,17.12Zm-6.37-6.77l-2.36-6.35-2.31,6.35h4.67Z"/>
        </g>
        <g>
          <path d="M709.75,25.68c-.7,1.5-1.39,2.99-2.1,4.52-1.04-2.25-.8-4.47-.06-6.72-1.79,1.32-3.14,3.01-4.57,4.64-.04,0-.07-.01-.11-.02,.05-.59,.06-1.19,.15-1.77,.25-1.53,1.04-2.79,2.03-3.95,.4-.47,.82-.92,1.22-1.39,.09-.1,.17-.2,.23-.34-1.53,.16-2.85,.88-4.26,1.53,.82-2.59,2.91-3.66,5.17-4.56-.98-.39-1.94-.14-2.9,.06-.01-.04-.03-.06-.02-.07,.96-1.08,2.08-1.87,3.59-1.79,.51,.03,1.02,.23,1.52,.39,.44,.14,.58,.08,.73-.35,.06-.19,.13-.38,.23-.56,.18-.31,.47-.31,.67-.02,.09,.13,.15,.28,.2,.42,.25,.68,.28,.67,.97,.43,.43-.15,.88-.28,1.33-.32,1.16-.09,2.1,.44,2.95,1.15,.24,.2,.46,.42,.66,.68-.99-.15-1.96-.41-3.04-.05,.21,.1,.36,.18,.51,.24,.98,.41,1.95,.84,2.8,1.51,.91,.72,1.7,1.87,1.91,2.82-1.38-.64-2.71-1.36-4.27-1.49,.1,.11,.2,.23,.29,.34,.77,.97,1.61,1.9,2.3,2.92,.82,1.22,1.09,2.63,1.05,4.1,0,.03-.01,.06-.03,.12-.74-.84-1.45-1.67-2.19-2.47-.74-.8-1.48-1.61-2.45-2.22,.76,2.24,.97,4.46-.05,6.71-.72-1.55-1.43-3.06-2.13-4.58-.04,0-.08,.02-.12,.03-.01,.15-.04,.29-.04,.44,0,4.85,0,9.7,.01,14.55,0,.51-.17,.88-.51,1.21-.16,.15-.33,.3-.55,.5-.32-.34-.64-.65-.92-.99-.07-.09-.09-.25-.09-.38,0-4.93,0-9.86,0-14.79,0-.16,0-.33,0-.49-.04,0-.08-.02-.12-.03Z"/>
          <path d="M707.26,47.6c.81-.89,1.65-1.8,2.58-2.81-.23-.18-.46-.33-.64-.52-1.83-1.81-3.69-3.59-5.85-5.03-2.5-1.67-5.25-2.61-8.27-2.74-.33-.01-.67-.04-1.01-.13,.66-.1,1.31-.23,1.97-.29,2.87-.25,5.59,.27,8.13,1.66,1.64,.9,3.07,2.08,4.39,3.4,.72,.72,1.42,1.46,2.12,2.2,.07,.07,.11,.17,.2,.29,.5-.52,.94-.99,1.37-1.44,1.53-1.6,3.13-3.11,5.06-4.23,2.44-1.43,5.08-2.07,7.91-1.9,.78,.05,1.55,.19,2.33,.3,.07,0,.14,.04,.21,.05-.95,.1-1.89,.17-2.83,.31-2.52,.36-4.78,1.37-6.85,2.83-2.12,1.49-3.95,3.29-5.78,5.11-.12,.12-.2,.22-.05,.39,.78,.83,1.55,1.68,2.32,2.52,.02,.02,.06,.03,.1,.06,.13-.14,.25-.28,.38-.42,.26-.28,.58-.4,.96-.41,.46,0,.95,.5,.72,1.01-.09-.02-.19-.06-.28-.04-.25,.05-.54,.07-.75,.21-.38,.24-.37,.44-.07,.77,.57,.6,1.14,1.2,1.88,1.6,.95,.51,1.94,.42,2.59-.26,.13-.13,.24-.3,.32-.47,.11-.24,.25-.23,.42-.09,.36,.29,.43,.71,.4,1.13-.11,1.23-.99,1.99-2.23,2.01-1.25,.01-2.27-.52-3.17-1.33-.48-.44-.96-.88-1.46-1.34-.03,.04-.13,.14-.22,.24-.29,.32-.64,.52-1.09,.48-.55-.05-.84-.57-.58-1.09,.42,.17,.8,.13,1.12-.23,.14-.16,.16-.28,0-.45-.85-.89-1.69-1.79-2.54-2.69-.04-.05-.1-.08-.18-.14-.62,.66-1.24,1.31-1.85,1.96-.27,.29-.52,.58-.8,.86-.18,.18-.15,.33,.01,.48,.24,.23,.51,.35,.85,.28,.32-.07,.45,.07,.38,.4-.11,.52-.69,.79-1.23,.55-.17-.07-.33-.19-.47-.31-.14-.11-.25-.26-.44-.47-.12,.16-.23,.32-.36,.45-.61,.66-1.22,1.32-2.01,1.77-.89,.5-1.83,.74-2.84,.49-1.08-.27-1.77-1.46-1.47-2.5,.04-.15,.11-.3,.21-.42,.23-.3,.4-.27,.58,.06,.49,.9,1.55,1.21,2.6,.77,.73-.3,1.3-.83,1.84-1.38,.08-.08,.17-.15,.23-.24,.12-.17,.35-.46,.3-.52-.19-.23-.45-.4-.7-.57-.05-.04-.15-.01-.23-.01-.14,0-.29-.01-.43-.02,.03-.17,.02-.36,.1-.51,.19-.41,.75-.56,1.2-.31,.31,.18,.58,.45,.89,.7Z"/>
        </g>
      </g>
      <g>
        <path class="cls-4" d="M365,47.77c-1.87,4.02-3.74,8.03-5.65,12.15-2.81-6.05-2.15-12.01-.16-18.04-4.79,3.54-8.44,8.09-12.27,12.47-.1-.02-.19-.03-.29-.05,.13-1.59,.15-3.19,.41-4.76,.67-4.11,2.8-7.5,5.44-10.62,1.07-1.26,2.19-2.48,3.28-3.72,.23-.26,.44-.54,.61-.91-4.11,.42-7.67,2.36-11.44,4.12,2.21-6.95,7.81-9.83,13.88-12.24-2.64-1.05-5.22-.36-7.79,.16-.03-.1-.08-.17-.06-.19,2.57-2.89,5.57-5.02,9.64-4.82,1.37,.07,2.73,.62,4.07,1.04,1.18,.37,1.56,.23,1.95-.94,.17-.51,.35-1.03,.62-1.49,.48-.82,1.26-.84,1.8-.06,.24,.34,.4,.74,.54,1.13,.67,1.82,.74,1.81,2.61,1.16,1.15-.4,2.36-.76,3.57-.86,3.11-.24,5.64,1.19,7.93,3.1,.64,.53,1.22,1.13,1.77,1.82-2.66-.4-5.26-1.09-8.16-.12,.58,.27,.97,.48,1.38,.65,2.64,1.1,5.25,2.26,7.52,4.05,2.44,1.93,4.57,5.03,5.13,7.58-3.71-1.73-7.28-3.64-11.46-3.99,.26,.31,.53,.61,.79,.93,2.08,2.6,4.33,5.09,6.18,7.85,2.21,3.28,2.93,7.07,2.82,11.01,0,.08-.04,.16-.09,.33-1.99-2.25-3.89-4.48-5.88-6.64-1.99-2.15-3.96-4.33-6.57-5.96,2.05,6.02,2.62,11.98-.13,18.02-1.94-4.17-3.83-8.23-5.72-12.29-.11,.02-.21,.05-.32,.07-.04,.39-.11,.79-.11,1.18,0,13.03-.03,26.05,.04,39.08,0,1.38-.44,2.37-1.37,3.25-.43,.41-.88,.8-1.47,1.34-.87-.91-1.71-1.75-2.48-2.65-.2-.24-.24-.67-.24-1.01-.01-13.24,0-26.48,0-39.71,0-.44,0-.88,0-1.31-.11-.02-.22-.05-.32-.07Z"/>
        <path class="cls-2" d="M358.31,106.63c2.19-2.38,4.43-4.83,6.94-7.56-.61-.49-1.22-.88-1.73-1.39-4.93-4.86-9.91-9.65-15.7-13.51-6.73-4.49-14.11-7.01-22.21-7.36-.9-.04-1.79-.11-2.72-.34,1.77-.27,3.53-.63,5.3-.78,7.71-.68,15.03,.72,21.84,4.45,4.41,2.42,8.25,5.6,11.8,9.14,1.94,1.93,3.8,3.93,5.69,5.91,.18,.19,.31,.45,.53,.78,1.34-1.41,2.51-2.65,3.69-3.88,4.11-4.29,8.41-8.36,13.58-11.37,6.57-3.83,13.65-5.57,21.24-5.1,2.09,.13,4.17,.52,6.25,.8,.19,.03,.38,.1,.55,.15-2.54,.27-5.09,.46-7.61,.82-6.77,.97-12.84,3.68-18.4,7.6-5.68,4-10.62,8.84-15.52,13.74-.32,.32-.55,.58-.12,1.04,2.09,2.24,4.16,4.51,6.23,6.77,.06,.06,.15,.09,.28,.15,.34-.37,.67-.75,1.01-1.12,.7-.74,1.57-1.08,2.58-1.09,1.24,0,2.56,1.34,1.92,2.72-.24-.04-.51-.16-.75-.12-.68,.14-1.45,.19-2.01,.55-1.01,.64-1,1.19-.18,2.06,1.53,1.62,3.07,3.23,5.06,4.3,2.55,1.38,5.2,1.13,6.97-.71,.35-.36,.64-.8,.86-1.25,.3-.64,.67-.61,1.12-.24,.97,.79,1.17,1.91,1.07,3.02-.3,3.31-2.65,5.35-5.98,5.39-3.36,.04-6.09-1.38-8.51-3.57-1.29-1.17-2.57-2.35-3.92-3.59-.09,.1-.35,.37-.6,.65-.79,.86-1.71,1.39-2.94,1.28-1.47-.13-2.25-1.52-1.55-2.93,1.12,.45,2.15,.35,3.01-.61,.38-.42,.44-.76,0-1.22-2.29-2.39-4.54-4.81-6.81-7.22-.12-.13-.28-.22-.48-.37-1.67,1.76-3.32,3.51-4.97,5.25-.72,.77-1.41,1.57-2.15,2.31-.49,.48-.39,.88,.03,1.3,.64,.63,1.37,.95,2.29,.74,.85-.19,1.2,.19,1.01,1.07-.3,1.4-1.85,2.12-3.3,1.49-.46-.2-.88-.52-1.26-.84-.36-.31-.66-.69-1.17-1.25-.33,.43-.62,.85-.96,1.22-1.63,1.77-3.27,3.54-5.4,4.74-2.38,1.35-4.91,1.98-7.62,1.31-2.9-.72-4.76-3.92-3.96-6.72,.11-.39,.3-.8,.55-1.12,.62-.79,1.08-.73,1.57,.15,1.32,2.41,4.15,3.25,6.98,2.08,1.96-.81,3.48-2.22,4.94-3.71,.21-.21,.45-.41,.62-.66,.31-.46,.93-1.24,.81-1.39-.5-.62-1.22-1.06-1.89-1.53-.14-.1-.41-.03-.62-.04-.38-.02-.77-.04-1.15-.06,.08-.46,.06-.97,.26-1.37,.52-1.09,2.02-1.51,3.22-.82,.84,.49,1.54,1.2,2.4,1.89Z"/>
      </g>
    </g>
  </g>
</svg>