<?xml version="1.0" encoding="UTF-8"?>
<svg id="Layer_2" data-name="Layer 2" xmlns="http://www.w3.org/2000/svg" viewBox="0 0 457.62 252.8">
  <defs>
    <style>
      .cls-1 {
        fill: #d9d7e2;
      }

      .cls-2 {
        fill: #8a7e72;
      }

      .cls-3 {
        fill: #03387c;
      }
    </style>
  </defs>
  <g id="Layer_1-2" data-name="Layer 1">
    <g>
      <g>
        <g>
          <rect class="cls-1" x="2.09" y="2.09" width="453.45" height="248.62" rx="15" ry="15"/>
          <rect class="cls-1" x="2.09" y="2.09" width="453.45" height="248.62" rx="15" ry="15"/>
          <path d="M440.53,252.8H17.09c-9.42,0-17.09-7.67-17.09-17.09V17.09C0,7.67,7.67,0,17.09,0H440.53c9.42,0,17.09,7.67,17.09,17.09V235.71c0,9.42-7.67,17.09-17.09,17.09ZM17.09,4.18c-7.12,0-12.91,5.79-12.91,12.91V235.71c0,7.12,5.79,12.91,12.91,12.91H440.53c7.12,0,12.91-5.79,12.91-12.91V17.09c0-7.12-5.79-12.91-12.91-12.91H17.09Z"/>
        </g>
        <rect x="2.09" y="125.86" width="453.44" height="4.18"/>
        <path class="cls-3" d="M455.53,17.09V235.71c0,8.28-6.72,15-15,15h-44.45V2.09h44.45c8.28,0,15,6.72,15,15Z"/>
        <rect x="394" y="2.09" width="4.18" height="248.62"/>
        <rect x="226.72" y="2.09" width="4.18" height="248.62"/>
        <g>
          <path d="M440.53,252.8H17.09c-9.42,0-17.09-7.67-17.09-17.09V17.09C0,7.67,7.67,0,17.09,0H440.53c9.42,0,17.09,7.67,17.09,17.09V235.71c0,9.42-7.67,17.09-17.09,17.09ZM17.09,4.18c-7.12,0-12.91,5.79-12.91,12.91V235.71c0,7.12,5.79,12.91,12.91,12.91H440.53c7.12,0,12.91-5.79,12.91-12.91V17.09c0-7.12-5.79-12.91-12.91-12.91H17.09Z"/>
          <path d="M440.53,252.8H17.09c-9.42,0-17.09-7.67-17.09-17.09V17.09C0,7.67,7.67,0,17.09,0H440.53c9.42,0,17.09,7.67,17.09,17.09V235.71c0,9.42-7.67,17.09-17.09,17.09ZM17.09,4.18c-7.12,0-12.91,5.79-12.91,12.91V235.71c0,7.12,5.79,12.91,12.91,12.91H440.53c7.12,0,12.91-5.79,12.91-12.91V17.09c0-7.12-5.79-12.91-12.91-12.91H17.09Z"/>
          <path d="M440.53,252.8H17.09c-9.42,0-17.09-7.67-17.09-17.09V17.09C0,7.67,7.67,0,17.09,0H440.53c9.42,0,17.09,7.67,17.09,17.09V235.71c0,9.42-7.67,17.09-17.09,17.09ZM17.09,4.18c-7.12,0-12.91,5.79-12.91,12.91V235.71c0,7.12,5.79,12.91,12.91,12.91H440.53c7.12,0,12.91-5.79,12.91-12.91V17.09c0-7.12-5.79-12.91-12.91-12.91H17.09Z"/>
        </g>
        <g>
          <path d="M239.56,130.11h145.77c4.78,0,8.66,3.88,8.66,8.68v-21.54c0,4.8-3.88,8.68-8.66,8.68H239.56c-4.79,0-8.67-3.88-8.67-8.68V12.79c0-4.8,3.88-8.68,8.67-8.68h-21.5c4.78,0,8.66,3.88,8.66,8.68V117.25c0,4.8-3.88,8.68-8.66,8.68H12.84c-4.79,0-8.67-3.88-8.67-8.68v21.54c0-4.8,3.88-8.68,8.67-8.68H218.06c4.78,0,8.66,3.88,8.66,8.68v101.35c0,4.8-3.88,8.68-8.66,8.68H17.08c-1.33,0-2.6-.2-3.81-.57,.57,.84,1.16,1.65,1.77,2.46H393.99v-11.7c0,5.43-4.39,9.82-9.8,9.82H239.56c-4.79,0-8.67-3.88-8.67-8.68v-101.35c0-4.8,3.88-8.68,8.67-8.68Z"/>
          <path d="M393.99,4.11V13.93c0-5.43-4.39-9.82-9.8-9.82h9.8Z"/>
        </g>
      </g>
      <g>
        <path d="M416.03,105.07v-23.81h4.81v10.57l9.71-10.57h6.46l-8.97,9.28,9.45,14.54h-6.22l-6.55-11.18-3.9,3.98v7.2h-4.81Z"/>
        <path d="M415.67,132.11l4.68-.46c.28,1.57,.85,2.72,1.71,3.46s2.02,1.1,3.48,1.1c1.55,0,2.71-.33,3.5-.98,.78-.66,1.18-1.42,1.18-2.3,0-.56-.17-1.04-.5-1.44s-.91-.74-1.73-1.03c-.56-.2-1.85-.54-3.85-1.04-2.58-.64-4.39-1.42-5.43-2.36-1.46-1.31-2.19-2.91-2.19-4.79,0-1.21,.34-2.35,1.03-3.4,.69-1.06,1.68-1.86,2.97-2.41,1.29-.55,2.86-.83,4.69-.83,2.99,0,5.24,.66,6.75,1.97s2.3,3.06,2.38,5.25l-4.81,.21c-.21-1.22-.65-2.1-1.32-2.64s-1.69-.8-3.05-.8-2.49,.29-3.28,.86c-.51,.37-.76,.86-.76,1.48,0,.56,.24,1.04,.71,1.45,.61,.51,2.08,1.04,4.42,1.59s4.07,1.12,5.19,1.71c1.12,.59,2,1.4,2.63,2.42s.95,2.29,.95,3.79c0,1.37-.38,2.64-1.14,3.83-.76,1.19-1.83,2.08-3.22,2.66-1.39,.58-3.11,.87-5.18,.87-3.01,0-5.32-.7-6.94-2.09-1.61-1.39-2.58-3.42-2.89-6.08Z"/>
        <path d="M437.44,174.65h-5.23l-2.08-5.41h-9.52l-1.97,5.41h-5.1l9.28-23.81h5.08l9.54,23.81Zm-8.85-9.42l-3.28-8.84-3.22,8.84h6.5Z"/>
      </g>
      <path d="M427.37,240.77l13.02-22.55c.82-1.42-.2-3.19-1.84-3.19h-26.04c-1.64,0-2.66,1.77-1.84,3.19l13.02,22.55c.82,1.42,2.87,1.42,3.69,0Z"/>
      <rect class="cls-2" x="407.74" y="185.6" width="35.59" height="19.24"/>
      <g>
        <path d="M429.15,28.76c.91-.23,1.84-.37,2.78-.29,2.07,.18,3.74,1.05,4.79,2.92,.23,.42,.37,.87,.39,1.4-2.01-1.69-4.24-2.74-6.88-2.69l-.02,.06c.1,.03,.19,.06,.29,.08,1.61,.47,2.92,1.36,3.83,2.78,.54,.85,.79,1.78,.68,2.79,0,.09-.03,.18-.07,.33-.58-1.11-1.27-2.06-2.17-2.85-.88-.78-1.84-1.45-2.95-1.79,.45,.47,.95,.94,1.38,1.46,.92,1.11,1.48,2.37,1.46,3.84,0,.46-.1,.9-.3,1.35-1.02-2.35-2.29-4.49-4.43-5.98,.16,.22,.32,.43,.47,.65,.62,.92,1.14,1.89,1.35,2.99,.2,1.05,.14,2.08-.31,3.06-.02,.04-.03,.08-.05,.11,0,.01-.02,.02-.03,.04-.72-2.35-1.44-4.69-2.88-6.72-.03,.01-.06,.02-.09,.03,.15,.86,.31,1.72,.47,2.59,.1,.55,.21,1.09,.31,1.64,.06,.35-.03,.45-.39,.45-.3,0-.59,0-.96,0,.07,.14,.08,.29,.16,.34,.22,.16,.36,.33,.29,.61,.45,.1,.46,.1,.38,.53-.1,.56-.21,1.12-.31,1.68,.47,.11,.46,.11,.37,.59-.11,.57-.21,1.14-.32,1.7,.47,.11,.46,.1,.37,.58-.11,.58-.21,1.16-.31,1.73,.02,.02,.03,.04,.04,.04q.44,.05,.36,.49c-.11,.64-.23,1.29-.34,1.92,.03,.02,.04,.03,.06,.03,.44,.05,.44,.05,.37,.49-.09,.56-.19,1.13-.28,1.69-.01,.08-.02,.16-.03,.25,.05,.01,.09,.03,.13,.03,.51-.02,.42,.11,.37,.44-.09,.66-.19,1.33-.28,1.99-.02,.12-.03,.24-.05,.41h5.37c-.5,.45-1,.85-1.44,1.31-.43,.46-.78,1-1.19,1.54-.21-.41-.41-.8-.63-1.21-.38,.37-.73,.71-1.08,1.05-.22,.21-.29,.21-.47-.04-.19-.27-.37-.54-.58-.85-.34,.31-.67,.59-1,.88-.25,.22-.31,.22-.5-.05-.19-.27-.38-.54-.59-.85-.28,.24-.56,.46-.82,.69-.58,.49-.49,.56-.95-.14-.13-.2-.27-.4-.43-.63-.27,.23-.52,.44-.77,.66-.29,.25-.37,.24-.59-.07-.57-.82-1.22-1.57-2.07-2.12-.03-.02-.06-.05-.15-.14h5.49c-.08-.59-.15-1.13-.22-1.67-.04-.29-.09-.57-.12-.86-.04-.29-.01-.31,.28-.33,.07,0,.13-.01,.23-.02-.06-.37-.12-.72-.17-1.08-.05-.33-.11-.65-.17-.98-.06-.31-.02-.36,.3-.38,.03,0,.07,0,.1,0,.02,0,.03-.01,.05-.03-.11-.64-.22-1.28-.33-1.92-.08-.44-.07-.45,.41-.5-.06-.34-.12-.68-.18-1.01-.06-.31-.12-.62-.17-.93-.05-.3-.02-.33,.29-.35,.03,0,.06,0,.13-.02-.08-.44-.16-.86-.24-1.29-.04-.2-.08-.41-.12-.61-.06-.31-.03-.35,.27-.37,.04,0,.08-.01,.15-.02-.11-.57-.21-1.13-.32-1.68-.08-.42-.05-.46,.37-.54-.07-.28,.05-.48,.31-.61,.08-.04,.12-.19,.21-.35-.4,0-.71,0-1.02,0-.41,0-.47-.08-.4-.47,.25-1.36,.49-2.72,.73-4.08,0-.04,.01-.08,.02-.2-.14,.17-.25,.27-.33,.39-.61,.83-1.04,1.75-1.4,2.7-.46,1.2-.89,2.42-1.33,3.64-.07-.17-.16-.37-.23-.58-.38-1.21-.25-2.39,.19-3.55,.38-1,.92-1.91,1.61-2.74-.52,.13-1.87,1.46-2.71,2.66-.74,1.04-1.38,2.14-1.85,3.39-.23-.44-.3-.88-.31-1.32-.03-1.52,.56-2.81,1.52-3.94,.4-.47,.84-.91,1.2-1.3-1.01,.33-1.95,.98-2.82,1.75-.88,.78-1.56,1.71-2.13,2.79-.03-.09-.05-.14-.06-.18-.17-1.08,.11-2.06,.7-2.95,.93-1.43,2.27-2.32,3.91-2.76,.06-.02,.12-.04,.18-.07-1.29-.1-2.52,.16-3.72,.64-1.19,.47-2.26,1.13-3.26,2.02,.09-.87,.39-1.57,.9-2.18,1.02-1.24,2.36-1.91,3.94-2.13,1.06-.15,2.1-.01,3.12,.26,.04,.01,.08,.02,.12,0-2.44-1.63-5.03-1.44-7.76-.57,.15-.27,.25-.5,.39-.7,.58-.78,1.39-1.2,2.32-1.43,1.44-.35,2.79-.06,4.1,.55,.38,.18,.74,.4,1.09,.59-.22-.47-1.42-1.41-2.6-1.98-1-.49-2.07-.78-3.23-.92,.37-.42,.79-.64,1.28-.73,1.11-.2,2.14,.08,3.12,.58,1.1,.56,2.02,1.35,2.82,2.29,.05,.06,.11,.12,.18,.17-.89-2.15-2.41-3.65-4.61-4.49,.27-.25,.56-.34,.88-.38,.78-.09,1.45,.18,2.09,.59,.62,.4,1.13,.91,1.58,1.49,.05,.07,.1,.13,.16,.19,0,0,.03,0,.06,.02-.22-.74-.57-1.4-1-2.02-.11-.16-.23-.33-.36-.47-.15-.17-.1-.29,.08-.36,.4-.16,.8-.31,1.22-.43,.28-.08,.57-.1,.86-.12,.3-.03,.35,.04,.41,.33,.15,.69,.32,1.37,.49,2.05,.01,.05,.05,.1,.07,.15,.02,0,.05,0,.07,0,.15-.63,.3-1.25,.45-1.88,.02-.08,.03-.16,.04-.24,.07-.42,.11-.46,.53-.43,.67,.05,1.31,.21,1.91,.51,.27,.14,.28,.19,.09,.42-.53,.65-.94,1.37-1.24,2.14-.04,.1-.07,.2-.13,.37,.31-.35,.56-.67,.84-.95,.56-.58,1.2-1.05,1.98-1.28,.53-.16,1.06-.18,1.57,.1,.08,.05,.16,.11,.28,.18-2.2,.87-3.73,2.37-4.59,4.54,.25-.28,.49-.56,.75-.82,1.04-1.07,2.23-1.87,3.7-2.21,.81-.19,1.61-.19,2.36,.26,.17,.1,.31,.24,.53,.41-2.32,.35-4.32,1.17-5.84,2.94,.05-.03,.1-.05,.15-.08,1.25-.78,2.58-1.3,4.07-1.21,1.27,.08,2.42,.47,3.22,1.55,.15,.2,.25,.43,.41,.71-2.69-.91-5.25-1.05-7.67,.56Z"/>
        <path d="M431.6,66.75c.17-.2,.32-.35,.43-.52,.05-.08,.03-.21,0-.31-.09-.43,.07-.87,.42-1.09,.39-.24,.83-.2,1.18,.09,.32,.27,.42,.73,.26,1.13-.16,.39-.54,.66-.96,.6-.24-.04-.37,.04-.49,.22-.06,.1-.14,.18-.24,.3,.73,.5,1.45,.98,2.36,1.03,.41,.02,.78-.13,1.11-.38,.29-.23,.57-.49,.88-.69,.33-.21,.68-.42,1.06-.52,.83-.22,1.61,.36,1.71,1.22,.11,.95-.29,1.7-.96,2.32-.98,.9-2.16,1.09-3.43,.91-1.19-.17-2.19-.77-3.16-1.44-.31-.22-.62-.44-.96-.69-.14,.18-.29,.35-.41,.54-.03,.05,.02,.17,.04,.25,.16,.51-.05,1.04-.49,1.28-.45,.25-.99,.14-1.32-.27-.3-.37-.31-.77-.1-1.19,.2-.38,.53-.59,.95-.56,.26,.02,.4-.05,.52-.25,.05-.08,.12-.16,.2-.26-.15-.12-.3-.24-.45-.35-3.43-2.45-6.69-5.11-9.93-7.8-2.14-1.78-4.37-3.45-6.81-4.82-2.03-1.14-4.16-2.01-6.45-2.45-1.6-.31-3.22-.39-4.85-.27-.09,0-.18,0-.28-.03,.07-.04,.13-.08,.2-.12,2.12-.98,4.35-1.29,6.66-1.07,3.01,.28,5.73,1.38,8.29,2.91,2.25,1.34,4.33,2.91,6.31,4.63,2.17,1.89,4.3,3.82,6.45,5.73,.73,.65,1.49,1.27,2.26,1.92Z"/>
        <path d="M427.93,62.71c-.71-.64-1.4-1.27-2.1-1.92,.06-.07,.11-.13,.17-.18,1.86-1.68,3.77-3.32,5.83-4.76,1.76-1.23,3.59-2.32,5.58-3.12,2.22-.9,4.52-1.4,6.93-1.27,1.62,.09,3.18,.44,4.65,1.13,.1,.05,.2,.1,.29,.21-.15,0-.3-.01-.45-.02-3.23-.27-6.31,.31-9.26,1.63-2.06,.92-3.95,2.13-5.76,3.46-2.01,1.47-3.9,3.08-5.75,4.74-.03,.03-.06,.05-.12,.1Z"/>
        <path d="M418.52,67.16c-.13-.17-.25-.33-.39-.47-.04-.04-.13-.06-.19-.05-.47,.08-.88-.11-1.08-.52-.2-.41-.12-.88,.2-1.19,.32-.31,.8-.35,1.19-.12,.39,.23,.56,.66,.42,1.12-.06,.18-.02,.3,.1,.42,.11,.11,.21,.24,.35,.4,1.22-1.05,2.43-2.09,3.66-3.15,.65,.52,1.3,1.05,2,1.61-1.42,1.08-2.82,2.15-4.24,3.24,.15,.17,.28,.35,.44,.5,.05,.05,.18,.04,.27,.03,.51-.05,.92,.19,1.12,.65,.18,.43,.07,.94-.29,1.25-.35,.3-.83,.35-1.22,.12-.42-.25-.63-.72-.48-1.2,.08-.25,.02-.4-.15-.56-.1-.09-.19-.21-.29-.34-.34,.24-.67,.48-1.01,.71-.82,.56-1.66,1.09-2.65,1.33-1.32,.32-2.6,.23-3.71-.62-.8-.61-1.3-1.4-1.2-2.45,.1-.97,.99-1.55,1.91-1.22,.32,.11,.62,.31,.91,.5,.24,.16,.46,.35,.68,.54,.61,.5,1.27,.63,2.02,.36,.58-.21,1.1-.53,1.61-.9Z"/>
      </g>
    </g>
  </g>
</svg>