<?xml version="1.0" encoding="UTF-8"?>
<svg id="Layer_2" data-name="Layer 2" xmlns="http://www.w3.org/2000/svg" viewBox="0 0 736.26 144.5">
  <defs>
    <style>
      .cls-1 {
        fill: #d9d7e2;
      }

      .cls-2 {
        fill: #28316f;
      }

      .cls-3 {
        fill: #2983c6;
      }

      .cls-4 {
        fill: none;
        stroke: #000;
        stroke-miterlimit: 10;
        stroke-width: 2.5px;
      }

      .cls-5 {
        fill: #213466;
      }

      .cls-6 {
        fill: #5aac4c;
      }

      .cls-7 {
        fill: #29b0ba;
      }

      .cls-8 {
        fill: #d5d505;
      }

      .cls-9 {
        fill: #75b12f;
      }

      .cls-10 {
        fill: #757a81;
      }
    </style>
  </defs>
  <g id="Layer_1-2" data-name="Layer 1">
    <g>
      <g>
        <g>
          <rect class="cls-1" x="2.09" y="2.09" width="732.08" height="140.33" rx="15" ry="15"/>
          <rect class="cls-1" x="2.09" y="2.09" width="732.08" height="140.33" rx="15" ry="15"/>
          <path d="M719.17,144.5H17.09c-9.42,0-17.09-7.67-17.09-17.09V17.09C0,7.67,7.67,0,17.09,0H719.17c9.42,0,17.09,7.67,17.09,17.09V127.42c0,9.42-7.67,17.09-17.09,17.09ZM17.09,4.18c-7.12,0-12.91,5.79-12.91,12.91V127.42c0,7.12,5.79,12.91,12.91,12.91H719.17c7.12,0,12.91-5.79,12.91-12.91V17.09c0-7.12-5.79-12.91-12.91-12.91H17.09Z"/>
          <g>
            <path d="M688.47,132.09h-2.48c0,4.56-3.69,8.25-8.25,8.25h18.98c-4.56,0-8.25-3.69-8.25-8.25Z"/>
            <path d="M685.99,12.37h2.48c0-4.56,3.69-8.25,8.25-8.25h-18.98c4.56,0,8.25,3.69,8.25,8.25Z"/>
          </g>
        </g>
        <line class="cls-4" x1="687.24" y1="2.09" x2="687.24" y2="142.41"/>
        <g>
          <path d="M703.59,81.27v-17.12h3.46v7.6l6.98-7.6h4.65l-6.45,6.67,6.8,10.45h-4.47l-4.71-8.04-2.8,2.86v5.17h-3.46Z"/>
          <path d="M703.32,100.72l3.36-.33c.2,1.13,.61,1.96,1.23,2.49,.62,.53,1.46,.79,2.51,.79,1.11,0,1.95-.24,2.52-.71,.56-.47,.85-1.02,.85-1.65,0-.41-.12-.75-.36-1.03-.24-.28-.65-.53-1.24-.74-.4-.14-1.33-.39-2.77-.75-1.85-.46-3.15-1.02-3.9-1.69-1.05-.94-1.58-2.09-1.58-3.45,0-.87,.25-1.69,.74-2.45,.49-.76,1.21-1.34,2.14-1.74,.93-.4,2.05-.6,3.37-.6,2.15,0,3.77,.47,4.85,1.41,1.09,.94,1.66,2.2,1.71,3.77l-3.46,.15c-.15-.88-.46-1.51-.95-1.9s-1.22-.58-2.19-.58-1.79,.21-2.36,.62c-.37,.26-.55,.62-.55,1.06,0,.41,.17,.75,.51,1.04,.44,.37,1.5,.75,3.18,1.14,1.68,.4,2.93,.81,3.73,1.23,.81,.42,1.44,1,1.89,1.74,.46,.74,.68,1.64,.68,2.73,0,.98-.27,1.9-.82,2.76-.54,.86-1.32,1.49-2.31,1.91-1,.42-2.24,.62-3.73,.62-2.16,0-3.83-.5-4.99-1.5s-1.85-2.46-2.08-4.37Z"/>
          <path d="M718.98,131.31h-3.76l-1.49-3.89h-6.85l-1.41,3.89h-3.67l6.67-17.12h3.66l6.86,17.12Zm-6.37-6.77l-2.36-6.35-2.31,6.35h4.67Z"/>
        </g>
        <g>
          <path d="M709.75,25.68c-.7,1.5-1.39,2.99-2.1,4.52-1.04-2.25-.8-4.47-.06-6.72-1.79,1.32-3.14,3.01-4.57,4.64-.04,0-.07-.01-.11-.02,.05-.59,.06-1.19,.15-1.77,.25-1.53,1.04-2.79,2.03-3.95,.4-.47,.82-.92,1.22-1.39,.09-.1,.17-.2,.23-.34-1.53,.16-2.85,.88-4.26,1.53,.82-2.59,2.91-3.66,5.17-4.56-.98-.39-1.94-.14-2.9,.06-.01-.04-.03-.06-.02-.07,.96-1.08,2.08-1.87,3.59-1.79,.51,.03,1.02,.23,1.52,.39,.44,.14,.58,.08,.73-.35,.06-.19,.13-.38,.23-.56,.18-.31,.47-.31,.67-.02,.09,.13,.15,.28,.2,.42,.25,.68,.28,.67,.97,.43,.43-.15,.88-.28,1.33-.32,1.16-.09,2.1,.44,2.95,1.15,.24,.2,.46,.42,.66,.68-.99-.15-1.96-.41-3.04-.05,.21,.1,.36,.18,.51,.24,.98,.41,1.95,.84,2.8,1.51,.91,.72,1.7,1.87,1.91,2.82-1.38-.64-2.71-1.36-4.27-1.49,.1,.11,.2,.23,.29,.34,.77,.97,1.61,1.9,2.3,2.92,.82,1.22,1.09,2.63,1.05,4.1,0,.03-.01,.06-.03,.12-.74-.84-1.45-1.67-2.19-2.47-.74-.8-1.48-1.61-2.45-2.22,.76,2.24,.97,4.46-.05,6.71-.72-1.55-1.43-3.06-2.13-4.58-.04,0-.08,.02-.12,.03-.01,.15-.04,.29-.04,.44,0,4.85,0,9.7,.01,14.55,0,.51-.17,.88-.51,1.21-.16,.15-.33,.3-.55,.5-.32-.34-.64-.65-.92-.99-.07-.09-.09-.25-.09-.38,0-4.93,0-9.86,0-14.79,0-.16,0-.33,0-.49-.04,0-.08-.02-.12-.03Z"/>
          <path d="M707.26,47.6c.81-.89,1.65-1.8,2.58-2.81-.23-.18-.46-.33-.64-.52-1.83-1.81-3.69-3.59-5.85-5.03-2.5-1.67-5.25-2.61-8.27-2.74-.33-.01-.67-.04-1.01-.13,.66-.1,1.31-.23,1.97-.29,2.87-.25,5.59,.27,8.13,1.66,1.64,.9,3.07,2.08,4.39,3.4,.72,.72,1.42,1.46,2.12,2.2,.07,.07,.11,.17,.2,.29,.5-.52,.94-.99,1.37-1.44,1.53-1.6,3.13-3.11,5.06-4.23,2.44-1.43,5.08-2.07,7.91-1.9,.78,.05,1.55,.19,2.33,.3,.07,0,.14,.04,.21,.05-.95,.1-1.89,.17-2.83,.31-2.52,.36-4.78,1.37-6.85,2.83-2.12,1.49-3.95,3.29-5.78,5.11-.12,.12-.2,.22-.05,.39,.78,.83,1.55,1.68,2.32,2.52,.02,.02,.06,.03,.1,.06,.13-.14,.25-.28,.38-.42,.26-.28,.58-.4,.96-.41,.46,0,.95,.5,.72,1.01-.09-.02-.19-.06-.28-.04-.25,.05-.54,.07-.75,.21-.38,.24-.37,.44-.07,.77,.57,.6,1.14,1.2,1.88,1.6,.95,.51,1.94,.42,2.59-.26,.13-.13,.24-.3,.32-.47,.11-.24,.25-.23,.42-.09,.36,.29,.43,.71,.4,1.13-.11,1.23-.99,1.99-2.23,2.01-1.25,.01-2.27-.52-3.17-1.33-.48-.44-.96-.88-1.46-1.34-.03,.04-.13,.14-.22,.24-.29,.32-.64,.52-1.09,.48-.55-.05-.84-.57-.58-1.09,.42,.17,.8,.13,1.12-.23,.14-.16,.16-.28,0-.45-.85-.89-1.69-1.79-2.54-2.69-.04-.05-.1-.08-.18-.14-.62,.66-1.24,1.31-1.85,1.96-.27,.29-.52,.58-.8,.86-.18,.18-.15,.33,.01,.48,.24,.23,.51,.35,.85,.28,.32-.07,.45,.07,.38,.4-.11,.52-.69,.79-1.23,.55-.17-.07-.33-.19-.47-.31-.14-.11-.25-.26-.44-.47-.12,.16-.23,.32-.36,.45-.61,.66-1.22,1.32-2.01,1.77-.89,.5-1.83,.74-2.84,.49-1.08-.27-1.77-1.46-1.47-2.5,.04-.15,.11-.3,.21-.42,.23-.3,.4-.27,.58,.06,.49,.9,1.55,1.21,2.6,.77,.73-.3,1.3-.83,1.84-1.38,.08-.08,.17-.15,.23-.24,.12-.17,.35-.46,.3-.52-.19-.23-.45-.4-.7-.57-.05-.04-.15-.01-.23-.01-.14,0-.29-.01-.43-.02,.03-.17,.02-.36,.1-.51,.19-.41,.75-.56,1.2-.31,.31,.18,.58,.45,.89,.7Z"/>
        </g>
      </g>
      <g>
        <polygon class="cls-2" points="360.37 19.22 365.06 23.7 360.57 28.38 355.88 23.9 360.37 19.22"/>
        <polygon class="cls-1" points="371.09 23.9 375.76 28.38 380.25 23.7 375.58 19.22 371.09 23.9"/>
        <polygon class="cls-8" points="364.5 29.78 368.14 33.28 371.64 29.64 367.99 26.14 364.5 29.78"/>
        <polygon class="cls-9" points="377.86 31.78 381.5 35.27 385 31.63 381.36 28.15 377.86 31.78"/>
        <polygon class="cls-8" points="358.53 35.34 362.18 38.83 365.68 35.19 362.04 31.71 358.53 35.34"/>
        <polygon class="cls-7" points="370.77 35.76 374.41 39.26 377.9 35.62 374.26 32.12 370.77 35.76"/>
        <polygon class="cls-9" points="365.99 39.94 368.54 42.4 371.01 39.85 368.44 37.39 365.99 39.94"/>
        <polygon class="cls-6" points="375.66 41.88 378.21 44.33 380.68 41.77 378.11 39.32 375.66 41.88"/>
        <rect class="cls-3" x="397.43" y="21.62" width="8.08" height="8.07" transform="translate(1.95 72.81) rotate(-10.39)"/>
        <rect class="cls-5" x="386.89" y="25.09" width="6.48" height="6.48" transform="translate(1.28 70.73) rotate(-10.38)"/>
        <rect class="cls-7" x="399.26" y="33.98" width="6.49" height="6.48" transform="translate(-.11 73.22) rotate(-10.39)"/>
        <rect class="cls-8" x="390.32" y="35.04" width="5.05" height="5.04" transform="translate(-.34 71.41) rotate(-10.38)"/>
        <rect class="cls-1" x="399.99" y="44.46" width="5.05" height="5.04" transform="translate(-1.88 73.3) rotate(-10.38)"/>
        <rect class="cls-7" x="382.88" y="37.07" width="5.05" height="5.04" transform="translate(-.82 70.1) rotate(-10.38)"/>
        <rect class="cls-9" x="391.9" y="43.56" width="5.05" height="5.04" transform="translate(-1.85 71.83) rotate(-10.38)"/>
        <rect class="cls-1" x="385.45" y="44.32" width="3.55" height="3.54" transform="translate(-1.96 70.57) rotate(-10.39)"/>
        <rect class="cls-6" x="392.18" y="51.53" width="3.55" height="3.54" transform="translate(-3.16 71.7) rotate(-10.36)"/>
        <polygon class="cls-2" points="420.42 48.41 416.95 55.7 424.25 59.17 427.72 51.89 420.42 48.41"/>
        <polygon class="cls-7" points="410.06 45.05 407.27 50.89 413.12 53.68 415.91 47.83 410.06 45.05"/>
        <polygon class="cls-9" points="414.85 59.45 412.06 65.29 417.92 68.07 420.71 62.24 414.85 59.45"/>
        <polygon class="cls-8" points="407.17 55.06 405 59.62 409.56 61.78 411.74 57.23 407.17 55.06"/>
        <polygon class="cls-8" points="409.49 68.35 407.32 72.9 411.88 75.07 414.05 70.51 409.49 68.35"/>
        <polygon class="cls-3" points="399.95 52.35 397.78 56.91 402.34 59.07 404.52 54.52 399.95 52.35"/>
        <polygon class="cls-1" points="403.46 62.88 401.29 67.44 405.85 69.6 408.02 65.05 403.46 62.88"/>
        <polygon class="cls-9" points="397.98 59.68 396.45 62.88 399.66 64.4 401.18 61.2 397.98 59.68"/>
        <rect class="cls-7" x="398.28" y="70.02" width="3.54" height="3.55" transform="translate(163.32 402.18) rotate(-64.55)"/>
        <polygon class="cls-3" points="424.35 83.32 417.27 87.19 421.16 94.26 428.24 90.39 424.35 83.32"/>
        <polygon class="cls-7" points="417.92 74.53 412.23 77.65 415.36 83.32 421.04 80.2 417.92 74.53"/>
        <polygon class="cls-7" points="413.37 89.01 407.68 92.13 410.8 97.8 416.49 94.68 413.37 89.01"/>
        <polygon class="cls-2" points="409.72 80.97 405.28 83.39 407.71 87.81 412.15 85.39 409.72 80.97"/>
        <polygon class="cls-6" points="403.8 93.09 399.38 95.52 401.81 99.94 406.23 97.52 403.8 93.09"/>
        <polygon class="cls-5" points="405.45 74.56 401.02 76.98 403.44 81.4 407.88 78.97 405.45 74.56"/>
        <polygon class="cls-8" points="402.12 85.15 397.69 87.57 400.11 91.99 404.55 89.56 402.12 85.15"/>
        <polygon class="cls-1" points="399.55 79.34 396.44 81.04 398.15 84.15 401.26 82.45 399.55 79.34"/>
        <polygon class="cls-7" points="394.81 87.97 391.69 89.68 393.41 92.78 396.52 91.08 394.81 87.97"/>
        <rect class="cls-9" x="398.55" y="113.33" width="8.07" height="8.08" transform="translate(236.74 502.54) rotate(-82.96)"/>
        <rect class="cls-5" x="400.17" y="102.61" width="6.48" height="6.49" transform="translate(248.74 493.18) rotate(-82.93)"/>
        <rect class="cls-7" x="388" y="111.7" width="6.48" height="6.49" transform="translate(229.04 489.07) rotate(-82.93)"/>
        <rect class="cls-9" x="391.25" y="103.16" width="5.04" height="5.05" transform="translate(240.56 483.51) rotate(-82.95)"/>
        <rect class="cls-1" x="379.35" y="109.54" width="5.04" height="5.05" transform="translate(223.79 477.3) rotate(-82.95)"/>
        <rect class="cls-1" x="391.56" y="95.45" width="5.04" height="5.05" transform="translate(248.37 477.01) rotate(-82.93)"/>
        <rect class="cls-9" x="382.65" y="102.08" width="5.04" height="5.05" transform="translate(233.98 473.99) rotate(-82.93)"/>
        <rect class="cls-1" x="385.55" y="95.99" width="3.54" height="3.55" transform="translate(242.73 470.15) rotate(-82.95)"/>
        <rect class="cls-1" x="376.63" y="100.23" width="3.54" height="3.55" transform="translate(230.74 465.03) rotate(-82.95)"/>
        <polygon class="cls-8" points="375.15 128.64 369.23 123.15 363.72 129.06 369.64 134.55 375.15 128.64"/>
        <polygon class="cls-9" points="374.06 15.6 368.13 10.11 362.63 16.03 368.56 21.52 374.06 15.6"/>
        <polygon class="cls-7" points="381.47 119.78 376.72 115.37 372.31 120.12 377.06 124.52 381.47 119.78"/>
        <polygon class="cls-9" points="366.28 120.03 361.51 115.63 357.1 120.37 361.86 124.77 366.28 120.03"/>
        <polygon class="cls-3" points="372.76 114.04 369.06 110.6 365.63 114.3 369.33 117.73 372.76 114.04"/>
        <polygon class="cls-8" points="359.37 112.26 355.67 108.83 352.23 112.52 355.94 115.96 359.37 112.26"/>
        <polygon class="cls-8" points="377.51 107.97 373.82 104.54 370.38 108.23 374.08 111.67 377.51 107.97"/>
        <rect class="cls-1" x="360.3" y="105.77" width="5.04" height="5.04" transform="translate(36.78 300.81) rotate(-47.18)"/>
        <polygon class="cls-5" points="371.11 103.9 368.5 101.48 366.08 104.08 368.69 106.49 371.11 103.9"/>
        <polygon class="cls-1" points="361.41 102.12 358.8 99.71 356.38 102.31 358.99 104.72 361.41 102.12"/>
        <rect class="cls-3" x="331.82" y="114.74" width="8.08" height="8.07" transform="translate(-16.79 68.31) rotate(-11.33)"/>
        <rect class="cls-7" x="343.87" y="112.65" width="6.48" height="6.48" transform="translate(-16 70.43) rotate(-11.33)"/>
        <rect class="cls-9" x="331.43" y="104" width="6.49" height="6.48" transform="translate(-14.55 67.92) rotate(-11.34)"/>
        <rect class="cls-8" x="341.72" y="104.19" width="5.05" height="5.04" transform="translate(-14.25 69.69) rotate(-11.33)"/>
        <rect class="cls-2" x="349.14" y="102.04" width="5.05" height="5.04" transform="translate(-13.69 71.1) rotate(-11.33)"/>
        <rect class="cls-3" x="340.02" y="95.7" width="5.05" height="5.04" transform="translate(-12.62 69.19) rotate(-11.33)"/>
        <rect class="cls-9" x="347.98" y="96.37" width="3.55" height="3.54" transform="translate(-12.46 70.53) rotate(-11.31)"/>
        <rect class="cls-1" x="341.17" y="89.25" width="3.55" height="3.54" transform="translate(-11.2 69.23) rotate(-11.34)"/>
        <polygon class="cls-7" points="316.53 96.33 319.89 88.98 312.53 85.64 309.18 92.98 316.53 96.33"/>
        <polygon class="cls-8" points="326.96 99.52 329.64 93.64 323.75 90.94 321.05 96.84 326.96 99.52"/>
        <polygon class="cls-3" points="321.93 85.2 324.62 79.31 318.71 76.63 316.02 82.52 321.93 85.2"/>
        <rect class="cls-7" x="325.88" y="83.58" width="5.04" height="5.05" transform="translate(113.8 349.19) rotate(-65.49)"/>
        <rect class="cls-1" x="332.05" y="95.07" width="5.04" height="5.05" transform="translate(107.03 361.58) rotate(-65.5)"/>
        <rect class="cls-2" x="323.38" y="70.35" width="5.04" height="5.05" transform="translate(124.32 339.12) rotate(-65.47)"/>
        <rect class="cls-6" x="333.18" y="86.19" width="5.04" height="5.05" transform="translate(115.65 357.31) rotate(-65.47)"/>
        <rect class="cls-8" x="329.48" y="75.74" width="5.04" height="5.05" transform="translate(122.89 347.75) rotate(-65.45)"/>
        <polygon class="cls-5" points="338.79 84.69 340.27 81.47 337.04 80 335.55 83.23 338.79 84.69"/>
        <polygon class="cls-9" points="337.41 74.95 338.88 71.72 335.65 70.25 334.18 73.48 337.41 74.95"/>
        <polygon class="cls-7" points="312.02 61.5 319.05 57.5 315.04 50.5 308.02 54.49 312.02 61.5"/>
        <polygon class="cls-9" points="318.6 70.17 324.24 66.97 321.02 61.35 315.38 64.55 318.6 70.17"/>
        <polygon class="cls-5" points="322.91 55.63 328.55 52.42 325.33 46.8 319.7 50 322.91 55.63"/>
        <polygon class="cls-3" points="326.7 63.6 331.08 61.1 328.59 56.73 324.2 59.23 326.7 63.6"/>
        <polygon class="cls-9" points="332.41 51.39 336.79 48.89 334.3 44.5 329.9 47 332.41 51.39"/>
        <polygon class="cls-7" points="331.07 69.94 335.46 67.44 332.96 63.07 328.57 65.57 331.07 69.94"/>
        <polygon class="cls-8" points="334.23 59.3 338.61 56.81 336.12 52.42 331.72 54.93 334.23 59.3"/>
        <polygon class="cls-1" points="336.89 65.06 339.98 63.31 338.22 60.23 335.13 61.98 336.89 65.06"/>
        <polygon class="cls-9" points="341.49 56.36 344.58 54.6 342.81 51.52 339.73 53.27 341.49 56.36"/>
        <rect class="cls-9" x="329.18" y="23.01" width="8.07" height="8.08" transform="translate(270.89 355.51) rotate(-83.9)"/>
        <rect class="cls-1" x="329.35" y="35.39" width="6.48" height="6.48" transform="translate(258.79 365.21) rotate(-83.89)"/>
        <rect class="cls-7" x="341.38" y="26.11" width="6.48" height="6.48" transform="translate(278.77 368.9) rotate(-83.89)"/>
        <rect class="cls-8" x="339.71" y="36.15" width="5.04" height="5.05" transform="translate(267.33 374.84) rotate(-83.89)"/>
        <rect class="cls-3" x="351.51" y="29.52" width="5.04" height="5.05" transform="translate(284.6 380.69) rotate(-83.91)"/>
        <rect class="cls-7" x="339.54" y="43.84" width="5.04" height="5.05" transform="translate(259.53 381.54) rotate(-83.89)"/>
        <rect class="cls-9" x="348.33" y="37.05" width="5.04" height="5.05" transform="translate(274.14 384.22) rotate(-83.89)"/>
        <rect class="cls-5" x="347.04" y="44.7" width="3.54" height="3.55" transform="translate(265.49 388.36) rotate(-83.89)"/>
        <rect class="cls-1" x="355.87" y="40.31" width="3.54" height="3.55" transform="translate(277.96 393.27) rotate(-83.93)"/>
        <path class="cls-10" d="M393.84,77.29c-.6-.34-1.69-.91-3.2-1.38-2.18-.7-5.22-1.22-8.82-.65-1.21,.19-2.49,.51-3.81,.99-.13,.05-.25,.09-.38,.14-.68,.25-1.35,.56-2.02,.9-.58,.29-1.15,.61-1.72,.96-1.31,.78-2.59,1.67-3.84,2.64-1.42-8.6-.73-16.59-.4-20.51,0-.02,.03-.03,.05-.02,3.05,1.92,2.2,7.27,1.55,8.81,0,.03,.03,.05,.06,.03,3.79-4.48,1.95-9.44,1.16-10.69-.02-.03,.02-.06,.05-.04,.55,.45,1,.92,1.37,1.4,1.17,1.5,1.61,3.12,1.72,4.55,.06,.75,.04,1.45,0,2.05,0,.16-.02,.31-.04,.45,0,.02,.02,.03,.04,.02,0,0,.02,0,.02,0,1.03-2.01,1.52-5.05-.02-8-.42-.8-.98-1.6-1.72-2.36-.21-.22-.45-.44-.69-.66-.02-.02,0-.06,.03-.05,.23,.06,.45,.13,.66,.19,.65,.22,1.22,.53,1.72,.91,1.15,.85,1.94,2.01,2.4,3.23,.39,1.01,.56,2.04,.56,2.96,0,.04,.05,.04,.06,0,.72-2.62,.28-4.61-.62-6.05-.64-1.04-1.52-1.79-2.4-2.32-.6-.36-1.2-.61-1.72-.76-.31-.1-.58-.15-.82-.18-.04,0-.03-.06,0-.06,.28-.03,.55-.04,.81-.05,.64,0,1.21,.05,1.72,.14,1.02,.19,1.81,.54,2.4,.95,.97,.65,1.45,1.41,1.62,1.72,0,.03,.06,0,.06-.02-.14-1.38-.77-2.47-1.66-3.24-.69-.6-1.53-1.02-2.4-1.27-.57-.15-1.15-.24-1.72-.25-.77,0-1.52,.12-2.15,.39-.03,0-.05-.02-.04-.05,.56-.8,1.36-1.29,2.19-1.55,.58-.17,1.17-.24,1.72-.2,.53,.03,1.02,.15,1.41,.33,.03,0,.05-.02,.03-.05-.44-.49-.93-.88-1.44-1.17-.55-.31-1.13-.49-1.72-.56-1.54-.17-3.11,.48-4.15,2.06,0,.02-.04,.02-.05,0-.2-.36-.4-.75-.57-1.17-.42-.97-.75-2.05-.94-3.14,0-.04-.05-.04-.05,0-.18,1.08-.53,2.18-.95,3.15-.18,.42-.37,.8-.57,1.15,0,.02-.04,.02-.05,0-1.82-2.76-5.24-2.7-7.32-.32-.02,.02,0,.06,.03,.05,1.38-.66,4.01-.46,5.32,1.42,.02,.03,0,.06-.04,.05-2.02-.85-5.16-.3-6.83,1.69-.6,.71-1.01,1.61-1.11,2.68,0,.03,.04,.05,.06,.02,.13-.24,.45-.76,1.06-1.3,.98-.86,2.68-1.73,5.5-1.47,.04,0,.04,.06,0,.06-1.44,.17-4.41,1.46-5.51,4.4-.48,1.3-.61,2.92-.07,4.92,0,.03,.06,.03,.06,0,0-.05,0-.09,0-.14,.03-2.67,1.56-6.25,5.34-7.16,.03,0,.05,.03,.03,.05-4.23,3.72-3.81,8.3-2.43,11.01,.02,.03,.06,.02,.06,0-.18-2.05-.33-5.7,3.06-8.46,.03-.02,.07,0,.05,.04-.78,1.26-2.63,6.2,1.16,10.69,.02,.03,.07,0,.06-.03-.64-1.53-1.49-6.89,1.55-8.81,.02,0,.05,0,.05,.02,.33,3.92,1.03,11.91-.4,20.51-2.45-1.88-5.03-3.52-7.59-4.49-.32-.12-.63-.22-.93-.33-2.64-.87-5.06-1.11-7.17-1.02-3.39,.15-5.98,1.16-7.4,1.87-.29,.15-.53,.28-.72,.39-.08,.05-.02,.15,.06,.13,.22-.07,.44-.14,.66-.19,2.6-.74,5.07-.93,7.4-.73,2.55,.22,4.94,.92,7.17,1.93,3.14,1.41,5.97,3.43,8.54,5.56-3.62,3.16-6.68,6.22-8.54,7.3-.1,.05-.18,.11-.27,.15-.45-.61-1.22-.96-2.06-.77-.74,.16-1.34,.75-1.5,1.48-.15,.65,.02,1.36,.39,1.72,.99,.99,2.13,1.06,3.45,.5,2.51-1.06,5.62-4.37,9.45-7.87,.32-.29,.64-.59,.97-.88,.33,.29,.65,.58,.97,.87,1.73,1.59,3.32,3.14,4.77,4.45,.6,.54,1.17,1.05,1.72,1.49,.85,.7,1.66,1.27,2.4,1.66,1.46,.77,2.73,.87,3.81-.09,.06-.05,.12-.1,.17-.15,.25-.25,.54-1.07,.39-1.72-.09-.38-.29-.72-.57-.98-.25-.24-.58-.43-.93-.5-.84-.18-1.62,.16-2.06,.77-.25-.13-.52-.3-.82-.5-.69-.47-1.49-1.14-2.4-1.94-.54-.47-1.11-1-1.72-1.55-1.18-1.07-2.48-2.26-3.85-3.47,1.22-1.02,2.51-2,3.85-2.91,.56-.38,1.13-.75,1.72-1.09,.78-.46,1.58-.89,2.4-1.29,1.23-.59,2.5-1.08,3.81-1.46,2.73-.78,5.66-1.05,8.82-.54,1.03,.16,2.07,.41,3.15,.74,.08,.05,.14-.06,.06-.11"/>
      </g>
    </g>
  </g>
</svg>