<?xml version="1.0" encoding="UTF-8"?>
<svg id="Layer_2" data-name="Layer 2" xmlns="http://www.w3.org/2000/svg" viewBox="0 0 736.26 159.5">
  <defs>
    <style>
      .cls-1 {
        fill: #015093;
      }

      .cls-2 {
        fill: #d9d7e2;
      }

      .cls-3 {
        fill: #8a7e72;
      }
    </style>
  </defs>
  <g id="Layer_1-2" data-name="Layer 1">
    <g>
      <g>
        <g>
          <rect class="cls-2" x="2.09" y="2.09" width="732.08" height="155.33" rx="15" ry="15"/>
          <rect class="cls-2" x="2.09" y="2.09" width="732.08" height="155.33" rx="15" ry="15"/>
          <path d="M719.17,159.5H17.09c-9.42,0-17.09-7.67-17.09-17.09V17.09C0,7.67,7.67,0,17.09,0H719.17c9.42,0,17.09,7.67,17.09,17.09v125.33c0,9.42-7.67,17.09-17.09,17.09ZM17.09,4.18c-7.12,0-12.91,5.79-12.91,12.91v125.33c0,7.12,5.79,12.91,12.91,12.91H719.17c7.12,0,12.91-5.79,12.91-12.91V17.09c0-7.12-5.79-12.91-12.91-12.91H17.09Z"/>
        </g>
        <rect x="2.09" y="77.66" width="732.09" height="4.18"/>
        <rect class="cls-1" x="312.15" y="2.08" width="111.96" height="155.33"/>
        <rect x="422.02" y="2.09" width="4.18" height="155.33"/>
        <rect x="310.06" y="2.09" width="4.18" height="155.33"/>
        <g>
          <path d="M719.17,159.5H17.09c-9.42,0-17.09-7.67-17.09-17.09V17.09C0,7.67,7.67,0,17.09,0H719.17c9.42,0,17.09,7.67,17.09,17.09v125.33c0,9.42-7.67,17.09-17.09,17.09ZM17.09,4.18c-7.12,0-12.91,5.79-12.91,12.91v125.33c0,7.12,5.79,12.91,12.91,12.91H719.17c7.12,0,12.91-5.79,12.91-12.91V17.09c0-7.12-5.79-12.91-12.91-12.91H17.09Z"/>
          <path d="M719.17,159.5H17.09c-9.42,0-17.09-7.67-17.09-17.09V17.09C0,7.67,7.67,0,17.09,0H719.17c9.42,0,17.09,7.67,17.09,17.09v125.33c0,9.42-7.67,17.09-17.09,17.09ZM17.09,4.18c-7.12,0-12.91,5.79-12.91,12.91v125.33c0,7.12,5.79,12.91,12.91,12.91H719.17c7.12,0,12.91-5.79,12.91-12.91V17.09c0-7.12-5.79-12.91-12.91-12.91H17.09Z"/>
          <path d="M719.17,159.5H17.09c-9.42,0-17.09-7.67-17.09-17.09V17.09C0,7.67,7.67,0,17.09,0H719.17c9.42,0,17.09,7.67,17.09,17.09v125.33c0,9.42-7.67,17.09-17.09,17.09ZM17.09,4.18c-7.12,0-12.91,5.79-12.91,12.91v125.33c0,7.12,5.79,12.91,12.91,12.91H719.17c7.12,0,12.91-5.79,12.91-12.91V17.09c0-7.12-5.79-12.91-12.91-12.91H17.09Z"/>
        </g>
        <g>
          <path d="M319.11,4.17h-13.91c2.69,0,4.87,2.18,4.87,4.87v63.75c0,2.69-2.18,4.87-4.87,4.87H4.18v4.17H305.2c2.69,0,4.87,2.18,4.87,4.87v63.75c0,2.69-2.18,4.87-4.87,4.87h13.91c-2.69,0-4.87-2.18-4.87-4.87V9.04c0-2.69,2.18-4.87,4.87-4.87Z"/>
          <path d="M426.2,72.79V9.04c0-2.69,2.18-4.87,4.87-4.87h-13.91c2.69,0,4.87,2.18,4.87,4.87V150.45c0,2.69-2.18,4.87-4.87,4.87h13.91c-2.69,0-4.87-2.18-4.87-4.87v-63.75c0-2.69,2.18-4.87,4.87-4.87h301.02v-4.17H431.07c-2.69,0-4.87-2.18-4.87-4.87Z"/>
        </g>
        <rect class="cls-3" x="333.29" y="123.82" width="35.59" height="19.24"/>
      </g>
      <g>
        <g>
          <path d="M339.98,103.51v-18.92h3.82v8.4l7.72-8.4h5.14l-7.13,7.37,7.51,11.55h-4.94l-5.2-8.88-3.1,3.16v5.72h-3.82Z"/>
          <path d="M360.7,97.35l3.72-.36c.22,1.25,.68,2.16,1.36,2.75,.68,.58,1.61,.88,2.77,.88,1.23,0,2.16-.26,2.78-.78s.94-1.13,.94-1.83c0-.45-.13-.83-.39-1.14s-.72-.59-1.37-.82c-.45-.15-1.47-.43-3.06-.83-2.05-.51-3.49-1.13-4.31-1.87-1.16-1.04-1.74-2.31-1.74-3.81,0-.96,.27-1.87,.82-2.7,.55-.84,1.33-1.48,2.36-1.92,1.03-.44,2.27-.66,3.72-.66,2.38,0,4.16,.52,5.36,1.56,1.2,1.04,1.83,2.43,1.89,4.17l-3.82,.17c-.16-.97-.51-1.67-1.05-2.1-.54-.43-1.34-.64-2.42-.64s-1.98,.23-2.61,.68c-.4,.29-.61,.68-.61,1.17,0,.45,.19,.83,.57,1.15,.48,.4,1.65,.83,3.51,1.27,1.86,.44,3.23,.89,4.12,1.36,.89,.47,1.59,1.11,2.09,1.92,.5,.81,.75,1.82,.75,3.01,0,1.08-.3,2.1-.9,3.05s-1.45,1.65-2.56,2.11c-1.1,.46-2.47,.69-4.12,.69-2.39,0-4.23-.55-5.51-1.66-1.28-1.11-2.05-2.72-2.3-4.83Z"/>
          <path d="M399.01,103.51h-4.16l-1.65-4.3h-7.57l-1.56,4.3h-4.05l7.37-18.92h4.04l7.58,18.92Zm-7.04-7.49l-2.61-7.02-2.56,7.02h5.16Z"/>
        </g>
        <g>
          <path d="M394.97,67.08c-.09-.07-.18-.14-.27-.21-.5-.33-.75-.8-.74-1.4,0-.2-.03-.4-.04-.6-.04,0-.07-.01-.11-.02-.63,.72-1.2,1.48-1.57,2.37-.11,.25-.04,.48,.12,.68,.2,.26,.25,.55,.26,.87,.04,1.1,.1,2.21,.15,3.31,.02,.52,.04,1.04,.03,1.56,0,.35-.09,.43-.43,.44-.23,0-.46,0-.68,0-.55,0-1.11,.03-1.66-.03-.8-.09-.86-.39-.78-.94,.11-.8,.02-1.59-.15-2.37-.05-.26-.1-.54-.42-.79-.06,.1-.12,.19-.18,.29-.34,.53-.69,1.07-1.04,1.59-.1,.16-.07,.29-.04,.46,.08,.46,.14,.93,.2,1.39,.02,.18-.04,.31-.23,.38-.7,.25-1.37-.09-1.56-.82-.03-.12-.05-.25-.07-.38-.06-.55-.12-1.1-.19-1.65-.02-.15-.08-.3-.14-.53-.16,.16-.28,.25-.36,.36-.21,.29-.4,.6-.62,.87-.37,.46-.56,.94-.35,1.53,.02,.06,.02,.13,.02,.19,.02,.33-.03,.42-.37,.44-.41,.02-.81,.02-1.22,.01-.42-.01-.58-.13-.67-.56-.12-.57-.2-1.15-.3-1.73-.04-.23-.08-.46-.13-.68-.04,0-.08-.02-.12-.02-.36,.47-.72,.95-1.09,1.42-.19,.25-.27,.51-.22,.82,.02,.11,.02,.23,.04,.34,.05,.23-.06,.34-.27,.38-.11,.02-.22,.04-.34,.04-2.36,0-.62,0-2.98,0-.18,0-.37-.05-.56-.08,.22-.48,.44-.9,.6-1.34,.39-1.13-.19-2.23-1.34-2.55-.96-.27-1.9-.14-2.82,.2-.16,.06-.32,.18-.42,.32-.46,.59-.72,1.28-.99,2.01,.91,.14,1.69,.4,2.12,1.39-2.09,.11-2.05,.04-4.06,.06-.12-.46-.21-.87-.32-1.28-.16-.59-.41-1.13-.84-1.57-.72-.74-1.58-.76-2.33-.07-.77,.72-1.26,1.61-1.51,2.62-.08,.31-.12,.64-.1,.96,.04,.69,.39,1.2,1.03,1.47,.22,.1,.46,.15,.7,.21,.33,.08,.66,.13,1.04,.21-.86,1.02-1.87,1.51-3.16,1.31-.4-.06-.79-.2-1.18-.31-.15-.04-.3-.08-.54-.15,.09,.19,.11,.3,.17,.37,.72,.79,1.53,1.45,2.55,1.84,.75,.29,1.47,.19,2.14-.25,.49-.31,.86-.74,1.19-1.21,.41-.57,.69-1.21,.9-1.93,.18,0,.36,0,.53,0,1.35,0,.65,0,2,0,1,0,1.99-.07,2.85-.77,.36,.68,.99,.7,1.61,.76,.23,.02,.46,.01,.68,.01,2.18,0,.26,0,2.44,0,.66,0,1.31-.02,1.77-.5,.37,.15,.69,.36,1.03,.4,1.11,.15,2.23,.3,3.2-.55,.43,.47,1,.58,1.6,.63,.63,.05,1.25,.09,1.61-.62,.44,.35,.91,.58,1.41,.59,.96,.03,1.92,.03,2.87,0,1-.04,1.54-.65,1.82-1.56,.21-.67,.34-1.36,.33-2.06-.02-1.14-.04-2.27-.07-3.41,0-.25,.04-.47,.16-.7,.18-.33,.32-.68,.49-1.01,.1-.2,.05-.34-.11-.47Zm-29.03,7.33c-.32-.16-.41-.38-.33-.73,.02-.08,.04-.16,.07-.23,.13-.27,.29-.54,.61-.58,.33-.04,.48,.24,.61,.48,.22,.36,.33,.77,.37,1.23-.51,.1-.93,.03-1.33-.17Z"/>
          <path d="M350.43,69.88c-.41,.69-.81,1.36-1.2,2.02,.74,1.13,.93,1.61,.83,2.16-.04,.01-.09,.03-.14,.03-1.77,0-1.49,0-3.27,0-.33,0-.57-.16-.66-.47-.11-.39-.23-.79-.24-1.19-.04-.99-.03-1.98-.04-2.97,0-.14,0-.28,0-.47-.5,.2-.81,.53-1.17,.8-.33,.25-.57,.54-.48,.97-.75,.42-1.46,.78-2.13,1.2-.29,.18-.59,.44-.76,.73-.41,.68-.76,1.4-1.11,2.11-.17,.35-.11,.47,.25,.58,1.05,.3,2.12,.51,3.21,.58,.22,.01,.37-.06,.49-.24,.12-.19,.26-.36,.41-.55,.48,.88,.93,1.16,1.93,1.17,1.8,0,1.56,.01,3.36,0,.27,0,.55-.05,.81-.12,.41-.12,.7-.39,.87-.79,.68-1.6,.62-3.16-.19-4.69-.17-.32-.37-.64-.78-.85Zm-7.93,3.66c.52-.44,1.02-.72,1.61-.97,.05,.51,.1,.97,.14,1.47-.65,0-1.17-.19-1.76-.5Z"/>
          <path d="M357.82,69.28c-.19-.08-.4-.1-.61-.15-.35,.74-.73,1.41-1,2.2,1.45,.43,2.51,1.22,2.94,2.78-1.45-.09-2.84,.16-4.3-.25-.15,.51-.31,.99-.42,1.47-.19,.8-.07,.97,.75,1,1.18,.05,2.37,.04,3.56,.05,.29,0,.58-.05,.87-.08,.3-.03,.52-.16,.62-.46,.19-.58,.41-1.16,.58-1.75,.14-.46,.13-.94,0-1.4-.44-1.62-1.44-2.77-2.99-3.42Z"/>
          <path d="M398.93,65.37s-.07-.05-.11-.08c-.11,.1-.24,.18-.34,.3-.31,.36-.59,.73-.91,1.08-.37,.41-.51,.86-.48,1.42,.09,1.65,.14,3.31,.18,4.96,.03,.99,0,1.98,.01,2.97,0,.12,.03,.23,.06,.45,.19-.18,.3-.28,.41-.4,.77-.88,1.17-1.9,1.19-3.07,.03-1.64,.06-3.28,.07-4.92,0-.91-.05-1.81-.08-2.72Z"/>
          <path d="M350.24,77.41c-.39,.38-.74,.73-1.11,1.09-.43-.38-.83-.73-1.25-1.1-.44,.47-.85,.91-1.27,1.36,.53,.67,1.09,1.17,1.46,1.31,.34-.34,.69-.68,1.05-1.03,.43,.37,.81,.71,1.23,1.08,.46-.49,.87-.94,1.31-1.41-.45-.5-.93-.88-1.42-1.29Z"/>
          <path d="M343.51,67.17c.4,.37,.79,.73,1.2,1.1,.47-.47,.93-.89,1.35-1.45-.48-.44-.93-.85-1.41-1.28-.4,.39-.77,.74-1.13,1.09-.44-.37-.84-.7-1.26-1.06-.44,.47-.84,.91-1.28,1.38,.49,.46,.93,.88,1.39,1.31,.39-.38,.75-.73,1.15-1.11Z"/>
        </g>
        <g>
          <path d="M371.44,22.45c.73-.18,1.48-.3,2.23-.23,1.66,.15,3.01,.84,3.84,2.35,.19,.34,.3,.7,.31,1.13-1.62-1.36-3.4-2.2-5.53-2.16l-.02,.05c.08,.02,.16,.05,.23,.07,1.29,.38,2.35,1.09,3.08,2.23,.44,.68,.63,1.43,.55,2.24,0,.07-.03,.14-.05,.27-.46-.89-1.02-1.66-1.74-2.29-.71-.63-1.48-1.16-2.37-1.44,.36,.38,.76,.75,1.11,1.17,.74,.89,1.19,1.9,1.17,3.08,0,.37-.08,.72-.24,1.08-.82-1.89-1.84-3.6-3.55-4.8,.13,.17,.26,.35,.38,.53,.5,.74,.91,1.52,1.08,2.4,.16,.84,.12,1.67-.25,2.46-.01,.03-.03,.06-.04,.09,0,.01-.02,.02-.03,.03-.58-1.89-1.15-3.77-2.31-5.4-.02,0-.05,.02-.07,.02,.12,.69,.25,1.38,.37,2.08,.08,.44,.17,.88,.25,1.31,.05,.28-.02,.36-.31,.36-.24,0-.48,0-.77,0,.05,.12,.07,.23,.13,.28,.18,.13,.29,.27,.23,.49,.36,.08,.37,.08,.3,.43-.08,.45-.17,.9-.25,1.35,.38,.09,.37,.09,.3,.48-.09,.45-.17,.91-.25,1.37,.37,.08,.37,.08,.3,.46-.09,.46-.17,.93-.25,1.39,.01,.01,.02,.03,.03,.03q.35,.04,.29,.39c-.09,.52-.18,1.03-.27,1.54,.02,.01,.03,.03,.05,.03,.35,.04,.36,.04,.3,.39-.07,.45-.15,.91-.22,1.36-.01,.06-.02,.13-.02,.2,.04,.01,.07,.02,.1,.02,.41-.01,.34,.09,.3,.35-.07,.53-.15,1.07-.23,1.6-.01,.1-.02,.2-.04,.33h4.31c-.4,.36-.81,.68-1.15,1.06-.34,.37-.63,.8-.96,1.24-.17-.33-.33-.64-.51-.97-.3,.29-.58,.57-.86,.84-.17,.17-.24,.17-.37-.03-.15-.22-.3-.44-.47-.68-.28,.24-.54,.48-.8,.71-.2,.18-.25,.18-.4-.04-.15-.22-.3-.44-.47-.68-.23,.19-.45,.37-.66,.55-.46,.39-.4,.45-.76-.12-.1-.16-.21-.32-.34-.51-.22,.19-.42,.36-.62,.53-.23,.2-.3,.19-.47-.06-.46-.66-.98-1.26-1.66-1.7-.03-.02-.05-.04-.12-.11h4.41c-.06-.47-.12-.9-.18-1.34-.03-.23-.07-.46-.1-.69-.03-.23-.01-.25,.22-.26,.05,0,.1,0,.19-.02-.05-.3-.09-.58-.14-.87-.04-.26-.09-.52-.14-.79-.04-.25-.02-.29,.24-.31,.03,0,.05,0,.08,0,.01,0,.02-.01,.04-.02-.09-.51-.18-1.03-.27-1.54-.06-.36-.06-.36,.33-.4-.05-.27-.09-.54-.14-.81-.04-.25-.1-.5-.14-.74-.04-.24-.01-.27,.24-.28,.03,0,.05,0,.1-.01-.06-.35-.13-.69-.19-1.03-.03-.16-.06-.33-.09-.49-.05-.25-.03-.28,.22-.3,.03,0,.06-.01,.12-.02-.09-.46-.17-.9-.26-1.35-.06-.34-.04-.37,.3-.43-.05-.23,.04-.38,.25-.49,.07-.04,.09-.15,.17-.28-.32,0-.57,0-.82,0-.33,0-.38-.06-.32-.38,.2-1.09,.39-2.18,.59-3.27,0-.03,0-.06,.02-.16-.11,.13-.2,.22-.27,.32-.49,.67-.83,1.41-1.13,2.17-.37,.97-.71,1.94-1.07,2.92-.06-.14-.13-.3-.18-.46-.3-.97-.2-1.92,.15-2.85,.3-.8,.74-1.53,1.3-2.2-.42,.1-1.5,1.17-2.18,2.13-.59,.84-1.11,1.72-1.48,2.72-.18-.35-.24-.71-.25-1.06-.02-1.22,.45-2.25,1.22-3.16,.32-.38,.67-.73,.96-1.05-.81,.26-1.57,.78-2.27,1.4-.71,.62-1.25,1.37-1.71,2.24-.02-.07-.04-.11-.05-.15-.14-.87,.09-1.65,.56-2.37,.75-1.15,1.82-1.86,3.14-2.21,.05-.01,.1-.03,.14-.06-1.04-.08-2.02,.13-2.98,.51-.95,.38-1.81,.91-2.62,1.62,.07-.69,.32-1.26,.72-1.75,.82-1,1.9-1.54,3.17-1.71,.85-.12,1.68,0,2.51,.21,.03,0,.06,.01,.09,0-1.96-1.31-4.04-1.16-6.23-.46,.12-.21,.2-.4,.32-.56,.47-.63,1.12-.96,1.86-1.15,1.15-.28,2.24-.05,3.29,.44,.31,.14,.6,.32,.88,.47-.17-.38-1.14-1.13-2.09-1.59-.81-.39-1.66-.63-2.59-.74,.3-.33,.63-.51,1.03-.58,.89-.16,1.71,.06,2.5,.47,.89,.45,1.62,1.09,2.26,1.84,.04,.05,.09,.1,.14,.13-.71-1.72-1.93-2.93-3.7-3.6,.22-.2,.45-.27,.71-.3,.62-.07,1.17,.14,1.67,.47,.5,.32,.91,.73,1.27,1.2,.04,.05,.08,.1,.13,.15,0,0,.02,0,.05,.02-.18-.59-.46-1.13-.81-1.62-.09-.13-.18-.26-.29-.38-.12-.14-.08-.24,.06-.29,.32-.12,.64-.25,.98-.34,.22-.06,.46-.08,.69-.1,.24-.02,.28,.03,.33,.27,.12,.55,.26,1.1,.39,1.65,.01,.04,.04,.08,.06,.12,.02,0,.04,0,.06,0,.12-.5,.24-1,.36-1.51,.02-.06,.03-.13,.04-.2,.05-.33,.09-.37,.42-.35,.54,.04,1.05,.17,1.53,.41,.21,.11,.22,.16,.07,.34-.42,.52-.75,1.1-1,1.72-.03,.08-.06,.16-.1,.29,.25-.28,.45-.54,.67-.77,.45-.47,.96-.84,1.59-1.03,.43-.13,.85-.14,1.26,.08,.07,.04,.13,.09,.22,.15-1.77,.7-2.99,1.9-3.68,3.64,.2-.22,.39-.45,.6-.66,.83-.86,1.79-1.5,2.97-1.78,.65-.15,1.3-.15,1.89,.21,.13,.08,.25,.19,.43,.33-1.86,.28-3.47,.94-4.69,2.36,.04-.02,.08-.04,.12-.07,1-.63,2.07-1.05,3.27-.97,1.02,.06,1.94,.38,2.59,1.25,.12,.16,.2,.35,.33,.57-2.16-.73-4.22-.84-6.16,.45Z"/>
          <path d="M373.41,52.95c.14-.16,.26-.28,.35-.42,.04-.06,.02-.17,0-.25-.07-.35,.06-.7,.34-.87,.31-.19,.67-.16,.94,.07,.25,.22,.34,.59,.21,.91-.13,.32-.43,.53-.77,.48-.19-.03-.3,.03-.39,.18-.05,.08-.11,.15-.19,.24,.59,.4,1.17,.78,1.89,.83,.33,.02,.63-.1,.89-.3,.24-.18,.46-.39,.71-.55,.27-.17,.55-.34,.85-.42,.66-.18,1.29,.29,1.37,.98,.09,.76-.24,1.37-.77,1.86-.78,.72-1.73,.88-2.76,.73-.96-.14-1.76-.62-2.53-1.16-.25-.18-.5-.36-.77-.55-.11,.14-.23,.28-.33,.43-.03,.04,.01,.14,.03,.2,.13,.41-.04,.83-.4,1.03-.36,.2-.79,.12-1.06-.22-.24-.29-.25-.62-.08-.95,.16-.31,.43-.47,.76-.45,.21,.02,.32-.04,.42-.2,.04-.07,.1-.13,.16-.21-.12-.1-.24-.19-.36-.28-2.75-1.97-5.37-4.1-7.97-6.26-1.72-1.43-3.51-2.77-5.47-3.87-1.63-.92-3.34-1.61-5.18-1.96-1.29-.25-2.59-.31-3.89-.22-.07,0-.14,0-.23-.02,.05-.03,.1-.07,.16-.09,1.7-.79,3.49-1.03,5.35-.86,2.41,.22,4.6,1.1,6.66,2.34,1.8,1.08,3.48,2.34,5.06,3.71,1.74,1.51,3.45,3.07,5.18,4.6,.59,.52,1.19,1.02,1.81,1.54Z"/>
          <path d="M370.46,49.71c-.57-.52-1.12-1.02-1.69-1.54,.05-.05,.09-.11,.14-.15,1.5-1.35,3.03-2.66,4.68-3.82,1.41-.99,2.88-1.86,4.48-2.51,1.78-.72,3.63-1.13,5.56-1.02,1.3,.07,2.55,.35,3.73,.91,.08,.04,.16,.08,.23,.17-.12,0-.24,0-.36-.02-2.59-.22-5.07,.25-7.44,1.31-1.65,.74-3.17,1.71-4.63,2.78-1.61,1.18-3.13,2.48-4.62,3.8-.02,.02-.05,.04-.1,.08Z"/>
          <path d="M362.91,53.28c-.11-.14-.2-.26-.31-.38-.03-.03-.1-.04-.15-.04-.38,.06-.71-.09-.87-.41-.16-.33-.1-.71,.16-.95,.26-.25,.64-.28,.96-.1,.31,.19,.45,.53,.34,.9-.05,.15-.01,.24,.08,.34,.09,.09,.17,.19,.28,.32,.98-.84,1.95-1.68,2.94-2.53,.52,.42,1.04,.84,1.6,1.3-1.14,.87-2.26,1.73-3.41,2.6,.12,.14,.23,.28,.36,.4,.04,.04,.15,.03,.22,.02,.41-.04,.74,.15,.9,.52,.15,.34,.05,.75-.23,1-.28,.24-.67,.28-.98,.1-.33-.2-.51-.58-.39-.96,.06-.2,.01-.32-.12-.45-.08-.08-.15-.17-.23-.27-.27,.19-.54,.38-.81,.57-.66,.45-1.34,.88-2.13,1.07-1.06,.26-2.08,.19-2.98-.5-.64-.49-1.05-1.12-.96-1.97,.08-.78,.8-1.24,1.54-.98,.26,.09,.5,.25,.73,.4,.19,.13,.37,.28,.55,.43,.49,.4,1.02,.51,1.62,.29,.47-.17,.88-.42,1.3-.72Z"/>
        </g>
      </g>
      <path d="M394.32,145.78l13.02-22.55c.82-1.42-.2-3.19-1.84-3.19h-26.04c-1.64,0-2.66,1.77-1.84,3.19l13.02,22.55c.82,1.42,2.87,1.42,3.69,0Z"/>
    </g>
  </g>
</svg>