<?xml version="1.0" encoding="UTF-8"?>
<svg id="Layer_1" data-name="Layer 1" xmlns="http://www.w3.org/2000/svg" viewBox="0 0 56.95 72.43">
  <path d="M52.03,68.58c-6.21-21.78-12.49-43.55-18.63-65.35-.42-1.47-1.06-2.29-1.92-2.73h-6.02c-.88,.44-1.52,1.25-1.92,2.74-2.27,8.49-4.79,16.92-7.19,25.36-3.9,13.71-7.81,27.4-11.68,41.12-.34,1.2-.38,2.09-.1,2.71H12.85c.28-.41,.48-.93,.64-1.56,.95-3.86,2.18-7.65,3.2-11.5,.39-1.48,1.07-2.1,2.62-2.08,6.11,.08,12.22,.09,18.33-.01,1.68-.02,2.34,.68,2.74,2.26,.89,3.5,2.06,6.92,2.89,10.43,.24,.99,.56,1.83,.99,2.46h8.11c.37-.77,.19-1.97-.34-3.85ZM20,47.94c2.73-9.66,5.38-19.04,8.04-28.42,.27,0,.55-.01,.83-.02,2.68,9.37,5.37,18.73,8.15,28.44H20Z"/>
</svg>