<?xml version="1.0" encoding="UTF-8"?>
<svg id="Layer_1" data-name="Layer 1" xmlns="http://www.w3.org/2000/svg" viewBox="0 0 56.95 72.43">
  <path d="M41.82,35.82c5.98-4.97,6.2-11.66,5.9-18.56-.37-8.58-5.61-15-13.3-16.75H9.67c-.96,.54-1.26,1.61-1.26,3.59-.02,21.49-.01,42.99,0,64.48,0,2.98,.72,3.75,3.66,3.77,3.7,.02,7.4,.08,11.11,.08,2.85,0,5.71-.04,8.56-.16,7.3-.31,13-3.86,15.17-11.03,2.71-8.96,2.77-17.85-5.09-25.42Zm-24.76-15.6c0-2.9,.07-5.82-.02-8.72-.06-1.7,.41-2.49,2.24-2.44,3.68,.08,7.36-.02,11.03-.04,2.81-.02,5,1.22,6.75,3.38,3.03,3.76,3.27,12.35-.05,15.82-1.54,1.62-3.99,2.9-6.18,3.21-3.78,.54-7.69,.12-11.55,.25-1.85,.06-2.29-.8-2.24-2.47,.08-2.99,.02-6,.02-9Zm22.45,34.18c-.22,5.01-3.87,8.75-8.79,8.89-3.86,.11-7.72-.04-11.58,.05-1.7,.04-2.16-.67-2.11-2.27,.08-3.09,.02-6.19,.02-9.28h.02c0-2.91,.07-5.83-.03-8.73-.06-1.7,.4-2.48,2.24-2.42,3.68,.11,7.36-.04,11.04,.04,5.32,.12,8.93,3.74,9.16,9.07,.07,1.55,.1,3.1,.03,4.64Z"/>
</svg>