<?xml version="1.0" encoding="UTF-8"?>
<svg id="Layer_1" data-name="Layer 1" xmlns="http://www.w3.org/2000/svg" viewBox="0 0 56.95 72.43">
  <path d="M49.01,19.19c-.19-9.84-5.93-16.81-14.61-18.68C32.84,.17,31.19,0,29.45,0,23.79,.03,18.12,0,12.46,.03c-1.63,.01-2.7,.11-3.4,.48-1.08,.58-1.29,1.77-1.29,4.25v31.49h.02c0,10.77-.01,21.54,.01,32.32,0,3.17,.68,3.85,3.81,3.86,3.06,0,6.12,0,9.17,0s6.12,0,9.18-.02c11.14-.04,18.94-7.64,19.11-19,.16-11.41,.16-22.82-.06-34.23Zm-8.55,31.87c-.03,8.37-4.11,12.38-12.37,12.33-2.96-.02-5.93-.12-8.89,.05-2.11,.12-2.8-.54-2.76-2.74,.12-8.12,.05-16.24,.05-24.36h-.02c0-8.21,.06-16.42-.04-24.63-.02-2.06,.63-2.71,2.62-2.64,3.68,.12,7.37-.08,11.06,0,5.17,.11,9.05,3.46,9.96,8.64,.33,1.86,.36,3.8,.36,5.71,.04,9.22,.06,18.43,.03,27.64Z"/>
</svg>