<?xml version="1.0" encoding="UTF-8"?>
<svg id="Layer_1" data-name="Layer 1" xmlns="http://www.w3.org/2000/svg" viewBox="0 0 56.95 72.43">
  <path d="M17,9.43c0,4.34,0,8.4,0,12.45,0,2.54,.12,5.09,0,7.62-.09,1.88,.52,2.54,2.44,2.5,5.21-.12,10.42-.07,15.63-.06,3.21,0,3.72,.6,3.74,4.14,.03,4.28-.27,4.72-3.62,4.76-5.21,.06-10.42,.12-15.63,0-2.03-.04-2.63,.66-2.59,2.66,.11,5.8,.12,11.61,0,17.42-.04,2.12,.77,2.59,2.7,2.57,8.36-.09,16.71-.05,25.07-.04,3.56,0,3.83,.38,3.86,4.8,.02,3.56-.46,4.15-3.7,4.16-10.96,.03-21.92,.03-32.88,0-2.85,0-3.65-.83-3.65-3.77-.01-21.5,0-43,.02-64.51,0-2.84,.91-3.72,3.75-3.73,10.96-.02,21.92-.02,32.88,0,2.97,0,3.55,.67,3.59,3.74,0,.54-.04,1.09,0,1.63,.18,2.56-1.02,3.6-3.53,3.59-8.27-.03-16.53,.03-24.8,.05-.97,0-1.94,0-3.27,0Z"/>
</svg>