<?xml version="1.0" encoding="UTF-8"?>
<svg id="Layer_1" data-name="Layer 1" xmlns="http://www.w3.org/2000/svg" viewBox="0 0 56.95 72.43">
  <path d="M40.16,43.73c-2.98,0-5.66-.06-8.33,.02-2.41,.07-3.51-.97-3.33-3.38,.06-.8,.04-1.61,.03-2.41-.04-1.96,.82-3,2.89-2.99,4.85,.04,9.71,.03,14.56,.03,1.87,0,2.87,.93,2.88,2.77,.01,5.54,.3,11.09-.09,16.6-.81,11.44-9.12,18.33-21.26,18.05-11.4-.27-19.18-7.74-19.38-19.09-.21-11.43-.18-22.86,.03-34.29C8.36,8.16,15.97,.75,27.18,.05c11.23-.69,19.79,5.93,21.52,16.65,.58,3.57-.23,4.52-3.85,4.6q-4.11,.08-5.07-3.94c-1.21-5.09-6.02-8.56-11.67-8.42-5.59,.14-10.19,3.87-11.07,9.15-.3,1.84-.32,3.73-.32,5.6-.02,9.2,0,18.39,.01,27.59,0,7.37,4.63,12.26,11.63,12.3,7,.04,11.72-4.83,11.78-12.18,.02-2.4,0-4.8,0-7.69Z"/>
</svg>