<?xml version="1.0" encoding="UTF-8"?>
<svg id="Layer_1" data-name="Layer 1" xmlns="http://www.w3.org/2000/svg" viewBox="0 0 56.95 72.43">
  <path d="M48.67,47.82c0,6.97-.01,14.94-.08,21.91-.01,1.28-.11,2.14-.48,2.7h-7.62c-.38-.56-.48-1.4-.49-2.71-.05-7.59-.02-16.18-.02-23.78v-4.41H17.08c-.05,.97-.14,1.91-.14,2.85-.02,7.96-.01,16.9-.03,24.86,0,1.58-.11,2.58-.53,3.18h-7.62c-.36-.6-.45-1.54-.45-3.01-.02-21-.03-43.98-.02-64.98,0-3.38,.67-3.91,4.54-3.93h.16c3.23,0,3.86,.61,3.88,3.8,.04,8.05,.04,17.08,.06,25.12,.01,.95,.09,1.91,.15,3.09,7.31,0,14.39,.05,21.46-.1,.49-.01,1.34-1.46,1.35-2.26,.11-8.22,.01-17.44,.15-25.65,.02-1.24,.75-3.41,1.46-3.54,1.99-.36,4.2-.14,6.17,.42,.59,.17,.91,2.18,.92,3.35,.08,14.03,.08,29.05,.08,43.08Z"/>
</svg>