<?xml version="1.0" encoding="UTF-8"?>
<svg id="Layer_1" data-name="Layer 1" xmlns="http://www.w3.org/2000/svg" viewBox="0 0 56.95 72.43">
  <path d="M45.73,71.02c.26,.47,.61,.93,.83,1.41h-10.13c-3.91-7.64-7.8-18.43-11.71-25.5-.64-1.15-1.35-2.27-2.18-3.64-2.14,2.79-3.96,5.24-3.81,8.81,.22,5.32,.1,14.81,.07,20.33H10.08c-.02-20.98-.02-49.61-.02-70.49,0-.55,.02-1.01,.06-1.43h8.57c.03,.4,.05,.85,.05,1.35,.01,8.65,0,20.82,0,30.24,.82-1.04,1.24-1.5,1.57-2.02C25.76,21.39,31.19,9.22,36.64,.51h10.18c-.13,.6-.48,1.21-.86,1.83-3.98,6.38-7.95,16.26-11.92,22.65-1.6,2.59-3.11,5.23-4.84,7.74-1.02,1.48-.86,2.65-.02,4.15,5.57,9.9,11.05,24.21,16.55,34.15Z"/>
</svg>