<?xml version="1.0" encoding="UTF-8"?>
<svg id="Layer_1" data-name="Layer 1" xmlns="http://www.w3.org/2000/svg" viewBox="0 0 56.95 72.43">
  <path d="M49.4,69.79c0,1.22-.24,2.07-.78,2.64h-6.76c-.92-.69-1.68-1.74-2.38-3.23-7.06-14.96-14.42-29.76-21.67-44.61-.29-.59-.64-1.14-.95-1.71-.19,.04-.38,.08-.57,.12v19.85c-.01,8.68,0,17.37-.03,26.04,0,1.8-.15,2.88-.69,3.54h-7.39c-.5-.63-.62-1.68-.62-3.44-.01-21.7,0-43.41,0-65.1,0-1.2-.09-2.47,.47-3.38h7.91c.32,.31,.59,.67,.79,1.07,3.31,6.62,6.58,13.28,9.84,19.93,4.26,8.7,8.5,17.42,12.75,26.12,.24,.49,.53,.95,1.36,1.36v-3.24c0-13.98-.04-27.97,.08-41.95,.01-.98,.38-2.43,.87-3.29h7.2c.29,.59,.51,1.53,.51,2.17,.06,22.37,.04,44.75,.06,67.12Z"/>
</svg>