<?xml version="1.0" encoding="UTF-8"?>
<svg id="Layer_1" data-name="Layer 1" xmlns="http://www.w3.org/2000/svg" viewBox="0 0 56.95 72.43">
  <path d="M48.21,30.03c.51-4.51,.36-9.22-.22-13.73C46.81,7.27,40.06,.84,31.66,.52c-.1,0-.21-.01-.31-.01-6.54-.24-13.09-.04-19.64-.03-.2,0-.4,0-.58,.03-1.82,.19-2.7,1.33-2.7,3.57,.03,22.59,0,45.18,.05,67.77,0,.21,0,.4,.01,.59h8.59c.01-.22,.02-.46,.02-.72,.05-5.97,.03-11.94,.04-17.89,.01-7.38,.02-7.24,6.72-7.45,2.48-.08,3.66,.86,4.66,3.22,3.25,7.67,6.7,15.24,10.09,22.84h9.43c0-.28-.03-.54-.08-.76-.35-1.59-1.15-3.06-1.81-4.57-3.17-7.1-6.36-14.2-9.7-21.64,6.82-2.83,10.91-7.96,11.76-15.44Zm-9.07-.4c-.51,3.75-3.2,6.41-6.68,6.71-4.97,.43-9.99,.11-15.16,.11V10.08c4.92,0,9.68-.26,14.41,.08,3.87,.28,6.75,3.04,7.4,7.03,.67,4.03,.57,8.37,.03,12.44Z"/>
</svg>