<?xml version="1.0" encoding="UTF-8"?>
<svg id="Layer_1" data-name="Layer 1" xmlns="http://www.w3.org/2000/svg" viewBox="0 0 56.95 72.43">
  <path d="M47.95,52.7c.04,9.44-5.4,16.98-13.75,19.03-9.97,2.46-19.95-1.71-24.12-10.03-1.06-2.12-.87-3.68,1.46-4.63,.5-.2,.95-.52,1.42-.78,3.13-1.75,3.4-1.68,5.35,1.33,2.91,4.51,7.73,6.54,12.87,5.28,4.14-1.02,6.8-3.75,7.7-7.97,.88-4.16-.03-7.99-3.54-10.56-2.01-1.47-4.4-2.41-6.69-3.45-3.53-1.6-7.29-2.75-10.62-4.68-6.89-4-9.56-10.54-8.96-18.38C9.71,9.65,13.87,3.9,21.57,1.22c9.03-3.14,18.77-.01,23.8,7.44,2.05,3.03,1.86,3.94-1.23,5.83-.46,.28-.94,.55-1.36,.89-1.88,1.5-3.3,1.29-4.65-.86-2.61-4.12-6.51-5.63-11.17-5.07-4.51,.55-8.03,3.81-8.9,8.03-.93,4.5,.87,8.86,5.2,11.06,3.84,1.96,7.99,3.29,11.97,4.96,8.35,3.5,12.67,10.05,12.71,19.2Z"/>
</svg>