<?xml version="1.0" encoding="UTF-8"?>
<svg id="Layer_1" data-name="Layer 1" xmlns="http://www.w3.org/2000/svg" viewBox="0 0 56.95 72.43">
  <path d="M47.79,3.84c.01,4.49-.28,4.85-3.98,4.87-3.56,.01-7.12,0-10.96,0v3.38c-.02,15.88,0,42.55-.1,60.34h-8.65c-.04-9.29,0-22.55,0-29.69,0-9.02-.07-22.01,.09-31.02,.05-2.42-.71-3.13-3.04-2.98-2.77,.18-5.57,.03-8.35,.09-2.43,.05-3.62-.88-3.62-3.47-.01-2.9,.07-4.24,1.12-4.84C11.04,.07,12.3,.01,14.4,.01,24.19,0,33.98,0,43.77,.02c1.43,0,2.36,.11,2.97,.49,.84,.5,1.05,1.48,1.05,3.33Z"/>
</svg>