<?xml version="1.0" encoding="UTF-8"?>
<svg id="Layer_1" data-name="Layer 1" xmlns="http://www.w3.org/2000/svg" viewBox="0 0 56.95 72.43">
  <path d="M48.43,53.73c-.15,8.86-5.73,15.9-13.92,17.9-2.19,.54-4.35,.8-6.42,.8-7.49,0-13.93-3.4-17.09-9.7-1.48-2.92-2.36-6.47-2.41-9.75-.23-14.68-.12-37.1-.1-52.48h8.71c.01,15.13-.01,37.35,.03,51.8,.01,4.97,2.55,8.96,6.91,10.51,4.49,1.59,8.72,.94,12.26-2.43,2.48-2.36,3.4-5.38,3.4-8.74-.02-14.23-.01-36.35,0-51.14h8.62c.08,8.4,.03,22.7,.03,29.89h.01c0,7.78,.1,15.56-.03,23.33Z"/>
</svg>