<?xml version="1.0" encoding="UTF-8"?>
<svg id="Layer_1" data-name="Layer 1" xmlns="http://www.w3.org/2000/svg" viewBox="0 0 56.95 72.43">
  <path d="M28.95,52.09c.7-2.48,1.43-4.96,2.09-7.45,3.64-13.59,7.23-27.19,10.96-40.75,.32-1.15,1.5-2.77,2.44-2.89,2.12-.26,4.4,.09,6.49,.65,.41,.11,.59,2.4,.3,3.53-3.02,11.53-6.17,23.03-9.28,34.54-2.62,9.71-5.23,19.43-7.86,29.15-.93,3.43-1.2,3.46-6.42,3.55-2.65,.05-3.78-1.04-4.45-3.54C17.62,47.89,11.91,26.93,6.24,5.96c-.52-1.93-1.69-4.16,1.32-5.1,3.97-1.23,6.99,0,7.78,2.99,3.99,14.95,7.97,29.91,11.96,44.86,.3,1.14,.72,2.25,1.08,3.37,.19,0,.37,0,.56,0Z"/>
</svg>