<?xml version="1.0" encoding="UTF-8"?>
<svg id="Layer_1" data-name="Layer 1" xmlns="http://www.w3.org/2000/svg" viewBox="0 0 56.95 72.43">
  <path d="M48.11,72.43h-8.95c-.43-.77-.87-1.79-1.46-3.17-2.91-6.84-5.88-13.66-9.11-21.13-.68,1.39-1.13,2.25-1.52,3.13-2.88,6.65-5.75,13.33-8.64,19.98-.18,.43-.45,.83-.79,1.18H8.85c-.2-.9,.16-1.89,.58-2.86,3.9-9.03,7.61-18.16,11.78-27.04,1.86-3.97,2.12-7.18,.14-11.27-4.19-8.65-7.81-17.63-11.67-26.46-.99-2.27-.85-3.65,.53-4.29,.51-.24,1.2-.38,2.06-.42,2.53-.12,3.78-.18,4.65,.42,.86,.58,1.37,1.77,2.4,4.15,2.92,6.73,5.91,13.44,9.24,21.02,3.17-7.31,6.04-13.85,8.84-20.42,1.17-2.76,1.73-4.12,2.72-4.74,.94-.6,2.27-.55,4.88-.43,.82,.04,1.48,.18,1.97,.43,1.22,.62,1.41,1.9,.55,3.91-2.55,5.98-5.19,11.91-7.79,17.85-1.8,4.11-3.7,8.18-5.3,12.38-.47,1.22-.49,3.03,.01,4.23,3.87,9.26,7.91,18.43,11.89,27.64,.54,1.22,1.08,2.45,1.51,3.72,.28,.87,.37,1.6,.27,2.19Z"/>
</svg>