<?xml version="1.0" encoding="UTF-8"?>
<svg id="Layer_1" data-name="Layer 1" xmlns="http://www.w3.org/2000/svg" viewBox="0 0 56.95 72.43">
  <path d="M20.65,63.18c6.33,0,12.07,0,17.8,0,.9,0,1.8,0,2.7,0,4.96,.01,6.55,2.16,5.01,7.17-.27,.87-1.6,1.96-2.46,1.97-10.24,.13-20.49,.14-30.73-.02-.9-.01-2.55-1.4-2.54-2.13,.04-2.92-.08-6.17,1.08-8.69,7.48-16.29,15.29-32.41,22.98-48.59,.39-.83,.77-1.67,1.33-2.9-1.15-.11-2.08-.27-3-.27-6.29-.03-12.58,0-18.87-.05-3.18-.02-3.72-.65-3.72-4,0-4.56,.41-5.16,3.72-5.17,9.53-.02,19.05-.01,28.58,.01,3.18,0,3.95,.61,3.72,3.94-.19,2.71-.61,5.6-1.73,8.01-7.21,15.6-14.63,31.08-21.98,46.61-.55,1.16-1.08,2.33-1.9,4.09Z"/>
</svg>